<svg width="511" height="652" viewBox="0 0 511 652" fill="none" xmlns="http://www.w3.org/2000/svg">
<circle cx="3.5974" cy="3.5974" r="3.5974" fill="#88E4D4"/>
<circle cx="14.3894" cy="3.5974" r="3.5974" fill="#88E4D4"/>
<circle cx="25.1819" cy="3.5974" r="3.5974" fill="#88E4D4"/>
<circle cx="35.9739" cy="3.5974" r="3.5974" fill="#88E4D4"/>
<circle cx="46.7663" cy="3.5974" r="3.5974" fill="#88E4D4"/>
<circle cx="57.5583" cy="3.5974" r="3.5974" fill="#88E4D4"/>
<circle cx="68.3503" cy="3.5974" r="3.5974" fill="#88E4D4"/>
<circle cx="79.1433" cy="3.5974" r="3.5974" fill="#88E4D4"/>
<circle cx="89.9348" cy="3.5974" r="3.5974" fill="#88E4D4"/>
<circle cx="100.728" cy="3.5974" r="3.5974" fill="#88E4D4"/>
<circle cx="111.52" cy="3.5974" r="3.5974" fill="#88E4D4"/>
<circle cx="122.311" cy="3.5974" r="3.5974" fill="#88E4D4"/>
<circle cx="133.104" cy="3.5974" r="3.5974" fill="#88E4D4"/>
<circle cx="143.896" cy="3.5974" r="3.5974" fill="#88E4D4"/>
<circle cx="154.688" cy="3.5974" r="3.5974" fill="#88E4D4"/>
<circle cx="165.481" cy="3.5974" r="3.5974" fill="#88E4D4"/>
<circle cx="176.273" cy="3.5974" r="3.5974" fill="#88E4D4"/>
<circle cx="187.065" cy="3.5974" r="3.5974" fill="#88E4D4"/>
<circle cx="197.857" cy="3.5974" r="3.5974" fill="#88E4D4"/>
<circle cx="208.649" cy="3.5974" r="3.5974" fill="#88E4D4"/>
<circle cx="219.442" cy="3.5974" r="3.5974" fill="#88E4D4"/>
<circle cx="230.234" cy="3.5974" r="3.5974" fill="#88E4D4"/>
<circle cx="241.026" cy="3.5974" r="3.5974" fill="#88E4D4"/>
<circle cx="251.818" cy="3.5974" r="3.5974" fill="#88E4D4"/>
<circle cx="262.61" cy="3.5974" r="3.5974" fill="#88E4D4"/>
<circle cx="273.403" cy="3.5974" r="3.5974" fill="#88E4D4"/>
<circle cx="3.5974" cy="23.3826" r="3.5974" fill="#88E4D4"/>
<circle cx="14.3894" cy="23.3826" r="3.5974" fill="#88E4D4"/>
<circle cx="25.1819" cy="23.3826" r="3.5974" fill="#88E4D4"/>
<circle cx="35.9739" cy="23.3826" r="3.5974" fill="#88E4D4"/>
<circle cx="46.7663" cy="23.3826" r="3.5974" fill="#88E4D4"/>
<circle cx="57.5583" cy="23.3826" r="3.5974" fill="#88E4D4"/>
<circle cx="68.3503" cy="23.3826" r="3.5974" fill="#88E4D4"/>
<circle cx="79.1433" cy="23.3826" r="3.5974" fill="#88E4D4"/>
<circle cx="89.9348" cy="23.3826" r="3.5974" fill="#88E4D4"/>
<circle cx="100.728" cy="23.3826" r="3.5974" fill="#88E4D4"/>
<circle cx="111.52" cy="23.3826" r="3.5974" fill="#88E4D4"/>
<circle cx="122.311" cy="23.3826" r="3.5974" fill="#88E4D4"/>
<circle cx="133.104" cy="23.3826" r="3.5974" fill="#88E4D4"/>
<circle cx="143.896" cy="23.3826" r="3.5974" fill="#88E4D4"/>
<circle cx="154.688" cy="23.3826" r="3.5974" fill="#88E4D4"/>
<circle cx="165.481" cy="23.3826" r="3.5974" fill="#88E4D4"/>
<circle cx="176.273" cy="23.3826" r="3.5974" fill="#88E4D4"/>
<circle cx="187.065" cy="23.3826" r="3.5974" fill="#88E4D4"/>
<circle cx="197.857" cy="23.3826" r="3.5974" fill="#88E4D4"/>
<circle cx="208.649" cy="23.3826" r="3.5974" fill="#88E4D4"/>
<circle cx="219.442" cy="23.3826" r="3.5974" fill="#88E4D4"/>
<circle cx="230.234" cy="23.3826" r="3.5974" fill="#88E4D4"/>
<circle cx="241.026" cy="23.3826" r="3.5974" fill="#88E4D4"/>
<circle cx="251.818" cy="23.3826" r="3.5974" fill="#88E4D4"/>
<circle cx="262.61" cy="23.3826" r="3.5974" fill="#88E4D4"/>
<circle cx="273.403" cy="23.3826" r="3.5974" fill="#88E4D4"/>
<circle cx="3.5974" cy="43.1677" r="3.5974" fill="#88E4D4"/>
<circle cx="14.3894" cy="43.1677" r="3.5974" fill="#88E4D4"/>
<circle cx="25.1819" cy="43.1677" r="3.5974" fill="#88E4D4"/>
<circle cx="35.9739" cy="43.1677" r="3.5974" fill="#88E4D4"/>
<circle cx="46.7663" cy="43.1677" r="3.5974" fill="#88E4D4"/>
<circle cx="57.5583" cy="43.1677" r="3.5974" fill="#88E4D4"/>
<circle cx="68.3503" cy="43.1677" r="3.5974" fill="#88E4D4"/>
<circle cx="79.1433" cy="43.1677" r="3.5974" fill="#88E4D4"/>
<circle cx="89.9348" cy="43.1677" r="3.5974" fill="#88E4D4"/>
<circle cx="100.728" cy="43.1677" r="3.5974" fill="#88E4D4"/>
<circle cx="111.52" cy="43.1677" r="3.5974" fill="#88E4D4"/>
<circle cx="122.311" cy="43.1677" r="3.5974" fill="#88E4D4"/>
<circle cx="133.104" cy="43.1677" r="3.5974" fill="#88E4D4"/>
<circle cx="143.896" cy="43.1677" r="3.5974" fill="#88E4D4"/>
<circle cx="154.688" cy="43.1677" r="3.5974" fill="#88E4D4"/>
<circle cx="165.481" cy="43.1677" r="3.5974" fill="#88E4D4"/>
<circle cx="176.273" cy="43.1677" r="3.5974" fill="#88E4D4"/>
<circle cx="187.065" cy="43.1677" r="3.5974" fill="#88E4D4"/>
<circle cx="197.857" cy="43.1677" r="3.5974" fill="#88E4D4"/>
<circle cx="208.649" cy="43.1677" r="3.5974" fill="#88E4D4"/>
<circle cx="219.442" cy="43.1677" r="3.5974" fill="#88E4D4"/>
<circle cx="230.234" cy="43.1677" r="3.5974" fill="#88E4D4"/>
<circle cx="241.026" cy="43.1677" r="3.5974" fill="#88E4D4"/>
<circle cx="251.818" cy="43.1677" r="3.5974" fill="#88E4D4"/>
<circle cx="262.61" cy="43.1677" r="3.5974" fill="#88E4D4"/>
<circle cx="273.403" cy="43.1677" r="3.5974" fill="#88E4D4"/>
<circle cx="3.5974" cy="62.9548" r="3.5974" fill="#88E4D4"/>
<circle cx="14.3894" cy="62.9548" r="3.5974" fill="#88E4D4"/>
<circle cx="25.1819" cy="62.9548" r="3.5974" fill="#88E4D4"/>
<circle cx="35.9739" cy="62.9548" r="3.5974" fill="#88E4D4"/>
<circle cx="46.7663" cy="62.9548" r="3.5974" fill="#88E4D4"/>
<circle cx="57.5583" cy="62.9548" r="3.5974" fill="#88E4D4"/>
<circle cx="68.3503" cy="62.9548" r="3.5974" fill="#88E4D4"/>
<circle cx="79.1433" cy="62.9548" r="3.5974" fill="#88E4D4"/>
<circle cx="89.9348" cy="62.9548" r="3.5974" fill="#88E4D4"/>
<circle cx="100.728" cy="62.9548" r="3.5974" fill="#88E4D4"/>
<circle cx="111.52" cy="62.9548" r="3.5974" fill="#88E4D4"/>
<circle cx="122.311" cy="62.9548" r="3.5974" fill="#88E4D4"/>
<circle cx="133.104" cy="62.9548" r="3.5974" fill="#88E4D4"/>
<circle cx="143.896" cy="62.9548" r="3.5974" fill="#88E4D4"/>
<circle cx="154.688" cy="62.9548" r="3.5974" fill="#88E4D4"/>
<circle cx="165.481" cy="62.9548" r="3.5974" fill="#88E4D4"/>
<circle cx="176.273" cy="62.9548" r="3.5974" fill="#88E4D4"/>
<circle cx="187.065" cy="62.9548" r="3.5974" fill="#88E4D4"/>
<circle cx="197.857" cy="62.9548" r="3.5974" fill="#88E4D4"/>
<circle cx="208.649" cy="62.9548" r="3.5974" fill="#88E4D4"/>
<circle cx="219.442" cy="62.9548" r="3.5974" fill="#88E4D4"/>
<circle cx="230.234" cy="62.9548" r="3.5974" fill="#88E4D4"/>
<circle cx="241.026" cy="62.9548" r="3.5974" fill="#88E4D4"/>
<circle cx="251.818" cy="62.9548" r="3.5974" fill="#88E4D4"/>
<circle cx="262.61" cy="62.9548" r="3.5974" fill="#88E4D4"/>
<circle cx="273.403" cy="62.9548" r="3.5974" fill="#88E4D4"/>
<circle cx="3.5974" cy="82.74" r="3.5974" fill="#88E4D4"/>
<circle cx="14.3894" cy="82.74" r="3.5974" fill="#88E4D4"/>
<circle cx="25.1819" cy="82.74" r="3.5974" fill="#88E4D4"/>
<circle cx="35.9739" cy="82.74" r="3.5974" fill="#88E4D4"/>
<circle cx="46.7663" cy="82.74" r="3.5974" fill="#88E4D4"/>
<circle cx="57.5583" cy="82.74" r="3.5974" fill="#88E4D4"/>
<circle cx="68.3503" cy="82.74" r="3.5974" fill="#88E4D4"/>
<circle cx="79.1433" cy="82.74" r="3.5974" fill="#88E4D4"/>
<circle cx="89.9348" cy="82.74" r="3.5974" fill="#88E4D4"/>
<circle cx="100.728" cy="82.74" r="3.5974" fill="#88E4D4"/>
<circle cx="111.52" cy="82.74" r="3.5974" fill="#88E4D4"/>
<circle cx="122.311" cy="82.74" r="3.5974" fill="#88E4D4"/>
<circle cx="133.104" cy="82.74" r="3.5974" fill="#88E4D4"/>
<circle cx="143.896" cy="82.74" r="3.5974" fill="#88E4D4"/>
<circle cx="154.688" cy="82.74" r="3.5974" fill="#88E4D4"/>
<circle cx="165.481" cy="82.74" r="3.5974" fill="#88E4D4"/>
<circle cx="176.273" cy="82.74" r="3.5974" fill="#88E4D4"/>
<circle cx="187.065" cy="82.74" r="3.5974" fill="#88E4D4"/>
<circle cx="197.857" cy="82.74" r="3.5974" fill="#88E4D4"/>
<circle cx="208.649" cy="82.74" r="3.5974" fill="#88E4D4"/>
<circle cx="219.442" cy="82.74" r="3.5974" fill="#88E4D4"/>
<circle cx="230.234" cy="82.74" r="3.5974" fill="#88E4D4"/>
<circle cx="241.026" cy="82.74" r="3.5974" fill="#88E4D4"/>
<circle cx="251.818" cy="82.74" r="3.5974" fill="#88E4D4"/>
<circle cx="262.61" cy="82.74" r="3.5974" fill="#88E4D4"/>
<circle cx="273.403" cy="82.74" r="3.5974" fill="#88E4D4"/>
<circle cx="3.5974" cy="102.525" r="3.5974" fill="#88E4D4"/>
<circle cx="14.3894" cy="102.525" r="3.5974" fill="#88E4D4"/>
<circle cx="25.1819" cy="102.525" r="3.5974" fill="#88E4D4"/>
<circle cx="35.9739" cy="102.525" r="3.5974" fill="#88E4D4"/>
<circle cx="46.7663" cy="102.525" r="3.5974" fill="#88E4D4"/>
<circle cx="57.5583" cy="102.525" r="3.5974" fill="#88E4D4"/>
<circle cx="68.3503" cy="102.525" r="3.5974" fill="#88E4D4"/>
<circle cx="79.1433" cy="102.525" r="3.5974" fill="#88E4D4"/>
<circle cx="89.9348" cy="102.525" r="3.5974" fill="#88E4D4"/>
<circle cx="100.728" cy="102.525" r="3.5974" fill="#88E4D4"/>
<circle cx="111.52" cy="102.525" r="3.5974" fill="#88E4D4"/>
<circle cx="122.311" cy="102.525" r="3.5974" fill="#88E4D4"/>
<circle cx="133.104" cy="102.525" r="3.5974" fill="#88E4D4"/>
<circle cx="143.896" cy="102.525" r="3.5974" fill="#88E4D4"/>
<circle cx="154.688" cy="102.525" r="3.5974" fill="#88E4D4"/>
<circle cx="165.481" cy="102.525" r="3.5974" fill="#88E4D4"/>
<circle cx="176.273" cy="102.525" r="3.5974" fill="#88E4D4"/>
<circle cx="187.065" cy="102.525" r="3.5974" fill="#88E4D4"/>
<circle cx="197.857" cy="102.525" r="3.5974" fill="#88E4D4"/>
<circle cx="208.649" cy="102.525" r="3.5974" fill="#88E4D4"/>
<circle cx="219.442" cy="102.525" r="3.5974" fill="#88E4D4"/>
<circle cx="230.234" cy="102.525" r="3.5974" fill="#88E4D4"/>
<circle cx="241.026" cy="102.525" r="3.5974" fill="#88E4D4"/>
<circle cx="251.818" cy="102.525" r="3.5974" fill="#88E4D4"/>
<circle cx="262.61" cy="102.525" r="3.5974" fill="#88E4D4"/>
<circle cx="273.403" cy="102.525" r="3.5974" fill="#88E4D4"/>
<circle cx="3.5974" cy="122.312" r="3.5974" fill="#88E4D4"/>
<circle cx="14.3894" cy="122.312" r="3.5974" fill="#88E4D4"/>
<circle cx="25.1819" cy="122.312" r="3.5974" fill="#88E4D4"/>
<circle cx="35.9739" cy="122.312" r="3.5974" fill="#88E4D4"/>
<circle cx="46.7663" cy="122.312" r="3.5974" fill="#88E4D4"/>
<circle cx="57.5583" cy="122.312" r="3.5974" fill="#88E4D4"/>
<circle cx="68.3503" cy="122.312" r="3.5974" fill="#88E4D4"/>
<circle cx="79.1433" cy="122.312" r="3.5974" fill="#88E4D4"/>
<circle cx="89.9348" cy="122.312" r="3.5974" fill="#88E4D4"/>
<circle cx="100.728" cy="122.312" r="3.5974" fill="#88E4D4"/>
<circle cx="111.52" cy="122.312" r="3.5974" fill="#88E4D4"/>
<circle cx="122.311" cy="122.312" r="3.5974" fill="#88E4D4"/>
<circle cx="133.104" cy="122.312" r="3.5974" fill="#88E4D4"/>
<circle cx="143.896" cy="122.312" r="3.5974" fill="#88E4D4"/>
<circle cx="154.688" cy="122.312" r="3.5974" fill="#88E4D4"/>
<circle cx="165.481" cy="122.312" r="3.5974" fill="#88E4D4"/>
<circle cx="176.273" cy="122.312" r="3.5974" fill="#88E4D4"/>
<circle cx="187.065" cy="122.312" r="3.5974" fill="#88E4D4"/>
<circle cx="197.857" cy="122.312" r="3.5974" fill="#88E4D4"/>
<circle cx="208.649" cy="122.312" r="3.5974" fill="#88E4D4"/>
<circle cx="219.442" cy="122.312" r="3.5974" fill="#88E4D4"/>
<circle cx="230.234" cy="122.312" r="3.5974" fill="#88E4D4"/>
<circle cx="241.026" cy="122.312" r="3.5974" fill="#88E4D4"/>
<circle cx="251.818" cy="122.312" r="3.5974" fill="#88E4D4"/>
<circle cx="262.61" cy="122.312" r="3.5974" fill="#88E4D4"/>
<circle cx="273.403" cy="122.312" r="3.5974" fill="#88E4D4"/>
<circle cx="3.5974" cy="142.097" r="3.5974" fill="#88E4D4"/>
<circle cx="14.3894" cy="142.097" r="3.5974" fill="#88E4D4"/>
<circle cx="25.1819" cy="142.097" r="3.5974" fill="#88E4D4"/>
<circle cx="35.9739" cy="142.097" r="3.5974" fill="#88E4D4"/>
<circle cx="46.7663" cy="142.097" r="3.5974" fill="#88E4D4"/>
<circle cx="57.5583" cy="142.097" r="3.5974" fill="#88E4D4"/>
<circle cx="68.3503" cy="142.097" r="3.5974" fill="#88E4D4"/>
<circle cx="79.1433" cy="142.097" r="3.5974" fill="#88E4D4"/>
<circle cx="89.9348" cy="142.097" r="3.5974" fill="#88E4D4"/>
<circle cx="100.728" cy="142.097" r="3.5974" fill="#88E4D4"/>
<circle cx="111.52" cy="142.097" r="3.5974" fill="#88E4D4"/>
<circle cx="122.311" cy="142.097" r="3.5974" fill="#88E4D4"/>
<circle cx="133.104" cy="142.097" r="3.5974" fill="#88E4D4"/>
<circle cx="143.896" cy="142.097" r="3.5974" fill="#88E4D4"/>
<circle cx="154.688" cy="142.097" r="3.5974" fill="#88E4D4"/>
<circle cx="165.481" cy="142.097" r="3.5974" fill="#88E4D4"/>
<circle cx="176.273" cy="142.097" r="3.5974" fill="#88E4D4"/>
<circle cx="187.065" cy="142.097" r="3.5974" fill="#88E4D4"/>
<circle cx="197.857" cy="142.097" r="3.5974" fill="#88E4D4"/>
<circle cx="208.649" cy="142.097" r="3.5974" fill="#88E4D4"/>
<circle cx="219.442" cy="142.097" r="3.5974" fill="#88E4D4"/>
<circle cx="230.234" cy="142.097" r="3.5974" fill="#88E4D4"/>
<circle cx="241.026" cy="142.097" r="3.5974" fill="#88E4D4"/>
<circle cx="251.818" cy="142.097" r="3.5974" fill="#88E4D4"/>
<circle cx="262.61" cy="142.097" r="3.5974" fill="#88E4D4"/>
<circle cx="273.403" cy="142.097" r="3.5974" fill="#88E4D4"/>
<circle cx="3.5974" cy="161.883" r="3.5974" fill="#88E4D4"/>
<circle cx="14.3894" cy="161.883" r="3.5974" fill="#88E4D4"/>
<circle cx="25.1819" cy="161.883" r="3.5974" fill="#88E4D4"/>
<circle cx="35.9739" cy="161.883" r="3.5974" fill="#88E4D4"/>
<circle cx="46.7663" cy="161.883" r="3.5974" fill="#88E4D4"/>
<circle cx="57.5583" cy="161.883" r="3.5974" fill="#88E4D4"/>
<circle cx="68.3503" cy="161.883" r="3.5974" fill="#88E4D4"/>
<circle cx="79.1433" cy="161.883" r="3.5974" fill="#88E4D4"/>
<circle cx="89.9348" cy="161.883" r="3.5974" fill="#88E4D4"/>
<circle cx="100.728" cy="161.883" r="3.5974" fill="#88E4D4"/>
<circle cx="111.52" cy="161.883" r="3.5974" fill="#88E4D4"/>
<circle cx="122.311" cy="161.883" r="3.5974" fill="#88E4D4"/>
<circle cx="133.104" cy="161.883" r="3.5974" fill="#88E4D4"/>
<circle cx="143.896" cy="161.883" r="3.5974" fill="#88E4D4"/>
<circle cx="154.688" cy="161.883" r="3.5974" fill="#88E4D4"/>
<circle cx="165.481" cy="161.883" r="3.5974" fill="#88E4D4"/>
<circle cx="176.273" cy="161.883" r="3.5974" fill="#88E4D4"/>
<circle cx="187.065" cy="161.883" r="3.5974" fill="#88E4D4"/>
<circle cx="197.857" cy="161.883" r="3.5974" fill="#88E4D4"/>
<circle cx="208.649" cy="161.883" r="3.5974" fill="#88E4D4"/>
<circle cx="219.442" cy="161.883" r="3.5974" fill="#88E4D4"/>
<circle cx="230.234" cy="161.883" r="3.5974" fill="#88E4D4"/>
<circle cx="241.026" cy="161.883" r="3.5974" fill="#88E4D4"/>
<circle cx="251.818" cy="161.883" r="3.5974" fill="#88E4D4"/>
<circle cx="262.61" cy="161.883" r="3.5974" fill="#88E4D4"/>
<circle cx="273.403" cy="161.883" r="3.5974" fill="#88E4D4"/>
<circle cx="3.5974" cy="181.67" r="3.5974" fill="#88E4D4"/>
<circle cx="14.3894" cy="181.67" r="3.5974" fill="#88E4D4"/>
<circle cx="25.1819" cy="181.67" r="3.5974" fill="#88E4D4"/>
<circle cx="35.9739" cy="181.67" r="3.5974" fill="#88E4D4"/>
<circle cx="46.7663" cy="181.67" r="3.5974" fill="#88E4D4"/>
<circle cx="57.5583" cy="181.67" r="3.5974" fill="#88E4D4"/>
<circle cx="68.3503" cy="181.67" r="3.5974" fill="#88E4D4"/>
<circle cx="79.1433" cy="181.67" r="3.5974" fill="#88E4D4"/>
<circle cx="89.9348" cy="181.67" r="3.5974" fill="#88E4D4"/>
<circle cx="100.728" cy="181.67" r="3.5974" fill="#88E4D4"/>
<circle cx="111.52" cy="181.67" r="3.5974" fill="#88E4D4"/>
<circle cx="122.311" cy="181.67" r="3.5974" fill="#88E4D4"/>
<circle cx="133.104" cy="181.67" r="3.5974" fill="#88E4D4"/>
<circle cx="143.896" cy="181.67" r="3.5974" fill="#88E4D4"/>
<circle cx="154.688" cy="181.67" r="3.5974" fill="#88E4D4"/>
<circle cx="165.481" cy="181.67" r="3.5974" fill="#88E4D4"/>
<circle cx="176.273" cy="181.67" r="3.5974" fill="#88E4D4"/>
<circle cx="187.065" cy="181.67" r="3.5974" fill="#88E4D4"/>
<circle cx="197.857" cy="181.67" r="3.5974" fill="#88E4D4"/>
<circle cx="208.649" cy="181.67" r="3.5974" fill="#88E4D4"/>
<circle cx="219.442" cy="181.67" r="3.5974" fill="#88E4D4"/>
<circle cx="230.234" cy="181.67" r="3.5974" fill="#88E4D4"/>
<circle cx="241.026" cy="181.67" r="3.5974" fill="#88E4D4"/>
<circle cx="251.818" cy="181.67" r="3.5974" fill="#88E4D4"/>
<circle cx="262.61" cy="181.67" r="3.5974" fill="#88E4D4"/>
<circle cx="273.403" cy="181.67" r="3.5974" fill="#88E4D4"/>
<circle cx="3.5974" cy="201.455" r="3.5974" fill="#88E4D4"/>
<circle cx="14.3894" cy="201.455" r="3.5974" fill="#88E4D4"/>
<circle cx="25.1819" cy="201.455" r="3.5974" fill="#88E4D4"/>
<circle cx="35.9739" cy="201.455" r="3.5974" fill="#88E4D4"/>
<circle cx="46.7663" cy="201.455" r="3.5974" fill="#88E4D4"/>
<circle cx="57.5583" cy="201.455" r="3.5974" fill="#88E4D4"/>
<circle cx="68.3503" cy="201.455" r="3.5974" fill="#88E4D4"/>
<circle cx="79.1433" cy="201.455" r="3.5974" fill="#88E4D4"/>
<circle cx="89.9348" cy="201.455" r="3.5974" fill="#88E4D4"/>
<circle cx="100.728" cy="201.455" r="3.5974" fill="#88E4D4"/>
<circle cx="111.52" cy="201.455" r="3.5974" fill="#88E4D4"/>
<circle cx="122.311" cy="201.455" r="3.5974" fill="#88E4D4"/>
<circle cx="133.104" cy="201.455" r="3.5974" fill="#88E4D4"/>
<circle cx="143.896" cy="201.455" r="3.5974" fill="#88E4D4"/>
<circle cx="154.688" cy="201.455" r="3.5974" fill="#88E4D4"/>
<circle cx="165.481" cy="201.455" r="3.5974" fill="#88E4D4"/>
<circle cx="176.273" cy="201.455" r="3.5974" fill="#88E4D4"/>
<circle cx="187.065" cy="201.455" r="3.5974" fill="#88E4D4"/>
<circle cx="197.857" cy="201.455" r="3.5974" fill="#88E4D4"/>
<circle cx="208.649" cy="201.455" r="3.5974" fill="#88E4D4"/>
<circle cx="219.442" cy="201.455" r="3.5974" fill="#88E4D4"/>
<circle cx="230.234" cy="201.455" r="3.5974" fill="#88E4D4"/>
<circle cx="241.026" cy="201.455" r="3.5974" fill="#88E4D4"/>
<circle cx="251.818" cy="201.455" r="3.5974" fill="#88E4D4"/>
<circle cx="262.61" cy="201.455" r="3.5974" fill="#88E4D4"/>
<circle cx="273.403" cy="201.455" r="3.5974" fill="#88E4D4"/>
<circle cx="3.5974" cy="221.24" r="3.5974" fill="#88E4D4"/>
<circle cx="14.3894" cy="221.24" r="3.5974" fill="#88E4D4"/>
<circle cx="25.1819" cy="221.24" r="3.5974" fill="#88E4D4"/>
<circle cx="35.9739" cy="221.24" r="3.5974" fill="#88E4D4"/>
<circle cx="46.7663" cy="221.24" r="3.5974" fill="#88E4D4"/>
<circle cx="57.5583" cy="221.24" r="3.5974" fill="#88E4D4"/>
<circle cx="68.3503" cy="221.24" r="3.5974" fill="#88E4D4"/>
<circle cx="79.1433" cy="221.24" r="3.5974" fill="#88E4D4"/>
<circle cx="89.9348" cy="221.24" r="3.5974" fill="#88E4D4"/>
<circle cx="100.728" cy="221.24" r="3.5974" fill="#88E4D4"/>
<circle cx="111.52" cy="221.24" r="3.5974" fill="#88E4D4"/>
<circle cx="122.311" cy="221.24" r="3.5974" fill="#88E4D4"/>
<circle cx="133.104" cy="221.24" r="3.5974" fill="#88E4D4"/>
<circle cx="143.896" cy="221.24" r="3.5974" fill="#88E4D4"/>
<circle cx="154.688" cy="221.24" r="3.5974" fill="#88E4D4"/>
<circle cx="165.481" cy="221.24" r="3.5974" fill="#88E4D4"/>
<circle cx="176.273" cy="221.24" r="3.5974" fill="#88E4D4"/>
<circle cx="187.065" cy="221.24" r="3.5974" fill="#88E4D4"/>
<circle cx="197.857" cy="221.24" r="3.5974" fill="#88E4D4"/>
<circle cx="208.649" cy="221.24" r="3.5974" fill="#88E4D4"/>
<circle cx="219.442" cy="221.24" r="3.5974" fill="#88E4D4"/>
<circle cx="230.234" cy="221.24" r="3.5974" fill="#88E4D4"/>
<circle cx="241.026" cy="221.24" r="3.5974" fill="#88E4D4"/>
<circle cx="251.818" cy="221.24" r="3.5974" fill="#88E4D4"/>
<circle cx="262.61" cy="221.24" r="3.5974" fill="#88E4D4"/>
<circle cx="273.403" cy="221.24" r="3.5974" fill="#88E4D4"/>
<circle cx="3.5974" cy="241.025" r="3.5974" fill="#88E4D4"/>
<circle cx="14.3894" cy="241.025" r="3.5974" fill="#88E4D4"/>
<circle cx="25.1819" cy="241.025" r="3.5974" fill="#88E4D4"/>
<circle cx="35.9739" cy="241.025" r="3.5974" fill="#88E4D4"/>
<circle cx="46.7663" cy="241.025" r="3.5974" fill="#88E4D4"/>
<circle cx="57.5583" cy="241.025" r="3.5974" fill="#88E4D4"/>
<circle cx="68.3503" cy="241.025" r="3.5974" fill="#88E4D4"/>
<circle cx="79.1433" cy="241.025" r="3.5974" fill="#88E4D4"/>
<circle cx="89.9348" cy="241.025" r="3.5974" fill="#88E4D4"/>
<circle cx="100.728" cy="241.025" r="3.5974" fill="#88E4D4"/>
<circle cx="111.52" cy="241.025" r="3.5974" fill="#88E4D4"/>
<circle cx="122.311" cy="241.025" r="3.5974" fill="#88E4D4"/>
<circle cx="133.104" cy="241.025" r="3.5974" fill="#88E4D4"/>
<circle cx="143.896" cy="241.025" r="3.5974" fill="#88E4D4"/>
<circle cx="154.688" cy="241.025" r="3.5974" fill="#88E4D4"/>
<circle cx="165.481" cy="241.025" r="3.5974" fill="#88E4D4"/>
<circle cx="176.273" cy="241.025" r="3.5974" fill="#88E4D4"/>
<circle cx="187.065" cy="241.025" r="3.5974" fill="#88E4D4"/>
<circle cx="197.857" cy="241.025" r="3.5974" fill="#88E4D4"/>
<circle cx="208.649" cy="241.025" r="3.5974" fill="#88E4D4"/>
<circle cx="219.442" cy="241.025" r="3.5974" fill="#88E4D4"/>
<circle cx="230.234" cy="241.025" r="3.5974" fill="#88E4D4"/>
<circle cx="241.026" cy="241.025" r="3.5974" fill="#88E4D4"/>
<circle cx="251.818" cy="241.025" r="3.5974" fill="#88E4D4"/>
<circle cx="262.61" cy="241.025" r="3.5974" fill="#88E4D4"/>
<circle cx="273.403" cy="241.025" r="3.5974" fill="#88E4D4"/>
<path fill-rule="evenodd" clip-rule="evenodd" d="M491 0H139L0 134V618H491V0Z" fill="#19998C"/>
<circle cx="366.597" cy="529.597" r="3.5974" fill="#88E4D4"/>
<circle cx="377.389" cy="529.597" r="3.5974" fill="#88E4D4"/>
<circle cx="388.182" cy="529.597" r="3.5974" fill="#88E4D4"/>
<circle cx="398.974" cy="529.597" r="3.5974" fill="#88E4D4"/>
<circle cx="409.766" cy="529.597" r="3.5974" fill="#88E4D4"/>
<circle cx="420.558" cy="529.597" r="3.5974" fill="#88E4D4"/>
<circle cx="431.35" cy="529.597" r="3.5974" fill="#88E4D4"/>
<circle cx="442.143" cy="529.597" r="3.5974" fill="#88E4D4"/>
<circle cx="452.935" cy="529.597" r="3.5974" fill="#88E4D4"/>
<circle cx="463.728" cy="529.597" r="3.5974" fill="#88E4D4"/>
<circle cx="474.52" cy="529.597" r="3.5974" fill="#88E4D4"/>
<circle cx="485.311" cy="529.597" r="3.5974" fill="#88E4D4"/>
<circle cx="496.104" cy="529.597" r="3.5974" fill="#88E4D4"/>
<circle cx="506.896" cy="529.597" r="3.5974" fill="#88E4D4"/>
<circle cx="366.597" cy="549.383" r="3.5974" fill="#88E4D4"/>
<circle cx="377.389" cy="549.383" r="3.5974" fill="#88E4D4"/>
<circle cx="388.182" cy="549.383" r="3.5974" fill="#88E4D4"/>
<circle cx="398.974" cy="549.383" r="3.5974" fill="#88E4D4"/>
<circle cx="409.766" cy="549.383" r="3.5974" fill="#88E4D4"/>
<circle cx="420.558" cy="549.383" r="3.5974" fill="#88E4D4"/>
<circle cx="431.35" cy="549.383" r="3.5974" fill="#88E4D4"/>
<circle cx="442.143" cy="549.383" r="3.5974" fill="#88E4D4"/>
<circle cx="452.935" cy="549.383" r="3.5974" fill="#88E4D4"/>
<circle cx="463.728" cy="549.383" r="3.5974" fill="#88E4D4"/>
<circle cx="474.52" cy="549.383" r="3.5974" fill="#88E4D4"/>
<circle cx="485.311" cy="549.383" r="3.5974" fill="#88E4D4"/>
<circle cx="496.104" cy="549.383" r="3.5974" fill="#88E4D4"/>
<circle cx="506.896" cy="549.383" r="3.5974" fill="#88E4D4"/>
<circle cx="366.597" cy="569.168" r="3.5974" fill="#88E4D4"/>
<circle cx="377.389" cy="569.168" r="3.5974" fill="#88E4D4"/>
<circle cx="388.182" cy="569.168" r="3.5974" fill="#88E4D4"/>
<circle cx="398.974" cy="569.168" r="3.5974" fill="#88E4D4"/>
<circle cx="409.766" cy="569.168" r="3.5974" fill="#88E4D4"/>
<circle cx="420.558" cy="569.168" r="3.5974" fill="#88E4D4"/>
<circle cx="431.35" cy="569.168" r="3.5974" fill="#88E4D4"/>
<circle cx="442.143" cy="569.168" r="3.5974" fill="#88E4D4"/>
<circle cx="452.935" cy="569.168" r="3.5974" fill="#88E4D4"/>
<circle cx="463.728" cy="569.168" r="3.5974" fill="#88E4D4"/>
<circle cx="474.52" cy="569.168" r="3.5974" fill="#88E4D4"/>
<circle cx="485.311" cy="569.168" r="3.5974" fill="#88E4D4"/>
<circle cx="496.104" cy="569.168" r="3.5974" fill="#88E4D4"/>
<circle cx="506.896" cy="569.168" r="3.5974" fill="#88E4D4"/>
<circle cx="366.597" cy="588.955" r="3.5974" fill="#88E4D4"/>
<circle cx="377.389" cy="588.955" r="3.5974" fill="#88E4D4"/>
<circle cx="388.182" cy="588.955" r="3.5974" fill="#88E4D4"/>
<circle cx="398.974" cy="588.955" r="3.5974" fill="#88E4D4"/>
<circle cx="409.766" cy="588.955" r="3.5974" fill="#88E4D4"/>
<circle cx="420.558" cy="588.955" r="3.5974" fill="#88E4D4"/>
<circle cx="431.35" cy="588.955" r="3.5974" fill="#88E4D4"/>
<circle cx="442.143" cy="588.955" r="3.5974" fill="#88E4D4"/>
<circle cx="452.935" cy="588.955" r="3.5974" fill="#88E4D4"/>
<circle cx="463.728" cy="588.955" r="3.5974" fill="#88E4D4"/>
<circle cx="474.52" cy="588.955" r="3.5974" fill="#88E4D4"/>
<circle cx="485.311" cy="588.955" r="3.5974" fill="#88E4D4"/>
<circle cx="496.104" cy="588.955" r="3.5974" fill="#88E4D4"/>
<circle cx="506.896" cy="588.955" r="3.5974" fill="#88E4D4"/>
<circle cx="366.597" cy="608.74" r="3.5974" fill="#88E4D4"/>
<circle cx="377.389" cy="608.74" r="3.5974" fill="#88E4D4"/>
<circle cx="388.182" cy="608.74" r="3.5974" fill="#88E4D4"/>
<circle cx="398.974" cy="608.74" r="3.5974" fill="#88E4D4"/>
<circle cx="409.766" cy="608.74" r="3.5974" fill="#88E4D4"/>
<circle cx="420.558" cy="608.74" r="3.5974" fill="#88E4D4"/>
<circle cx="431.35" cy="608.74" r="3.5974" fill="#88E4D4"/>
<circle cx="442.143" cy="608.74" r="3.5974" fill="#88E4D4"/>
<circle cx="452.935" cy="608.74" r="3.5974" fill="#88E4D4"/>
<circle cx="463.728" cy="608.74" r="3.5974" fill="#88E4D4"/>
<circle cx="474.52" cy="608.74" r="3.5974" fill="#88E4D4"/>
<circle cx="485.311" cy="608.74" r="3.5974" fill="#88E4D4"/>
<circle cx="496.104" cy="608.74" r="3.5974" fill="#88E4D4"/>
<circle cx="506.896" cy="608.74" r="3.5974" fill="#88E4D4"/>
<circle cx="366.597" cy="628.525" r="3.5974" fill="#88E4D4"/>
<circle cx="377.389" cy="628.525" r="3.5974" fill="#88E4D4"/>
<circle cx="388.182" cy="628.525" r="3.5974" fill="#88E4D4"/>
<circle cx="398.974" cy="628.525" r="3.5974" fill="#88E4D4"/>
<circle cx="409.766" cy="628.525" r="3.5974" fill="#88E4D4"/>
<circle cx="420.558" cy="628.525" r="3.5974" fill="#88E4D4"/>
<circle cx="431.35" cy="628.525" r="3.5974" fill="#88E4D4"/>
<circle cx="442.143" cy="628.525" r="3.5974" fill="#88E4D4"/>
<circle cx="452.935" cy="628.525" r="3.5974" fill="#88E4D4"/>
<circle cx="463.728" cy="628.525" r="3.5974" fill="#88E4D4"/>
<circle cx="474.52" cy="628.525" r="3.5974" fill="#88E4D4"/>
<circle cx="485.311" cy="628.525" r="3.5974" fill="#88E4D4"/>
<circle cx="496.104" cy="628.525" r="3.5974" fill="#88E4D4"/>
<circle cx="506.896" cy="628.525" r="3.5974" fill="#88E4D4"/>
<circle cx="366.597" cy="648.312" r="3.5974" fill="#88E4D4"/>
<circle cx="377.389" cy="648.312" r="3.5974" fill="#88E4D4"/>
<circle cx="388.182" cy="648.312" r="3.5974" fill="#88E4D4"/>
<circle cx="398.974" cy="648.312" r="3.5974" fill="#88E4D4"/>
<circle cx="409.766" cy="648.312" r="3.5974" fill="#88E4D4"/>
<circle cx="420.558" cy="648.312" r="3.5974" fill="#88E4D4"/>
<circle cx="431.35" cy="648.312" r="3.5974" fill="#88E4D4"/>
<circle cx="442.143" cy="648.312" r="3.5974" fill="#88E4D4"/>
<circle cx="452.935" cy="648.312" r="3.5974" fill="#88E4D4"/>
<circle cx="463.728" cy="648.312" r="3.5974" fill="#88E4D4"/>
<circle cx="474.52" cy="648.312" r="3.5974" fill="#88E4D4"/>
<circle cx="485.311" cy="648.312" r="3.5974" fill="#88E4D4"/>
<circle cx="496.104" cy="648.312" r="3.5974" fill="#88E4D4"/>
<circle cx="506.896" cy="648.312" r="3.5974" fill="#88E4D4"/>
<path d="M245.209 450.409C328.167 450.409 395.417 381.756 395.417 297.067C395.417 212.378 328.167 143.725 245.209 143.725C162.251 143.725 95 212.378 95 297.067C95 381.756 162.251 450.409 245.209 450.409Z" fill="#615346" stroke="#201E1C" stroke-width="2" stroke-miterlimit="10"/>
<path fill-rule="evenodd" clip-rule="evenodd" d="M275.606 164.342L275.645 164.279C277.7 160.878 279.821 157.524 282.135 154.296C289.396 144.163 297.691 134.813 305.77 125.353L320.608 108L327.935 129.79C331.839 140.694 334.839 151.914 336.905 163.33C338.854 176.167 339.851 189.136 339.886 202.127C339.968 209.318 339.671 216.509 338.995 223.668L338.686 226.916L350.194 238.604L366.247 254.91L352.199 258.756L365.063 275.833L379.289 294.729L363.795 296.379L365.846 298.477L357.625 307.854C355.113 310.955 352.166 313.659 348.879 315.877C350.347 324.02 351.181 332.268 351.374 340.545C351.439 348.069 351.016 355.588 350.105 363.055L346.634 395.765L339.142 385.923C330.627 408.878 326.462 443.545 316.471 467.346C311.843 461.587 293.414 455.323 288.787 449.568C290.28 454.292 291.778 459.007 293.279 463.712C288.96 467.015 284.645 470.318 281.178 473.507C278.03 476.452 275.12 479.651 272.475 483.073C269.856 486.364 267.234 489.86 264.619 493.348L259.367 490.691C255.277 497.464 251.188 504.234 247.101 511C242.505 504.037 237.553 497.326 232.266 490.895C227.407 485.278 222.667 481.29 218.668 476.9C214.845 472.51 211.337 467.843 208.172 462.937C204.84 464.035 183.912 463.886 180.576 464.976C170.708 447.119 174.106 432.896 168.341 412.89C166.027 404.859 160.192 398.343 156.938 390.643C156.277 389.09 155.651 387.515 155.06 385.919L147.567 395.761L144.096 363.051C143.191 355.584 142.768 348.064 142.828 340.541C143.023 332.264 143.857 324.016 145.323 315.874C142.036 313.653 139.089 310.95 136.577 307.851L128.359 298.485L130.41 296.387L114.916 294.737L129.142 275.841L141.998 258.764L127.95 254.918L144.004 238.612C147.842 234.717 151.678 230.821 155.511 226.924L155.206 223.676C154.526 216.517 154.227 209.326 154.311 202.134C154.346 189.144 155.346 176.175 157.3 163.338C159.363 151.922 162.361 140.702 166.262 129.798L173.589 108.008L188.428 125.361C196.526 134.809 204.801 144.17 212.07 154.303C214.384 157.528 216.505 160.886 218.56 164.287L218.595 164.35H218.688C223.871 163.874 229.076 163.665 234.275 163.563C238.582 163.476 242.893 163.511 247 163.563C251.304 163.492 255.619 163.456 259.926 163.563C265.125 163.673 270.338 163.885 275.506 164.35H275.598L275.606 164.342Z" fill="#201E1C"/>
<path fill-rule="evenodd" clip-rule="evenodd" d="M198.337 192.359L168.193 222.4C167.505 215.72 167.227 209.002 167.36 202.287C167.455 189.974 168.394 177.682 170.171 165.503C172.068 154.804 174.891 144.298 178.605 134.107C187.393 144.394 196.186 154.681 201.546 162.152C206.906 169.624 208.838 174.297 211.044 176.38C213.249 178.462 215.744 177.954 219.863 177.588C223.981 177.222 229.731 176.943 234.547 176.844C239.364 176.746 243.236 176.797 247.111 176.844C250.967 176.785 254.862 176.726 259.671 176.844C264.48 176.962 270.237 177.206 274.356 177.588C278.474 177.97 280.969 178.462 283.175 176.38C285.381 174.297 287.313 169.628 292.673 162.152C298.033 154.677 306.821 144.394 315.617 134.107C319.326 144.299 322.149 154.805 324.051 165.503C325.823 177.683 326.762 189.974 326.862 202.287C326.994 209.003 326.713 215.72 326.022 222.4L295.877 192.359L314.183 159.385C304.974 170.494 295.763 181.606 286.549 192.721L341.007 248.039L329.97 251.059C338.225 262.021 346.479 272.982 354.731 283.942C351.425 284.491 348.054 284.491 344.748 283.942C341.631 282.997 338.697 281.514 336.071 279.557C337.473 283.48 339.195 287.277 341.219 290.906C343.132 293.854 345.381 296.56 347.917 298.969C346.086 301.343 343.857 303.369 341.335 304.952C338.651 306.156 335.778 306.859 332.851 307.027C334.358 310.622 335.437 314.389 336.067 318.247C337.362 325.715 338.128 333.27 338.358 340.851C338.428 347.793 338.027 354.732 337.158 361.617L332.145 355.019C332.094 359.078 331.694 363.125 330.95 367.113C327.244 386.489 308.761 427.175 301.237 448.713L296.101 442.056C296.307 434.859 296.507 427.666 296.703 420.475C290.769 429.752 284.83 439.031 278.887 448.311C279.743 452.909 280.6 457.51 281.459 462.113L261.364 471.66C263.881 462.928 266.399 454.191 268.918 445.449C274.484 437.536 280.049 429.621 285.612 421.703C286.187 420.88 286.769 420.061 287.34 419.246L269.824 432.198L269.053 409.33L277.672 390.264L264.221 408.527L264.761 423.337C262.923 425.777 261.085 428.217 259.247 430.655C253.915 424.385 248.579 418.115 243.239 411.846C242.746 400.823 242.25 389.8 241.751 378.777C238.625 392.068 235.496 405.358 232.365 418.648L256.528 444.851L256.397 445.244L256.266 445.614L256.135 445.985L256.004 446.355L255.873 446.748L255.741 447.118L255.61 447.488L255.479 447.858L255.348 448.252L255.217 448.622L255.086 448.992L254.955 449.362L254.824 449.756L254.693 450.126L254.561 450.496L254.43 450.866L254.299 451.26L254.168 451.63L254.037 452L253.906 452.37L253.775 452.764L253.644 453.134L253.586 453.291L248.095 468.711C246.382 465.824 244.67 462.947 242.958 460.078C242.79 463.369 242.875 466.669 243.212 469.947C243.668 474.88 244.67 482.281 245.677 489.682C243.822 486.271 241.745 482.991 239.46 479.864C237.776 477.698 235.75 475.835 233.464 474.352C230.755 472.811 228.532 470.513 227.059 467.727C224.24 463.152 220.306 454.83 216.385 446.5L217.927 437.792C219.374 429.494 220.828 421.195 222.288 412.897L197.069 387.308L211.271 411.133C207.641 422.418 204.016 433.697 200.397 444.969C190.71 427.155 177.024 404.511 168.976 385.525C166.478 379.657 164.593 373.537 163.35 367.266C162.608 363.278 162.208 359.232 162.154 355.173L157.141 361.771C156.273 354.885 155.872 347.947 155.942 341.005C156.169 333.423 156.935 325.868 158.232 318.4C158.859 314.542 159.937 310.775 161.445 307.18C158.518 307.012 155.645 306.309 152.961 305.106C150.441 303.521 148.214 301.495 146.382 299.122C148.919 296.715 151.167 294.009 153.076 291.06C155.078 287.378 156.768 283.528 158.128 279.553C155.503 281.511 152.568 282.994 149.452 283.938C146.145 284.487 142.774 284.487 139.468 283.938L164.229 251.055L153.192 248.035L207.666 192.721L180.039 159.385C186.135 170.376 192.234 181.367 198.337 192.359Z" fill="#E1E2E3"/>
<path fill-rule="evenodd" clip-rule="evenodd" d="M296.671 420.469C290.738 429.746 284.799 439.025 278.855 448.305C279.711 452.903 280.569 457.504 281.427 462.107L261.333 471.654L279.071 461.198L275.859 448.207L296.663 420.484L296.671 420.469Z" fill="#ADAFB1"/>
<path fill-rule="evenodd" clip-rule="evenodd" d="M198.331 192.361L168.187 222.401L191.39 190.947L180.033 159.387C186.128 170.378 192.228 181.369 198.331 192.361Z" fill="#ADAFB1"/>
<path fill-rule="evenodd" clip-rule="evenodd" d="M301.2 448.707L296.064 442.05C296.27 434.853 296.47 427.66 296.666 420.469L297.556 441.766L301.2 448.711V448.707Z" fill="#ADAFB1"/>
<path fill-rule="evenodd" clip-rule="evenodd" d="M256.502 444.824L256.371 445.218L256.24 445.588L256.109 445.958L255.978 446.328L255.847 446.722L255.716 447.092L255.585 447.462L255.454 447.832L255.322 448.226L255.191 448.596L255.06 448.966L254.929 449.336L254.798 449.729L254.667 450.099L254.536 450.469L254.405 450.839L254.274 451.233L254.142 451.603L254.011 451.973L253.88 452.343L253.749 452.737L253.618 453.107L253.56 453.264L248.046 468.566C246.334 465.68 244.621 462.802 242.909 459.933L247.151 462.961L256.514 444.824H256.502Z" fill="#ADAFB1"/>
<path fill-rule="evenodd" clip-rule="evenodd" d="M264.732 423.325C262.894 425.766 261.056 428.205 259.217 430.643C253.886 424.374 248.55 418.104 243.21 411.834C242.717 400.811 242.22 389.788 241.722 378.766L246.673 410.385L259.518 426.081L264.728 423.325H264.732Z" fill="#ADAFB1"/>
<path fill-rule="evenodd" clip-rule="evenodd" d="M197 387.168L211.202 410.993C207.572 422.278 203.947 433.557 200.327 444.829C196.255 437.349 191.481 429.011 186.719 420.449L186.927 420.185L198.083 429.684L206.343 412.363L197.003 387.168H197Z" fill="#ADAFB1"/>
<path fill-rule="evenodd" clip-rule="evenodd" d="M223.063 279.353C223.063 275.677 223.063 271.992 222.766 269.201C222.665 267.007 222 264.88 220.838 263.032C219.696 261.457 218.018 260.375 216.134 260.001C213.704 259.551 211.244 259.298 208.776 259.245C206.551 259.099 205.055 258.875 203.547 258.658C203.875 261.242 204.674 263.74 205.903 266.024C207.154 267.813 208.96 269.12 211.028 269.732C212.825 270.295 214.402 270.224 215.987 270.846C217.711 271.6 219.217 272.793 220.36 274.311C221.462 275.87 222.369 277.564 223.059 279.353H223.063Z" fill="#201E1C"/>
<path fill-rule="evenodd" clip-rule="evenodd" d="M247.103 317.704C243.715 317.582 240.33 318.015 237.077 318.987C233.739 320.051 230.896 322.32 229.079 325.369C228.36 327.011 227.974 328.785 227.942 330.583C227.91 332.382 228.234 334.168 228.894 335.836C230.156 339.671 232.119 343.227 234.678 346.316C236.354 348.401 238.604 349.924 241.137 350.689C245.05 351.518 249.087 351.518 252.999 350.689C255.533 349.926 257.784 348.402 259.458 346.316C262.024 343.227 263.994 339.672 265.266 335.836C265.925 334.168 266.248 332.381 266.215 330.583C266.183 328.784 265.796 327.011 265.077 325.369C263.261 322.319 260.417 320.05 257.079 318.987C253.826 318.015 250.441 317.581 247.053 317.704H247.103Z" fill="#201E1C"/>
<path fill-rule="evenodd" clip-rule="evenodd" d="M271.13 279.353C271.13 275.677 271.13 271.992 271.427 269.201C271.534 267.008 272.199 264.882 273.355 263.032C274.501 261.457 276.182 260.377 278.068 260.001C280.497 259.551 282.957 259.298 285.425 259.245C287.643 259.099 289.147 258.875 290.647 258.658C290.319 261.242 289.52 263.74 288.291 266.024C287.042 267.812 285.239 269.119 283.173 269.732C281.369 270.295 279.799 270.224 278.214 270.846C276.489 271.598 274.983 272.792 273.841 274.311C272.734 275.871 271.819 277.564 271.119 279.353H271.13Z" fill="#201E1C"/>
<path fill-rule="evenodd" clip-rule="evenodd" d="M247.102 355.852C240.687 356.348 234.249 356.46 227.821 356.186C226.295 356.2 224.786 355.861 223.407 355.196C222.027 354.53 220.813 353.556 219.854 352.344C217.722 349.948 215.871 347.305 214.339 344.471C213.188 342.416 212.668 340.056 212.847 337.696C213.15 335.397 213.742 333.147 214.609 331.003C215.477 328.559 216.495 325.815 217.729 322.968C219.11 320.184 220.22 317.269 221.045 314.264C221.534 311.362 221.613 308.403 221.281 305.478C220.666 308.859 219.552 312.126 217.976 315.166C215.66 318.92 213.012 322.45 210.067 325.712C208.424 323.606 206.781 321.5 204.309 318.587C201.838 315.674 198.552 311.954 195.802 309.052C193.526 306.834 191.37 304.491 189.343 302.033C187.87 300.069 186.984 297.712 186.794 295.246C186.615 292.044 186.681 288.832 186.991 285.641C185.414 289.03 184.4 292.663 183.991 296.392C183.608 301.751 184.399 307.13 186.305 312.139C189.05 318.659 192.436 324.878 196.412 330.7C200.6 337.322 205.2 344.479 208.166 349.533C210.168 353.408 212.405 357.151 214.864 360.741C217.504 364.111 220.666 367.019 224.223 369.351C227.415 371.362 230.991 372.652 234.712 373.134C242.932 374.248 251.261 374.248 259.481 373.134C263.202 372.653 266.779 371.363 269.97 369.351C273.528 367.021 276.69 364.113 279.329 360.741C281.789 357.15 284.028 353.407 286.035 349.533C288.993 344.467 293.601 337.33 297.785 330.7C301.76 324.877 305.147 318.658 307.896 312.139C309.799 307.129 310.589 301.751 310.21 296.392C309.803 292.664 308.791 289.03 307.217 285.641C307.526 288.827 307.588 292.034 307.402 295.23C307.214 297.696 306.33 300.053 304.857 302.017C302.828 304.474 300.67 306.817 298.394 309.036C295.641 311.938 292.355 315.658 289.887 318.571C287.419 321.484 285.78 323.59 284.13 325.697C281.188 322.431 278.541 318.902 276.221 315.15C274.645 312.11 273.531 308.843 272.916 305.462C272.586 308.388 272.668 311.347 273.159 314.249C273.981 317.253 275.09 320.168 276.468 322.953C277.702 325.799 278.72 328.543 279.587 330.987C280.455 333.131 281.047 335.381 281.35 337.68C281.531 340.04 281.011 342.401 279.857 344.455C278.325 347.288 276.476 349.93 274.347 352.328C273.386 353.54 272.17 354.514 270.789 355.179C269.408 355.845 267.899 356.183 266.372 356.171C259.952 356.443 253.521 356.332 247.114 355.836L247.102 355.852ZM236.274 367.815C234.054 367.47 232.007 366.389 230.447 364.741C229.377 363.853 228.589 362.661 228.183 361.316C228.183 360.619 229.159 360.631 232.475 360.572C235.792 360.513 241.445 360.379 247.102 360.245C252.755 360.379 258.413 360.509 261.729 360.572C265.045 360.635 266.009 360.619 266.021 361.316C265.611 362.66 264.822 363.851 263.754 364.741C262.184 366.376 260.141 367.454 257.927 367.815C250.721 368.402 243.48 368.402 236.274 367.815Z" fill="#201E1C"/>
<path fill-rule="evenodd" clip-rule="evenodd" d="M295.867 192.361L326 222.401L302.797 190.947L314.161 159.387L295.867 192.361Z" fill="#ADAFB1"/>
<path d="M296.172 225.441H200.672V234.142H296.172V225.441Z" fill="#201E1C"/>
<path fill-rule="evenodd" clip-rule="evenodd" d="M200.668 228.762C127.265 223.192 145.138 308.284 193.561 300.615C229.347 294.958 268.257 233.888 200.668 228.762Z" fill="white"/>
<path fill-rule="evenodd" clip-rule="evenodd" d="M200.429 232.127C177.812 230.406 164.566 237.599 158.581 247.799C155.676 252.864 154.316 258.699 154.675 264.557C155.008 270.606 156.81 276.475 159.919 281.634C163.232 287.37 168.177 291.939 174.097 294.733C180.017 297.527 186.63 298.414 193.056 297.275C207.085 295.059 221.677 283.658 229.266 270.797C231.976 266.451 233.69 261.536 234.279 256.42C234.748 252.106 233.628 247.768 231.137 244.252C226.609 238.004 217.011 233.371 200.422 232.119L200.429 232.127ZM152.916 244.33C160.085 232.127 175.356 223.446 200.9 225.387C219.645 226.808 230.832 232.501 236.443 240.244C239.91 245.066 241.49 251.035 240.874 256.983C240.205 263.135 238.175 269.052 234.935 274.285C226.451 288.661 209.997 301.416 194.059 303.932C186.345 305.298 178.406 304.233 171.3 300.878C164.194 297.523 158.258 292.039 154.282 285.154C150.597 279.027 148.464 272.059 148.077 264.88C147.656 257.694 149.341 250.543 152.916 244.338V244.33Z" fill="#201E1C"/>
<path fill-rule="evenodd" clip-rule="evenodd" d="M293.531 228.762C366.934 223.192 349.061 308.284 300.638 300.615C264.863 294.958 225.938 233.888 293.531 228.762Z" fill="white"/>
<path fill-rule="evenodd" clip-rule="evenodd" d="M293.297 225.393C318.833 223.452 334.104 232.121 341.281 244.336C344.854 250.543 346.536 257.696 346.112 264.882C345.729 272.061 343.598 279.03 339.912 285.156C335.934 292.042 329.997 297.527 322.889 300.882C315.782 304.237 307.842 305.301 300.127 303.934C284.2 301.419 267.734 288.664 259.25 274.287C256.008 269.055 253.975 263.138 253.304 256.985C252.687 251.037 254.267 245.068 257.735 240.246C263.353 232.503 274.533 226.81 293.286 225.389L293.297 225.393ZM335.616 247.797C329.631 237.597 316.389 230.408 293.764 232.125C277.182 233.381 267.576 238.03 263.049 244.258C260.557 247.774 259.439 252.113 259.914 256.426C260.498 261.544 262.212 266.459 264.927 270.803C272.512 283.664 287.108 295.065 301.137 297.281C307.562 298.42 314.175 297.533 320.094 294.739C326.013 291.944 330.958 287.376 334.27 281.641C337.384 276.483 339.187 270.613 339.514 264.563C339.874 258.703 338.517 252.867 335.616 247.797Z" fill="#201E1C"/>
<path fill-rule="evenodd" clip-rule="evenodd" d="M199.369 236.347C141.425 231.961 155.527 299.109 193.762 293.067C222.009 288.606 252.724 240.394 199.369 236.347Z" fill="#201E1C"/>
<path fill-rule="evenodd" clip-rule="evenodd" d="M294.846 236.348C352.79 231.95 338.688 299.107 300.461 293.068C272.191 288.607 241.472 240.395 294.846 236.348Z" fill="#201E1C"/>
<path fill-rule="evenodd" clip-rule="evenodd" d="M199.368 236.35C196.074 236.086 192.765 236.076 189.469 236.322L160.67 267.028C161.54 273.821 164.549 280.14 169.243 285.035L212.676 238.727C208.341 237.437 203.879 236.645 199.372 236.365L199.368 236.35ZM175.706 290.027L220.465 242.298C224.085 244.493 226.764 247.998 227.97 252.116L189.214 293.451C184.497 293.52 179.843 292.34 175.706 290.027Z" fill="#19998C"/>
<path fill-rule="evenodd" clip-rule="evenodd" d="M300.551 236.148C307.784 235.936 314.946 237.658 321.325 241.144L281.278 283.849C276.399 279.917 272.312 275.058 269.242 269.54L300.551 236.152V236.148ZM327.61 246.317L288.053 288.51C291.886 290.764 296.079 292.307 300.439 293.069H300.478L333.283 258.08C332.476 253.705 330.515 249.638 327.61 246.317Z" fill="#19998C"/>
<path fill-rule="evenodd" clip-rule="evenodd" d="M235.404 247.645C239.043 245.795 243.054 244.836 247.119 244.842C251.172 244.902 255.161 245.878 258.8 247.7L256.123 254.715C253.336 253.212 250.244 252.393 247.092 252.322C243.719 252.348 240.409 253.261 237.482 254.975L235.404 247.645Z" fill="#201E1C"/>
<path d="M352.593 334.811C352.593 334.811 344.136 328.642 331.704 353.53C319.271 378.418 303.715 409.207 301.644 415.793C300.57 419.044 300.744 422.589 302.131 425.714C303.518 428.838 306.015 431.309 309.118 432.626C316.275 436.532 323.355 442.72 331.183 435.032L339.015 427.343C340.12 428.349 341.409 429.121 342.808 429.614C344.207 430.107 345.688 430.312 347.165 430.216C348.643 430.121 350.086 429.727 351.413 429.057C352.74 428.388 353.924 427.456 354.895 426.316C362.48 417.899 374.281 392.571 378.033 384.685C381.785 376.8 380.346 369.273 374.5 361.502C374.5 361.502 377.011 349.956 371.099 345.322C372.788 325.351 366.371 326.127 363.606 324.556C358.131 321.466 352.593 334.811 352.593 334.811Z" fill="#201E1C"/>
<path d="M317.483 392.533C317.483 392.533 338.395 351.788 342.838 346.777C347.28 341.765 349.748 341.411 355.401 343.123C361.055 344.836 371.154 350.82 370.529 356.461C369.905 362.102 369.72 365.563 372.431 369.106C375.141 372.649 374.744 381.309 370.028 392.049C365.312 402.788 357.935 416.271 353.265 420.712C348.595 425.153 352.258 418.925 352.717 418.326C357.159 410.881 361.027 403.094 364.286 395.037C366.037 388.931 359.273 400.284 358.224 401.288C357.175 402.292 362.609 389.785 363.287 386.427C363.697 382.555 363.796 378.655 363.584 374.767C363.584 374.767 353.921 399.682 350.33 406.449C348.732 409.637 346.91 412.703 344.878 415.622C344.878 415.622 342.629 416.547 343.597 414.303C344.565 412.059 356.3 387.061 357.916 381.628C359.531 376.196 361.047 369.519 361.047 369.519C361.047 369.519 359.605 368.165 357.279 372.046C354.954 375.928 353.091 379.215 353.091 379.215C353.091 379.215 353.608 369.877 356.176 366.563C358.745 363.248 349.316 372.294 349.316 372.294C348.271 376.418 346.09 380.149 343.03 383.046C344.548 377.776 345.69 372.402 346.447 366.964C346.879 361.453 341.384 359.78 335.846 366.834C330.309 373.889 314.772 401.591 313.21 410.181C311.648 418.771 309.959 420.346 310.839 421.928C309.235 417.691 308.973 413.047 310.09 408.65C312.182 403.108 314.653 397.722 317.483 392.533Z" fill="#19998C"/>
<path d="M352.591 334.809C352.591 334.809 353.867 322.64 348.955 315.326L361.163 303.004C361.163 303.004 372.678 313.413 371.097 345.319L352.591 334.809Z" fill="#201E1C"/>
<path d="M350.947 314.514L359.045 306.117C362.726 311.296 365.179 317.277 366.21 323.588C366.812 327.037 367.211 330.519 367.405 334.017C366.923 329.381 365.854 324.829 364.224 320.474C362.238 316.931 362.631 318.848 362.631 318.848C363.334 320.661 363.668 322.6 363.615 324.549C363.258 322.289 362.217 320.201 360.638 318.577C358.254 316.542 358.254 318.435 358.254 318.435C358.972 320.755 359.285 323.185 359.18 325.616C359.18 325.616 358.123 324.128 356.392 321.285C356.681 324.036 356.637 326.813 356.261 329.552C356.261 329.552 353.75 316.679 350.947 314.514Z" fill="#19998C"/>
<path d="M141.538 334.811C141.538 334.811 149.994 328.642 162.431 353.53C174.867 378.418 190.416 409.207 192.483 415.793C193.559 419.043 193.387 422.589 192 425.714C190.613 428.839 188.116 431.31 185.013 432.626C177.856 436.532 170.772 442.72 162.94 435.032L155.108 427.343C154.003 428.348 152.715 429.119 151.316 429.611C149.918 430.104 148.438 430.308 146.962 430.212C145.485 430.117 144.042 429.723 142.716 429.054C141.39 428.386 140.207 427.455 139.235 426.316C131.65 417.899 119.846 392.571 116.098 384.685C112.35 376.8 113.784 369.273 119.63 361.502C119.63 361.502 117.12 349.956 123.032 345.322C121.342 325.351 127.759 326.127 130.524 324.556C135.989 321.466 141.538 334.811 141.538 334.811Z" fill="#201E1C"/>
<path d="M176.653 392.533C176.653 392.533 155.741 351.788 151.298 346.777C146.856 341.765 144.388 341.411 138.735 343.123C133.082 344.836 122.974 350.82 123.603 356.461C124.231 362.102 124.413 365.563 121.702 369.106C118.991 372.649 119.388 381.309 124.108 392.049C128.828 402.788 136.197 416.271 140.867 420.712C145.537 425.153 141.878 418.925 141.415 418.326C136.973 410.881 133.105 403.094 129.846 395.037C128.099 388.931 134.859 400.284 135.908 401.288C136.957 402.292 131.524 389.785 130.845 386.427C130.436 382.555 130.336 378.655 130.548 374.767C130.548 374.767 140.212 399.682 143.806 406.449C145.401 409.639 147.223 412.705 149.259 415.622C149.259 415.622 151.499 416.547 150.535 414.303C149.571 412.059 137.832 387.061 136.217 381.628C134.601 376.196 133.085 369.519 133.085 369.519C133.085 369.519 134.528 368.165 136.853 372.046C139.178 375.928 141.041 379.215 141.041 379.215C141.041 379.215 140.524 369.877 137.956 366.563C135.388 363.248 144.785 372.294 144.785 372.294C145.83 376.418 148.012 380.149 151.071 383.046C149.553 377.776 148.411 372.402 147.654 366.964C147.23 361.453 152.718 359.78 158.255 366.834C163.793 373.889 179.33 401.591 180.891 410.181C182.453 418.771 184.15 420.346 183.271 421.928C184.869 417.69 185.128 413.046 184.011 408.65C181.929 403.109 179.471 397.724 176.653 392.533Z" fill="#19998C"/>
<path d="M141.537 334.809C141.537 334.809 140.268 322.64 145.173 315.326L132.965 303.004C132.965 303.004 121.45 313.413 123.031 345.319L141.537 334.809Z" fill="#201E1C"/>
<path d="M143.185 314.514L135.086 306.117C131.408 311.297 128.955 317.278 127.922 323.588C127.319 327.037 126.92 330.519 126.726 334.017C127.208 329.381 128.278 324.829 129.907 320.474C131.901 316.931 131.5 318.848 131.5 318.848C130.801 320.662 130.467 322.601 130.517 324.549C130.873 322.289 131.914 320.201 133.494 318.577C135.877 316.542 135.877 318.435 135.877 318.435C135.159 320.755 134.846 323.185 134.951 325.616C134.951 325.616 136.016 324.128 137.74 321.285C137.45 324.036 137.494 326.813 137.871 329.552C137.871 329.552 140.4 316.679 143.185 314.514Z" fill="#19998C"/>
</svg>