<svg width="84" height="84" viewBox="0 0 84 84" fill="none" xmlns="http://www.w3.org/2000/svg">
<g clip-path="url(#clip0)">
<path d="M83.9979 31.9629C83.9844 32.3352 83.8492 32.7018 83.596 33.0024L43.2726 79.2199C42.9989 79.5244 42.6445 79.7057 42.2734 79.7653L46.6999 52.2188L56.6321 31.9629L69.6443 29.9941L83.9979 31.9629Z" fill="#009A8D"/>
<path d="M83.9979 31.9629C83.9844 32.3352 83.8492 32.7018 83.596 33.0024L43.2726 79.2199C42.9989 79.5244 42.6445 79.7057 42.2734 79.7653L44.0198 73.9501L44.0217 73.9488L80.6538 31.9629H83.9979Z" fill="#008C80"/>
<path d="M18.7996 70.5727C18.0908 70.5727 17.5166 69.9985 17.5166 69.2903V68.0695C17.5166 67.3613 18.0908 66.7871 18.7996 66.7871C19.5078 66.7871 20.082 67.3613 20.082 68.0695V69.2903C20.082 69.9985 19.5078 70.5727 18.7996 70.5727Z" fill="#A8F4E6"/>
<path d="M18.7996 76.479C18.0908 76.479 17.5166 75.9047 17.5166 75.1959V73.9757C17.5166 73.2676 18.0908 72.6934 18.7996 72.6934C19.5078 72.6934 20.082 73.2676 20.082 73.9757V75.1959C20.082 75.9047 19.5078 76.479 18.7996 76.479Z" fill="#A8F4E6"/>
<path d="M22.3626 72.915H21.1418C20.4336 72.915 19.8594 72.3408 19.8594 71.6326C19.8594 70.9238 20.4336 70.3496 21.1418 70.3496H22.3626C23.0708 70.3496 23.645 70.9238 23.645 71.6326C23.645 72.3408 23.0708 72.915 22.3626 72.915Z" fill="#A8F4E6"/>
<path d="M16.4564 72.915H15.2361C14.5273 72.915 13.9531 72.3408 13.9531 71.6326C13.9531 70.9238 14.5273 70.3496 15.2361 70.3496H16.4564C17.1645 70.3496 17.7387 70.9238 17.7387 71.6326C17.7387 72.3408 17.1645 72.915 16.4564 72.915Z" fill="#A8F4E6"/>
<path d="M62.007 4.93405C61.2988 4.93405 60.7246 4.35983 60.7246 3.65167V2.43146C60.7246 1.72266 61.2988 1.14844 62.007 1.14844C62.7158 1.14844 63.29 1.72266 63.29 2.43146V3.65167C63.29 4.35983 62.7158 4.93405 62.007 4.93405Z" fill="#00D2B4"/>
<path d="M62.007 10.8403C61.2988 10.8403 60.7246 10.2661 60.7246 9.55792V8.33707C60.7246 7.62891 61.2988 7.05469 62.007 7.05469C62.7158 7.05469 63.29 7.62891 63.29 8.33707V9.55792C63.29 10.2661 62.7158 10.8403 62.007 10.8403Z" fill="#00D2B4"/>
<path d="M65.5696 7.27634H64.3494C63.6413 7.27634 63.0664 6.70212 63.0664 5.99396C63.0664 5.28516 63.6413 4.71094 64.3494 4.71094H65.5696C66.2778 4.71094 66.8527 5.28516 66.8527 5.99396C66.8527 6.70212 66.2778 7.27634 65.5696 7.27634Z" fill="#00D2B4"/>
<path d="M59.6644 7.27634H58.4435C57.7354 7.27634 57.1611 6.70212 57.1611 5.99396C57.1611 5.28516 57.7354 4.71094 58.4435 4.71094H59.6644C60.3725 4.71094 60.9467 5.28516 60.9467 5.99396C60.9467 6.70212 60.3725 7.27634 59.6644 7.27634Z" fill="#00D2B4"/>
<path d="M28.8055 77.089C28.0973 77.089 27.5225 76.5148 27.5225 75.806V74.5858C27.5225 73.8776 28.0973 73.3027 28.8055 73.3027C29.5143 73.3027 30.0885 73.8776 30.0885 74.5858V75.806C30.0885 76.5148 29.5143 77.089 28.8055 77.089Z" fill="#64E1C5"/>
<path d="M28.8055 82.9952C28.0973 82.9952 27.5225 82.4204 27.5225 81.7122V80.492C27.5225 79.7832 28.0973 79.209 28.8055 79.209C29.5143 79.209 30.0885 79.7832 30.0885 80.492V81.7122C30.0885 82.4204 29.5143 82.9952 28.8055 82.9952Z" fill="#64E1C5"/>
<path d="M32.3694 79.4313H31.1492C30.4404 79.4313 29.8662 78.8564 29.8662 78.1483C29.8662 77.4401 30.4404 76.8652 31.1492 76.8652H32.3694C33.0776 76.8652 33.6525 77.4401 33.6525 78.1483C33.6525 78.8564 33.0776 79.4313 32.3694 79.4313Z" fill="#64E1C5"/>
<path d="M26.4626 79.4313H25.2423C24.5342 79.4313 23.96 78.8564 23.96 78.1483C23.96 77.4401 24.5342 76.8652 25.2423 76.8652H26.4626C27.1714 76.8652 27.7456 77.4401 27.7456 78.1483C27.7456 78.8564 27.1714 79.4313 26.4626 79.4313Z" fill="#64E1C5"/>
<path d="M41.7264 79.766C41.3521 79.7051 40.9926 79.5199 40.7189 79.2097L36.1316 73.9513L0.420441 33.0197C0.155762 32.7159 0.016693 32.3423 0.00195312 31.9629L14.7657 29.9941L27.3677 31.9629L35.4375 49.2913L41.7264 79.766Z" fill="#A8F4E6"/>
<path d="M41.726 79.766C41.3517 79.7051 40.9922 79.5199 40.7185 79.2097L36.1312 73.9513L23.5195 31.9629H27.3673L35.4371 49.2913L41.726 79.766Z" fill="#64E1C5"/>
<path d="M71.1326 14.9135L67.7681 24.0241L56.6323 31.9626L47.3256 23.7934L42.0019 14.7597L42 14.7578H70.4232C70.6712 14.7578 70.9134 14.8123 71.1326 14.9135Z" fill="#64E1C5"/>
<path d="M71.1322 14.9135L69.2442 17.1335L56.6319 31.9626L54.708 29.6997L67.4158 14.7578H70.4228C70.6708 14.7578 70.913 14.8123 71.1322 14.9135Z" fill="#00D2B4"/>
<path d="M41.9998 14.7565L36.9921 24.349L27.3675 31.96L18.0807 24.2535L12.8672 14.9122C13.0857 14.8103 13.3286 14.7559 13.5779 14.7559H41.9998V14.7565Z" fill="#A8F4E6"/>
<path d="M42.0015 14.7578L27.3692 31.9626L25.4453 29.6997L38.1531 14.7578H42.0015Z" fill="#64E1C5"/>
<path d="M56.6325 31.9629L44.0208 73.9482L44.0189 73.9501L42.2738 79.766C42.0918 79.7954 41.9079 79.7954 41.7259 79.766L40.075 74.2712L27.3672 31.9629L41.7259 29.502L56.6325 31.9629Z" fill="#00D2B4"/>
<path d="M56.6324 31.9629L44.022 73.9488L44.0201 73.9501L42.2737 79.7653C42.093 79.7942 41.9078 79.7942 41.7264 79.7653L40.0762 74.2718L52.784 31.9629H56.6324Z" fill="#00B7A0"/>
<path d="M56.6325 31.9613H27.3672L41.9995 14.7578L56.6325 31.9613Z" fill="#00B7A0"/>
<path d="M56.6324 31.9626H52.784L40.0762 17.0207L42.0001 14.7578L56.6324 31.9626Z" fill="#009A8D"/>
<path d="M27.3676 31.9599V31.9612H0.00180302C-0.0161413 31.5741 0.099856 31.1806 0.349795 30.8537L10.9068 17.1321L12.2225 15.4242C12.3949 15.1992 12.6167 15.0249 12.8673 14.9121L27.3676 31.9599Z" fill="#64E1C5"/>
<path d="M27.3673 31.9612H23.5195L10.9072 17.1321L12.2223 15.4235C12.3953 15.1992 12.6158 15.0249 12.867 14.9121L27.3673 31.9612Z" fill="#00D2B4"/>
<path d="M83.9976 31.9612H56.6318L69.2441 17.1321L71.1321 14.9121C71.3834 15.0249 71.6045 15.1992 71.7769 15.4235L83.6502 30.8544C83.9002 31.1812 84.0162 31.5741 83.9976 31.9612Z" fill="#00B7A0"/>
<path d="M83.9976 31.9612H80.6535L69.2441 17.1321L71.1321 14.9121C71.3834 15.0249 71.6038 15.1992 71.7769 15.4235L83.6502 30.8544C83.9002 31.1812 84.0162 31.5741 83.9976 31.9612Z" fill="#009A8D"/>
</g>
<defs>
<clipPath id="clip0">
<rect width="84" height="84" fill="white"/>
</clipPath>
</defs>
</svg>