<svg width="86" height="86" viewBox="0 0 86 86" fill="none" xmlns="http://www.w3.org/2000/svg">
<path d="M45.5195 78.4414V83.4805C45.5195 84.8912 44.4111 86 43 86C41.5889 86 40.4805 84.8912 40.4805 83.4805V78.4414C40.4805 77.0303 41.5889 75.9219 43 75.9219C44.4111 75.9219 45.5195 77.0303 45.5195 78.4414Z" fill="#FEA832"/>
<path d="M45.5195 78.4414V83.4805C45.5195 84.8912 44.4111 86 43 86V75.9219C44.4111 75.9219 45.5195 77.0303 45.5195 78.4414Z" fill="#FE9923"/>
<path d="M55.5977 70.8828V73.4023C55.5977 77.5846 52.2217 80.9609 48.0391 80.9609H37.9609C33.7783 80.9609 30.4023 77.5846 30.4023 73.4023V70.8828L35.24 65.6758H50.8105L55.5977 70.8828Z" fill="#CAE8F9"/>
<path d="M55.5977 70.8828V73.4023C55.5977 77.5846 52.2217 80.9609 48.0391 80.9609H43V65.6758H50.8105L55.5977 70.8828Z" fill="#B7E0F6"/>
<path d="M19.8393 23.403L12.7137 16.2774C11.7296 15.2933 11.7296 13.6988 12.7137 12.7147C13.6978 11.7305 15.2923 11.7305 16.2765 12.7147L23.402 19.8402C24.3862 20.8244 24.3862 22.4189 23.402 23.403C22.4179 24.3873 20.8235 24.3873 19.8393 23.403Z" fill="#FEA832"/>
<path d="M12.7656 45.5195H2.51953C1.1269 45.5195 0 44.3926 0 43C0 41.6074 1.1269 40.4805 2.51953 40.4805H12.7656C14.1583 40.4805 15.2852 41.6074 15.2852 43C15.2852 44.3926 14.1583 45.5195 12.7656 45.5195Z" fill="#FEA832"/>
<path d="M83.4805 45.5195H73.2344C71.8417 45.5195 70.7148 44.3926 70.7148 43C70.7148 41.6074 71.8417 40.4805 73.2344 40.4805H83.4805C84.8731 40.4805 86 41.6074 86 43C86 44.3926 84.8731 45.5195 83.4805 45.5195Z" fill="#FEA832"/>
<path d="M62.5975 23.403C61.6133 22.4189 61.6133 20.8244 62.5975 19.8402L69.723 12.7147C70.7072 11.7305 72.3017 11.7305 73.2858 12.7147C74.2699 13.6988 74.2699 15.2933 73.2858 16.2774L66.1602 23.403C65.176 24.3873 63.5816 24.3873 62.5975 23.403Z" fill="#FEA832"/>
<path d="M45.5195 2.51953V12.7656C45.5195 14.1764 44.4111 15.2852 43 15.2852C41.5889 15.2852 40.4805 14.1764 40.4805 12.7656V2.51953C40.4805 1.10843 41.5889 0 43 0C44.4111 0 45.5195 1.10843 45.5195 2.51953Z" fill="#FEA832"/>
<path d="M65.6754 43C65.6754 49.0469 63.3073 54.7408 59.0743 59.0242C56.8067 61.2918 55.5973 65.0207 55.5973 68.1953V70.8828H30.402V68.1953C30.402 65.1215 29.3436 61.3422 27.1265 59.1752C21.3317 53.4811 19.0641 45.3178 21.0294 37.2555C23.3975 27.782 32.1153 20.3242 42.9997 20.3242H43.302C55.6983 20.5256 65.6754 30.5533 65.6754 43Z" fill="#FEDB41"/>
<path d="M65.6758 43C65.6758 49.0469 63.3076 54.7408 59.0746 59.0242C56.807 61.2918 55.5977 65.0207 55.5977 68.1953V70.8828H43V20.3242H43.3023C55.6986 20.5256 65.6758 30.5533 65.6758 43Z" fill="#FCBF29"/>
</svg>