<svg width="83" height="83" viewBox="0 0 83 83" fill="none" xmlns="http://www.w3.org/2000/svg">
<g clip-path="url(#clip0)">
<path d="M7.58884 69.9511C10.7035 69.9511 13.2285 67.4262 13.2285 64.3115C13.2285 61.1968 10.7035 58.6719 7.58884 58.6719C4.47416 58.6719 1.94922 61.1968 1.94922 64.3115C1.94922 67.4262 4.47416 69.9511 7.58884 69.9511Z" fill="#F5A871"/>
<path d="M40.7187 60.7109C43.8334 60.7109 46.3583 58.1859 46.3583 55.0713C46.3583 51.9566 43.8334 49.4316 40.7187 49.4316C37.604 49.4316 35.0791 51.9566 35.0791 55.0713C35.0791 58.1859 37.604 60.7109 40.7187 60.7109Z" fill="#F5A871"/>
<path d="M40.2432 74.7533C38.2103 78.3654 34.7961 81.2002 30.4861 82.4015C21.871 84.8039 12.9373 79.7662 10.5348 71.1494L6.46232 56.5494L4.49707 49.5035L35.7004 40.8008L39.4312 54.1748L41.738 62.4468C42.9394 66.7553 42.2827 71.1446 40.2432 74.7533Z" fill="#FDD1A7"/>
<path d="M39.4312 54.175L26.4681 57.7903C25.4813 58.0659 24.4665 58.2045 23.4501 58.2045C21.0095 58.2045 18.5938 57.386 16.6451 55.8993C15.7029 55.1799 14.566 54.7855 13.4455 54.7855C13.0083 54.7855 12.5743 54.8448 12.1535 54.962L6.46232 56.5494L4.49707 49.5035L35.7004 40.8008L39.4312 54.175Z" fill="#FFBC8A"/>
<path d="M28.4505 32.9599L15.4173 36.5949C13.269 37.194 12.0131 39.4212 12.6123 41.5697C12.6123 41.5697 10.6188 41.1524 8.47055 41.7516L7.47584 42.0289C4.88096 42.7526 3.3641 45.443 4.08776 48.0378L5.88474 54.4812L11.5774 52.8935C13.7853 52.2777 16.1226 52.8018 17.945 54.192C20.1295 55.8585 23.0408 56.5173 25.8915 55.7223L38.8545 52.107L34.4594 36.348C33.7356 33.7531 31.0454 32.2361 28.4505 32.9599Z" fill="#FDDD45"/>
<path d="M34.4604 36.3491L38.8554 52.1072L35.0489 53.1689L30.6539 37.4107C29.9299 34.8147 27.2417 33.2988 24.6455 34.023L28.4494 32.9621C31.0454 32.238 33.7363 33.7531 34.4604 36.3491Z" fill="#FDD330"/>
<path d="M33.3648 66.5653C33.8448 66.4314 34.3342 66.7581 34.3892 67.2533C34.6965 70.0239 32.961 72.688 30.1889 73.4613C27.4125 74.2357 24.5439 72.8487 23.3766 70.3113C23.1705 69.8633 23.4264 69.3372 23.9013 69.2048L33.3648 66.5653Z" fill="#F5A871"/>
<path d="M17.1594 66.7283C16.6114 66.7283 16.108 66.3658 15.9535 65.8119C15.4262 63.921 16.5356 61.9535 18.4265 61.4262C20.3177 60.8988 22.2849 62.0085 22.8124 63.899C22.9981 64.5654 22.6086 65.2562 21.9425 65.4421C21.2764 65.6282 20.5855 65.2385 20.3994 64.5722C20.2431 64.0118 19.6598 63.683 19.0994 63.8393C18.539 63.9956 18.2102 64.5787 18.3667 65.1393C18.5525 65.8057 18.1629 66.4965 17.4966 66.6822C17.384 66.7134 17.2706 66.7283 17.1594 66.7283Z" fill="#F5A871"/>
<path d="M31.8313 62.6366C31.2832 62.6366 30.7799 62.274 30.6254 61.7202C30.098 59.8294 31.2077 57.8618 33.0985 57.3345C34.9894 56.8068 36.9567 57.9165 37.4842 59.8073C37.67 60.4737 37.2804 61.1645 36.6143 61.3504C35.9482 61.5365 35.2573 61.1468 35.0712 60.4806C34.9149 59.92 34.3315 59.5915 33.7714 59.7475C33.211 59.9038 32.8823 60.487 33.0385 61.0476C33.2243 61.7139 32.8346 62.4046 32.1685 62.5906C32.0558 62.6217 31.9425 62.6366 31.8313 62.6366Z" fill="#F5A871"/>
<path d="M43.2697 25.3676C46.3085 25.3676 48.7719 22.9042 48.7719 19.8654C48.7719 16.8267 46.3085 14.3633 43.2697 14.3633C40.231 14.3633 37.7676 16.8267 37.7676 19.8654C37.7676 22.9042 40.231 25.3676 43.2697 25.3676Z" fill="#C47A4A"/>
<path d="M75.5481 34.5356C78.5868 34.5356 81.0502 32.0722 81.0502 29.0334C81.0502 25.9946 78.5868 23.5312 75.5481 23.5312C72.5093 23.5312 70.0459 25.9946 70.0459 29.0334C70.0459 32.0722 72.5093 34.5356 75.5481 34.5356Z" fill="#C47A4A"/>
<path d="M44.8386 17.9081L42.2409 27.0554C39.8566 35.4512 44.7299 44.1902 53.1258 46.5744C61.5216 48.9587 70.2605 44.0853 72.6449 35.6895L75.2425 26.5422C77.6268 18.1464 72.7535 9.40738 64.3577 7.02308C55.9617 4.63893 47.2229 9.51227 44.8386 17.9081Z" fill="#E89A5E"/>
<path d="M74.9457 16.9735C74.2477 17.5365 73.5026 18.0374 72.7235 18.4719C69.1907 20.4434 64.9063 21.0645 60.7099 19.8728C55.5845 18.4172 51.772 14.5926 50.1211 9.92367C50.8191 9.36066 51.5648 8.85796 52.346 8.42221C55.876 6.45372 60.161 5.83089 64.359 7.02304C69.4846 8.47862 73.2971 12.3033 74.9457 16.9735Z" fill="#688D97"/>
<path d="M74.9455 16.972C74.2474 17.5347 73.5016 18.0362 72.7228 18.4702C69.1899 20.4421 64.9064 21.0625 60.7102 19.8712C57.6014 18.9883 54.9744 17.2343 53.0225 14.9489C54.448 15.8614 56.0289 16.5824 57.7418 17.0693C62.4478 18.4058 67.2529 17.7094 71.2149 15.4984C72.0168 15.0512 72.7891 14.5397 73.515 13.9688C74.0957 14.916 74.5759 15.9225 74.9455 16.972Z" fill="#557983"/>
<path d="M60.2917 34.0566C60.771 34.1927 61.02 34.7274 60.8067 35.1777C59.6468 37.627 56.8546 38.9519 54.1612 38.1871C51.4679 37.4223 49.7888 34.8276 50.0893 32.1343C50.1446 31.639 50.6374 31.315 51.1168 31.4511L60.2917 34.0566Z" fill="#C47A4A"/>
<path d="M51.9855 27.051C51.8723 27.051 51.7572 27.0355 51.6428 27.003C50.9772 26.8142 50.591 26.1215 50.7799 25.456C50.9303 24.9261 50.6217 24.3727 50.0919 24.2222C49.8349 24.1491 49.5657 24.1807 49.3324 24.3107C49.0994 24.4406 48.931 24.6536 48.8581 24.91C48.6692 25.5755 47.9764 25.9617 47.3112 25.773C46.6456 25.5841 46.2595 24.8914 46.4483 24.2261C46.7038 23.3258 47.2948 22.5788 48.1125 22.1229C48.9297 21.6671 49.8756 21.557 50.7763 21.8126C52.6347 22.3405 53.7175 24.2819 53.1898 26.1405C53.0333 26.6913 52.5313 27.051 51.9855 27.051Z" fill="#C47A4A"/>
<path d="M66.2814 31.1115C66.1681 31.1115 66.053 31.0959 65.9386 31.0635C65.2731 30.8745 64.8868 30.1818 65.0758 29.5163C65.2264 28.9866 64.9176 28.4331 64.3878 28.2827C64.1312 28.2096 63.8615 28.241 63.6285 28.3712C63.3954 28.5011 63.227 28.7141 63.154 28.9707C62.965 29.6361 62.2718 30.022 61.607 29.8334C60.9416 29.6444 60.5552 28.9517 60.7443 28.2864C60.9999 27.3861 61.591 26.6392 62.4085 26.1834C63.2257 25.7275 64.1719 25.6176 65.0723 25.8731C66.931 26.4011 68.0136 28.3425 67.4858 30.2011C67.3292 30.7519 66.8271 31.1115 66.2814 31.1115Z" fill="#C47A4A"/>
<path d="M53.9137 65.6479L54.4821 63.669C54.6779 62.9872 55.3476 62.555 56.0495 62.6576L65.7688 64.0783C66.6182 64.2025 67.1632 65.0473 66.9262 65.8722L65.6306 70.3836C65.3936 71.2087 64.4836 71.6354 63.6977 71.2899L54.7056 67.3369C54.0562 67.0513 53.7179 66.3297 53.9137 65.6479Z" fill="#FC7CB6"/>
<path d="M66.9266 65.8712L65.6312 70.3825C65.3936 71.2075 64.4828 71.6349 63.6972 71.2884L62.1494 70.6085C62.5537 70.4584 62.887 70.1251 63.0157 69.6729L64.3128 65.1616C64.453 64.6681 64.316 64.1682 63.9992 63.8184L65.7682 64.0774C66.618 64.2013 67.1625 65.046 66.9266 65.8712Z" fill="#FB5FA7"/>
<path d="M52.9773 56.2079L52.8345 54.154C52.7854 53.4462 53.2668 52.8112 53.9616 52.6675L63.5807 50.6782C64.4214 50.5044 65.2224 51.1117 65.2819 51.9681L65.6074 56.6505C65.6669 57.5069 64.9577 58.2192 64.1011 58.1633L54.2993 57.5241C53.5912 57.478 53.0264 56.9157 52.9773 56.2079Z" fill="#FC7CB6"/>
<path d="M64.1009 58.163L62.0862 58.031C62.365 57.7538 62.5284 57.3594 62.4971 56.9305L62.1721 52.2491C62.1374 51.754 61.8553 51.3416 61.4609 51.1171L63.5797 50.6781C64.4212 50.5048 65.2215 51.112 65.2809 51.9685L65.6075 56.6515C65.6669 57.5079 64.9573 58.2191 64.1009 58.163Z" fill="#FB5FA7"/>
<path d="M47.9245 72.9698L49.1354 71.3047C49.5527 70.7309 50.3298 70.5539 50.9543 70.8905L59.6015 75.5496C60.3573 75.9569 60.5805 76.937 60.0755 77.6313L57.3151 81.4274C56.8103 82.1217 55.809 82.2115 55.1887 81.618L48.0909 74.8279C47.5784 74.3374 47.5072 73.5435 47.9245 72.9698Z" fill="#FC7CB6"/>
<path d="M60.0749 77.6307L57.3143 81.4276C56.8094 82.1223 55.8095 82.2114 55.1889 81.6174L53.7979 80.2875C54.3111 80.3815 54.8621 80.1852 55.1956 79.7264L57.9561 75.9313C58.2069 75.5865 58.2779 75.1707 58.1938 74.791L59.6014 75.55C60.357 75.9576 60.5799 76.9377 60.0749 77.6307Z" fill="#FB5FA7"/>
<path d="M27.8477 15.9718L26.759 17.7194C26.3839 18.3214 25.6213 18.5536 24.9743 18.2626L16.0162 14.2332C15.2333 13.8811 14.9406 12.9193 15.3945 12.1908L17.8765 8.2071C18.3304 7.47858 19.3227 7.31745 19.984 7.86505L27.5488 14.1306C28.0953 14.5829 28.223 15.3696 27.8477 15.9718Z" fill="#64E0C4"/>
<path d="M19.9847 7.8646L27.5483 14.1304C28.0947 14.5829 28.2228 15.3691 27.8474 15.972L26.759 17.7189C26.7244 17.7742 26.6871 17.8261 26.6456 17.8739C26.9052 17.299 26.7544 16.6138 26.2574 16.2024L18.6932 9.93765C18.0328 9.38923 17.0402 9.55069 16.5859 10.2799L17.8776 8.20681C18.331 7.47894 19.3236 7.31748 19.9847 7.8646Z" fill="#27D1B3"/>
<path d="M27.0635 25.363L26.638 27.3776C26.4914 28.0717 25.8542 28.5506 25.1467 28.4984L15.3508 27.7759C14.4947 27.7126 13.8907 26.9091 14.0682 26.0692L15.0381 21.4768C15.2154 20.6369 16.0928 20.1462 16.9014 20.4346L26.1529 23.735C26.8212 23.9733 27.2102 24.6689 27.0635 25.363Z" fill="#64E0C4"/>
<path d="M16.9021 20.4344L26.1526 23.7356C26.8209 23.9737 27.2102 24.6688 27.0635 25.3638L26.6381 27.3777C26.6246 27.4416 26.6073 27.503 26.5846 27.562C26.6319 26.933 26.2558 26.3407 25.6481 26.1241L16.3973 22.8244C15.5892 22.5348 14.7117 23.0262 14.5342 23.8667L15.0388 21.4771C15.2162 20.6375 16.0935 20.1463 16.9021 20.4344Z" fill="#27D1B3"/>
<path d="M36.1964 11.0089L34.5757 12.2785C34.0172 12.716 33.2213 12.6732 32.7129 12.1785L25.6731 5.32824C25.0579 4.72957 25.1117 3.72578 25.7876 3.19633L29.4825 0.301872C30.1584 -0.227577 31.1458 -0.0395305 31.5797 0.701147L36.5453 9.17623C36.9041 9.78851 36.7549 10.5715 36.1964 11.0089Z" fill="#64E0C4"/>
<path d="M31.5805 0.7007L36.5448 9.17562C36.9037 9.78774 36.7551 10.5704 36.1959 11.0083L34.5757 12.2776C34.5243 12.3178 34.4714 12.3538 34.4163 12.3844C34.8569 11.9331 34.9495 11.2375 34.6232 10.681L29.6578 2.20702C29.2248 1.46586 28.2369 1.27813 27.5605 1.80791L29.4833 0.301749C30.1585 -0.227376 31.1464 -0.0396533 31.5805 0.7007Z" fill="#27D1B3"/>
</g>
<defs>
<clipPath id="clip0">
<rect width="83" height="83" fill="white"/>
</clipPath>
</defs>
</svg>