<svg width="110" height="56" viewBox="0 0 110 56" fill="none" xmlns="http://www.w3.org/2000/svg">
<path d="M21.8727 47.5811C33.4003 47.5811 42.7453 38.0411 42.7453 26.273C42.7453 14.5048 33.4003 4.96484 21.8727 4.96484C10.345 4.96484 1 14.5048 1 26.273C1 38.0411 10.345 47.5811 21.8727 47.5811Z" fill="#615346" stroke="#201E1C" stroke-width="2" stroke-miterlimit="10"/>
<path fill-rule="evenodd" clip-rule="evenodd" d="M26.0967 7.82917L26.1021 7.82042C26.3877 7.34778 26.6824 6.8817 27.0039 6.43314C28.0129 5.02507 29.1656 3.72586 30.2882 2.41133L32.3501 0L33.3683 3.02784C33.9107 4.5431 34.3276 6.10215 34.6147 7.68858C34.8855 9.47238 35.024 11.2745 35.0289 13.0796C35.0404 14.079 34.999 15.0782 34.9051 16.073L34.8622 16.5243L36.4612 18.1484L38.692 20.4143L36.7399 20.9487L38.5275 23.3218L40.5043 25.9475L38.3512 26.1767L38.6363 26.4683L37.4938 27.7713C37.1449 28.2022 36.7353 28.5779 36.2785 28.8862C36.4825 30.0176 36.5984 31.1638 36.6252 32.3139C36.6343 33.3594 36.5755 34.4044 36.4489 35.4419L35.9666 39.9872L34.9255 38.6196C33.7423 41.8094 33.1636 46.6266 31.7752 49.9339C31.1321 49.1336 28.5713 48.2633 27.9283 47.4635C28.1358 48.12 28.3439 48.7751 28.5525 49.429C27.9524 49.888 27.3528 50.3469 26.871 50.79C26.4336 51.1993 26.0291 51.6438 25.6616 52.1193C25.2977 52.5767 24.9334 53.0624 24.57 53.5471L23.8402 53.1778C23.2718 54.1191 22.7037 55.0598 22.1357 56C21.497 55.0325 20.8089 54.0999 20.0742 53.2063C19.399 52.4257 18.7405 51.8715 18.1848 51.2616C17.6535 50.6515 17.166 50.003 16.7262 49.3213C16.2632 49.4739 13.3551 49.4531 12.8916 49.6046C11.5203 47.1233 11.9924 45.1468 11.1913 42.3668C10.8698 41.2508 10.0591 40.3455 9.6068 39.2755C9.51499 39.0596 9.428 38.8408 9.34584 38.6191L8.30467 39.9866L7.8224 35.4413C7.69665 34.4037 7.63776 33.3588 7.6461 32.3134C7.67327 31.1633 7.78919 30.0172 7.9928 28.8857C7.53617 28.5771 7.12664 28.2014 6.77748 27.7708L5.63557 26.4694L5.92065 26.1778L3.76758 25.9486L5.74435 23.3228L7.53089 20.9498L5.57877 20.4154L7.80954 18.1495C8.3429 17.6083 8.87589 17.067 9.40853 16.5254L9.3662 16.0741C9.2717 15.0793 9.2302 14.0801 9.24188 13.0807C9.24674 11.2756 9.38557 9.4734 9.65717 7.68967C9.94386 6.10327 10.3604 4.54422 10.9025 3.02894L11.9206 0.00109556L13.9826 2.41243C15.1079 3.72531 16.2578 5.02616 17.2679 6.43423C17.5894 6.88225 17.8842 7.34887 18.1698 7.82151L18.1746 7.83026H18.1875C18.9077 7.76407 19.6311 7.73508 20.3534 7.72086C20.9519 7.70882 21.551 7.71374 22.1217 7.72086C22.7197 7.71101 23.3194 7.70609 23.9179 7.72086C24.6402 7.73617 25.3647 7.76571 26.0828 7.83026H26.0956L26.0967 7.82917Z" fill="#201E1C"/>
<path fill-rule="evenodd" clip-rule="evenodd" d="M15.3596 11.7234L11.1708 15.8978C11.0752 14.9696 11.0365 14.0362 11.055 13.103C11.0682 11.392 11.1987 9.68394 11.4457 7.99151C11.7093 6.50482 12.1015 5.0449 12.6176 3.62891C13.8388 5.05831 15.0606 6.48771 15.8054 7.52599C16.5503 8.56426 16.8187 9.21359 17.1252 9.50297C17.4317 9.79235 17.7784 9.72178 18.3507 9.67091C18.923 9.62003 19.722 9.58119 20.3913 9.56752C21.0606 9.55384 21.5986 9.56095 22.1371 9.56752C22.6729 9.55931 23.2142 9.55111 23.8824 9.56752C24.5506 9.58393 25.3506 9.61785 25.9229 9.67091C26.4952 9.72397 26.8419 9.79235 27.1484 9.50297C27.4549 9.21359 27.7234 8.56481 28.4682 7.52599C29.2131 6.48717 30.4343 5.05831 31.6566 3.62891C32.172 5.04515 32.5641 6.50499 32.8285 7.99151C33.0747 9.68403 33.2052 11.392 33.2191 13.103C33.2374 14.0362 33.1984 14.9696 33.1023 15.8978L28.9135 11.7234L31.4572 7.14142C30.1776 8.68515 28.8976 10.2292 27.6173 11.7737L35.1847 19.4606L33.651 19.8802C34.7981 21.4035 35.945 22.9267 37.0918 24.4496C36.6323 24.5259 36.1639 24.5259 35.7044 24.4496C35.2714 24.3183 34.8636 24.1122 34.4988 23.8402C34.6936 24.3854 34.9329 24.913 35.2141 25.4173C35.48 25.827 35.7924 26.203 36.1449 26.5376C35.8904 26.8676 35.5807 27.1491 35.2302 27.3691C34.8573 27.5364 34.458 27.634 34.0513 27.6574C34.2607 28.157 34.4107 28.6805 34.4982 29.2165C34.6782 30.2543 34.7845 31.3041 34.8165 32.3576C34.8262 33.3222 34.7705 34.2864 34.6499 35.2432L33.9533 34.3263C33.9462 34.8904 33.8906 35.4527 33.7871 36.0068C33.2722 38.6993 30.7038 44.3529 29.6584 47.3458L28.9446 46.4207C28.9732 45.4207 29.0011 44.4211 29.0282 43.4219C28.2037 44.7111 27.3785 46.0004 26.5525 47.29C26.6715 47.9289 26.7906 48.5682 26.91 49.2079L24.1176 50.5344C24.4674 49.3211 24.8173 48.1071 25.1674 46.8923C25.9408 45.7927 26.714 44.6928 27.4871 43.5926C27.5669 43.4782 27.6478 43.3644 27.7271 43.2512L25.2933 45.051L25.1861 41.8732L26.3837 39.2239L24.5147 41.7616L24.5897 43.8196C24.3343 44.1587 24.0789 44.4977 23.8234 44.8365C23.0825 43.9653 22.3411 43.094 21.5991 42.2228C21.5305 40.6911 21.4616 39.1594 21.3923 37.6277C20.9579 39.4745 20.5231 41.3213 20.088 43.1681L23.4456 46.8091L23.4274 46.8638L23.4092 46.9152L23.391 46.9667L23.3728 47.0181L23.3546 47.0728L23.3363 47.1242L23.3181 47.1756L23.2999 47.2271L23.2817 47.2818L23.2635 47.3332L23.2452 47.3846L23.227 47.436L23.2088 47.4907L23.1906 47.5422L23.1724 47.5936L23.1541 47.645L23.1359 47.6997L23.1177 47.7511L23.0995 47.8025L23.0813 47.854L23.063 47.9087L23.0448 47.9601L23.0368 47.982L22.2737 50.1247C22.0358 49.7235 21.7979 49.3237 21.56 48.9251C21.5366 49.3824 21.5484 49.841 21.5953 50.2965C21.6586 50.9819 21.7979 52.0103 21.9378 53.0388C21.6801 52.5648 21.3915 52.109 21.074 51.6745C20.84 51.3735 20.5583 51.1147 20.2407 50.9086C19.8642 50.6945 19.5554 50.3751 19.3506 49.9879C18.9589 49.3523 18.4124 48.1959 17.8674 47.0383L18.0817 45.8283C18.2829 44.6751 18.4849 43.522 18.6878 42.3688L15.1833 38.8131L17.1568 42.1238C16.6524 43.6919 16.1487 45.2592 15.6457 46.8255C14.2997 44.3502 12.3979 41.2037 11.2796 38.5653C10.9325 37.7499 10.6705 36.8995 10.4978 36.0282C10.3947 35.474 10.3391 34.9117 10.3316 34.3477L9.63503 35.2645C9.51437 34.3077 9.45868 33.3435 9.46838 32.3789C9.49996 31.3254 9.60634 30.2756 9.78667 29.2378C9.87371 28.7017 10.0236 28.1783 10.233 27.6788C9.82636 27.6554 9.42708 27.5577 9.05416 27.3905C8.70398 27.1702 8.39453 26.8888 8.13999 26.559C8.49255 26.2246 8.80483 25.8485 9.07024 25.4386C9.34833 24.927 9.58317 24.3921 9.77221 23.8397C9.40745 24.1118 8.99963 24.3179 8.56653 24.4491C8.1071 24.5253 7.63863 24.5253 7.1792 24.4491L10.6199 19.8797L9.08631 19.4601L16.6558 11.7737L12.8169 7.14142C13.664 8.66874 14.5115 10.1961 15.3596 11.7234Z" fill="#E1E2E3"/>
<path fill-rule="evenodd" clip-rule="evenodd" d="M29.0239 43.4199C28.1994 44.7091 27.3741 45.9985 26.5482 47.288C26.6672 47.9269 26.7863 48.5663 26.9056 49.2059L24.1133 50.5325L26.5782 49.0796L26.1318 47.2743L29.0228 43.4221L29.0239 43.4199Z" fill="#ADAFB1"/>
<path fill-rule="evenodd" clip-rule="evenodd" d="M15.3587 11.7226L11.1699 15.897L14.3942 11.5262L12.8161 7.14062C13.6631 8.66795 14.5106 10.1953 15.3587 11.7226Z" fill="#ADAFB1"/>
<path fill-rule="evenodd" clip-rule="evenodd" d="M29.6532 47.3438L28.9395 46.4188C28.968 45.4188 28.9959 44.4192 29.023 43.4199L29.1468 46.3794L29.6532 47.3444V47.3438Z" fill="#ADAFB1"/>
<path fill-rule="evenodd" clip-rule="evenodd" d="M23.4421 46.8047L23.4239 46.8594L23.4057 46.9108L23.3875 46.9622L23.3692 47.0137L23.351 47.0684L23.3328 47.1198L23.3146 47.1712L23.2964 47.2226L23.2781 47.2773L23.2599 47.3287L23.2417 47.3802L23.2235 47.4316L23.2053 47.4863L23.1871 47.5377L23.1688 47.5891L23.1506 47.6406L23.1324 47.6953L23.1142 47.7467L23.096 47.7981L23.0777 47.8495L23.0595 47.9042L23.0413 47.9557L23.0333 47.9775L22.267 50.1039C22.0291 49.7027 21.7911 49.3028 21.5532 48.9042L22.1427 49.3249L23.4437 46.8047H23.4421Z" fill="#ADAFB1"/>
<path fill-rule="evenodd" clip-rule="evenodd" d="M24.5856 43.8169C24.3302 44.1561 24.0748 44.495 23.8194 44.8338C23.0785 43.9626 22.337 43.0913 21.595 42.2201C21.5264 40.6884 21.4575 39.1567 21.3882 37.625L22.0762 42.0188L23.8612 44.1998L24.5851 43.8169H24.5856Z" fill="#ADAFB1"/>
<path fill-rule="evenodd" clip-rule="evenodd" d="M15.1737 38.793L17.1473 42.1036C16.6428 43.6718 16.1391 45.2391 15.6362 46.8054C15.0703 45.766 14.4069 44.6074 13.7451 43.4176L13.7741 43.381L15.3243 44.701L16.4721 42.294L15.1742 38.793H15.1737Z" fill="#ADAFB1"/>
<path fill-rule="evenodd" clip-rule="evenodd" d="M18.7955 23.8113C18.7955 23.3004 18.7955 22.7884 18.7542 22.4005C18.7401 22.0957 18.6477 21.8001 18.4863 21.5433C18.3276 21.3244 18.0944 21.1741 17.8325 21.1221C17.495 21.0596 17.1531 21.0245 16.8101 21.0171C16.5009 20.9968 16.293 20.9656 16.0835 20.9355C16.1291 21.2946 16.2401 21.6417 16.4109 21.959C16.5848 22.2077 16.8357 22.3892 17.1231 22.4744C17.3728 22.5526 17.5919 22.5427 17.8122 22.6292C18.0517 22.7339 18.261 22.8997 18.4198 23.1106C18.5729 23.3273 18.6989 23.5627 18.7949 23.8113H18.7955Z" fill="#201E1C"/>
<path fill-rule="evenodd" clip-rule="evenodd" d="M22.136 29.1395C21.6652 29.1226 21.1948 29.1828 20.7428 29.3179C20.279 29.4657 19.8839 29.7809 19.6314 30.2046C19.5316 30.4329 19.4779 30.6793 19.4734 30.9292C19.469 31.1791 19.514 31.4274 19.6057 31.6592C19.7811 32.1921 20.0538 32.6862 20.4095 33.1154C20.6423 33.4051 20.955 33.6168 21.307 33.7231C21.8507 33.8383 22.4117 33.8383 22.9553 33.7231C23.3074 33.617 23.6202 33.4053 23.8529 33.1154C24.2093 32.6862 24.4831 32.1922 24.6599 31.6592C24.7515 31.4274 24.7963 31.1791 24.7918 30.9292C24.7873 30.6793 24.7335 30.4328 24.6336 30.2046C24.3813 29.7808 23.9861 29.4655 23.5222 29.3179C23.0702 29.1827 22.5998 29.1225 22.129 29.1395H22.136Z" fill="#201E1C"/>
<path fill-rule="evenodd" clip-rule="evenodd" d="M25.4748 23.8113C25.4748 23.3004 25.4748 22.7884 25.516 22.4005C25.5309 22.0959 25.6232 21.8004 25.7839 21.5433C25.9432 21.3245 26.1767 21.1743 26.4388 21.1221C26.7763 21.0596 27.1182 21.0244 27.4612 21.0171C27.7693 20.9968 27.9783 20.9656 28.1867 20.9355C28.1411 21.2946 28.0301 21.6417 27.8593 21.959C27.6858 22.2076 27.4353 22.3892 27.1482 22.4744C26.8975 22.5526 26.6794 22.5427 26.4591 22.6292C26.2194 22.7337 26.0102 22.8995 25.8515 23.1106C25.6976 23.3273 25.5705 23.5627 25.4731 23.8113H25.4748Z" fill="#201E1C"/>
<path fill-rule="evenodd" clip-rule="evenodd" d="M22.1359 34.44C21.2445 34.5089 20.3498 34.5245 19.4566 34.4865C19.2446 34.4883 19.0349 34.4413 18.8432 34.3488C18.6515 34.2564 18.4828 34.1209 18.3495 33.9526C18.0533 33.6196 17.7961 33.2524 17.5833 32.8585C17.4233 32.573 17.351 32.245 17.3759 31.917C17.4179 31.5976 17.5002 31.285 17.6208 30.9871C17.7413 30.6474 17.8828 30.2661 18.0543 29.8706C18.2461 29.4837 18.4004 29.0786 18.5151 28.6611C18.583 28.2578 18.594 27.8466 18.5478 27.4401C18.4623 27.91 18.3075 28.3639 18.0886 28.7864C17.7667 29.308 17.3989 29.7986 16.9895 30.2519C16.7612 29.9592 16.533 29.6665 16.1895 29.2617C15.846 28.8569 15.3895 28.34 15.0074 27.9368C14.691 27.6286 14.3914 27.303 14.1098 26.9615C13.9051 26.6886 13.7821 26.361 13.7556 26.0184C13.7308 25.5734 13.7399 25.1271 13.783 24.6836C13.5639 25.1546 13.423 25.6594 13.3661 26.1775C13.3129 26.9222 13.4227 27.6697 13.6876 28.3657C14.069 29.2718 14.5396 30.136 15.0921 30.945C15.674 31.8651 16.3133 32.8596 16.7253 33.562C17.0036 34.1004 17.3144 34.6205 17.6561 35.1194C18.023 35.5877 18.4623 35.9918 18.9567 36.3158C19.4002 36.5952 19.8971 36.7745 20.4142 36.8415C21.5564 36.9963 22.7137 36.9963 23.856 36.8415C24.3731 36.7747 24.8701 36.5954 25.3135 36.3158C25.808 35.992 26.2473 35.5879 26.614 35.1194C26.9558 34.6204 27.267 34.1002 27.5459 33.562C27.9569 32.8579 28.5972 31.8662 29.1786 30.945C29.731 30.1358 30.2017 29.2716 30.5837 28.3657C30.8481 27.6696 30.9579 26.9222 30.9052 26.1775C30.8486 25.6595 30.7081 25.1546 30.4894 24.6836C30.5322 25.1264 30.5408 25.572 30.5151 26.0162C30.4888 26.3588 30.366 26.6863 30.1614 26.9593C29.8794 27.3006 29.5796 27.6262 29.2633 27.9346C28.8807 28.3378 28.4242 28.8547 28.0812 29.2595C27.7383 29.6644 27.5105 29.957 27.2812 30.2497C26.8723 29.796 26.5045 29.3055 26.1821 28.7842C25.9632 28.3617 25.8084 27.9078 25.7229 27.4379C25.6771 27.8445 25.6884 28.2556 25.7567 28.6589C25.871 29.0764 26.025 29.4815 26.2164 29.8684C26.3879 30.2639 26.5294 30.6452 26.6499 30.9849C26.7705 31.2828 26.8528 31.5954 26.8948 31.9149C26.92 32.2428 26.8478 32.5709 26.6875 32.8563C26.4745 33.25 26.2176 33.6172 25.9217 33.9504C25.7882 34.1187 25.6192 34.2541 25.4274 34.3465C25.2355 34.439 25.0257 34.4861 24.8136 34.4843C23.9214 34.5222 23.0279 34.5067 22.1375 34.4378L22.1359 34.44ZM20.6312 36.1024C20.3228 36.0544 20.0383 35.9043 19.8215 35.6752C19.6728 35.5518 19.5634 35.3862 19.507 35.1993C19.507 35.1024 19.6425 35.1041 20.1034 35.0959C20.5642 35.0877 21.3498 35.0691 22.1359 35.0505C22.9215 35.0691 23.7076 35.0871 24.1684 35.0959C24.6292 35.1046 24.7632 35.1024 24.7648 35.1993C24.7078 35.386 24.5982 35.5515 24.4497 35.6752C24.2316 35.9024 23.9478 36.0522 23.64 36.1024C22.6387 36.1839 21.6326 36.1839 20.6312 36.1024Z" fill="#201E1C"/>
<path fill-rule="evenodd" clip-rule="evenodd" d="M28.9121 11.7226L33.0993 15.897L29.875 11.5262L31.4542 7.14062L28.9121 11.7226Z" fill="#ADAFB1"/>
<path d="M28.9546 16.3184H15.6841V17.5273H28.9546V16.3184Z" fill="#201E1C"/>
<path fill-rule="evenodd" clip-rule="evenodd" d="M15.6835 16.7806C5.48347 16.0065 7.96716 27.8307 14.6959 26.7651C19.6686 25.979 25.0754 17.4928 15.6835 16.7806Z" fill="white"/>
<path fill-rule="evenodd" clip-rule="evenodd" d="M15.6503 17.2477C12.5075 17.0087 10.6668 18.0081 9.83515 19.4255C9.43148 20.1294 9.24249 20.9401 9.29233 21.7542C9.33856 22.5947 9.58901 23.4102 10.0211 24.1272C10.4814 24.9242 11.1686 25.5591 11.9912 25.9473C12.8138 26.3356 13.7328 26.4588 14.6257 26.3006C16.5752 25.9926 18.6028 24.4084 19.6574 22.6212C20.0339 22.0173 20.2721 21.3344 20.354 20.6235C20.4192 20.024 20.2635 19.4213 19.9173 18.9326C19.2882 18.0644 17.9544 17.4206 15.6492 17.2466L15.6503 17.2477ZM9.04798 18.9435C10.0441 17.2477 12.1661 16.0415 15.7156 16.3112C18.3204 16.5087 19.875 17.2997 20.6546 18.3757C21.1365 19.0457 21.356 19.8751 21.2703 20.7017C21.1775 21.5566 20.8953 22.3788 20.4451 23.1059C19.2662 25.1037 16.9797 26.8761 14.765 27.2256C13.6931 27.4154 12.59 27.2674 11.6026 26.8013C10.6151 26.3351 9.79022 25.573 9.23767 24.6163C8.72563 23.7648 8.42932 22.7966 8.37548 21.799C8.31706 20.8005 8.55118 19.8068 9.04798 18.9446V18.9435Z" fill="#201E1C"/>
<path fill-rule="evenodd" clip-rule="evenodd" d="M28.5874 16.7806C38.7874 16.0065 36.3038 27.8307 29.575 26.7651C24.6039 25.979 19.1949 17.4928 28.5874 16.7806Z" fill="white"/>
<path fill-rule="evenodd" clip-rule="evenodd" d="M28.555 16.3132C32.1035 16.0435 34.2255 17.2481 35.2227 18.9455C35.7192 19.808 35.953 20.8019 35.8941 21.8005C35.8409 22.7981 35.5447 23.7664 35.0325 24.6177C34.4798 25.5746 33.6547 26.3368 32.667 26.803C31.6794 27.2691 30.5761 27.4171 29.504 27.2271C27.2909 26.8775 25.0028 25.1051 23.8239 23.1074C23.3734 22.3803 23.0909 21.5582 22.9977 20.7031C22.912 19.8766 23.1315 19.0471 23.6134 18.3771C24.3941 17.3011 25.9475 16.5101 28.5534 16.3126L28.555 16.3132ZM34.4355 19.4264C33.6039 18.009 31.7637 17.0101 28.6199 17.2486C26.3157 17.4231 24.9809 18.0692 24.3518 18.9346C24.0055 19.4232 23.8502 20.0261 23.9161 20.6255C23.9973 21.3366 24.2355 22.0197 24.6127 22.6232C25.6668 24.4104 27.695 25.9946 29.6444 26.3026C30.5373 26.4608 31.4561 26.3375 32.2786 25.9493C33.1012 25.561 33.7883 24.9261 34.2485 24.1292C34.6813 23.4125 34.9318 22.5968 34.9773 21.7562C35.0272 20.9419 34.8386 20.1309 34.4355 19.4264Z" fill="#201E1C"/>
<path fill-rule="evenodd" clip-rule="evenodd" d="M15.5029 17.8333C7.45109 17.2239 9.41072 26.5547 14.7237 25.715C18.6489 25.0952 22.917 18.3957 15.5029 17.8333Z" fill="#201E1C"/>
<path fill-rule="evenodd" clip-rule="evenodd" d="M28.7703 17.8335C36.822 17.2224 34.8624 26.5543 29.5505 25.7151C25.6221 25.0954 21.3535 18.3958 28.7703 17.8335Z" fill="#201E1C"/>
<path fill-rule="evenodd" clip-rule="evenodd" d="M15.5028 17.8351C15.045 17.7985 14.5852 17.7972 14.1273 17.8313L10.1255 22.0982C10.2463 23.042 10.6644 23.9202 11.3167 24.6003L17.352 18.1655C16.7497 17.9863 16.1296 17.8762 15.5033 17.8373L15.5028 17.8351ZM12.2148 25.294L18.4345 18.6617C18.9375 18.9667 19.3097 19.4537 19.4773 20.026L14.0919 25.7699C13.4364 25.7794 12.7897 25.6155 12.2148 25.294Z" fill="#19998C"/>
<path fill-rule="evenodd" clip-rule="evenodd" d="M29.563 17.8071C30.5681 17.7775 31.5632 18.0169 32.4497 18.5013L26.8848 24.4356C26.2068 23.8892 25.6389 23.2139 25.2124 22.4471L29.563 17.8077V17.8071ZM33.3231 19.2201L27.8263 25.0832C28.359 25.3964 28.9417 25.6108 29.5475 25.7167H29.5528L34.1114 20.8547C33.9992 20.2467 33.7267 19.6816 33.3231 19.2201Z" fill="#19998C"/>
<path fill-rule="evenodd" clip-rule="evenodd" d="M20.5103 19.4032C21.0159 19.1462 21.5733 19.0128 22.1382 19.0137C22.7013 19.0221 23.2556 19.1577 23.7613 19.4108L23.3894 20.3856C23.002 20.1768 22.5724 20.063 22.1344 20.053C21.6657 20.0567 21.2057 20.1836 20.7991 20.4217L20.5103 19.4032Z" fill="#201E1C"/>
<path d="M36.7947 31.5169C36.7947 31.5169 35.6195 30.6597 33.8919 34.1181C32.1643 37.5764 30.0027 41.8548 29.7149 42.77C29.5656 43.2216 29.5898 43.7143 29.7826 44.1485C29.9753 44.5827 30.3223 44.926 30.7534 45.1091C31.748 45.6517 32.7318 46.5117 33.8196 45.4433L34.9079 44.375C35.0614 44.5147 35.2406 44.622 35.435 44.6905C35.6294 44.759 35.8352 44.7875 36.0405 44.7742C36.2457 44.7609 36.4464 44.7061 36.6307 44.6131C36.8151 44.5201 36.9796 44.3906 37.1146 44.2322C38.1686 43.0626 39.8083 39.543 40.3297 38.4473C40.8511 37.3516 40.6512 36.3056 39.8389 35.2258C39.8389 35.2258 40.1877 33.6213 39.3662 32.9775C39.601 30.2024 38.7093 30.3101 38.3251 30.0919C37.5642 29.6624 36.7947 31.5169 36.7947 31.5169Z" fill="#201E1C"/>
<path d="M31.9158 39.5378C31.9158 39.5378 34.8218 33.876 35.4391 33.1796C36.0564 32.4832 36.3994 32.434 37.1849 32.6719C37.9705 32.9099 39.3739 33.7414 39.2871 34.5253C39.2003 35.3092 39.1745 35.79 39.5513 36.2824C39.928 36.7747 39.8728 37.9782 39.2174 39.4705C38.5621 40.9628 37.537 42.8364 36.8881 43.4535C36.2391 44.0705 36.7482 43.2051 36.812 43.122C37.4292 42.0874 37.9667 41.0054 38.4195 39.8857C38.6628 39.0372 37.7229 40.6149 37.5772 40.7544C37.4314 40.8939 38.1864 39.156 38.2807 38.6893C38.3376 38.1513 38.3514 37.6094 38.322 37.069C38.322 37.069 36.9791 40.5312 36.4803 41.4716C36.2582 41.9146 36.005 42.3405 35.7226 42.7461C35.7226 42.7461 35.4102 42.8747 35.5447 42.5629C35.6792 42.2511 37.3098 38.7774 37.5343 38.0225C37.7588 37.2676 37.9694 36.3398 37.9694 36.3398C37.9694 36.3398 37.769 36.1516 37.4459 36.691C37.1228 37.2304 36.8639 37.6872 36.8639 37.6872C36.8639 37.6872 36.9357 36.3896 37.2926 35.929C37.6495 35.4684 36.3393 36.7255 36.3393 36.7255C36.1941 37.2985 35.891 37.817 35.4659 38.2194C35.6768 37.4872 35.8354 36.7404 35.9407 35.9848C36.0007 35.2189 35.2371 34.9865 34.4676 35.9667C33.6981 36.947 31.5391 40.7965 31.3221 41.9901C31.1051 43.1838 30.8704 43.4026 30.9926 43.6225C30.7697 43.0337 30.7334 42.3884 30.8886 41.7773C31.1793 41.0072 31.5226 40.2589 31.9158 39.5378Z" fill="#19998C"/>
<path d="M36.7944 31.5172C36.7944 31.5172 36.9717 29.8263 36.2891 28.8099L37.9856 27.0977C37.9856 27.0977 39.5856 28.544 39.3659 32.9777L36.7944 31.5172Z" fill="#201E1C"/>
<path d="M36.5659 28.6981L37.6912 27.5312C38.2028 28.2509 38.5436 29.082 38.6868 29.959C38.7706 30.4382 38.826 30.9221 38.853 31.4081C38.786 30.7639 38.6374 30.1314 38.4109 29.5263C38.1349 29.034 38.1896 29.3004 38.1896 29.3004C38.2872 29.5522 38.3336 29.8217 38.3262 30.0925C38.2767 29.7785 38.132 29.4883 37.9125 29.2626C37.5814 28.9798 37.5814 29.2429 37.5814 29.2429C37.6811 29.5653 37.7246 29.903 37.71 30.2407C37.71 30.2407 37.5631 30.0339 37.3225 29.639C37.3628 30.0212 37.3566 30.407 37.3043 30.7878C37.3043 30.7878 36.9555 28.9989 36.5659 28.6981Z" fill="#19998C"/>
<path d="M7.46689 31.5169C7.46689 31.5169 8.64202 30.6597 10.3702 34.1181C12.0983 37.5764 14.2589 41.8548 14.5461 42.77C14.6957 43.2215 14.6717 43.7143 14.479 44.1485C14.2863 44.5828 13.9393 44.9261 13.5081 45.1091C12.5136 45.6517 11.5292 46.5117 10.4409 45.4433L9.35257 44.375C9.19908 44.5145 9.02 44.6216 8.8257 44.6901C8.63139 44.7585 8.42571 44.7869 8.22058 44.7736C8.01544 44.7603 7.81493 44.7056 7.63064 44.6127C7.44636 44.5198 7.28196 44.3904 7.14698 44.2322C6.09295 43.0626 4.45269 39.543 3.93184 38.4473C3.41099 37.3516 3.61033 36.3056 4.42269 35.2258C4.42269 35.2258 4.07384 33.6213 4.89531 32.9775C4.66061 30.2024 5.55227 30.3101 5.93648 30.0919C6.69579 29.6624 7.46689 31.5169 7.46689 31.5169Z" fill="#201E1C"/>
<path d="M12.3465 39.5378C12.3465 39.5378 9.44052 33.876 8.82322 33.1796C8.20591 32.4832 7.86296 32.434 7.0774 32.6719C6.29183 32.9099 4.88735 33.7414 4.9747 34.5253C5.06204 35.3092 5.08723 35.79 4.71052 36.2824C4.33382 36.7747 4.38901 37.9782 5.0449 39.4705C5.70078 40.9628 6.72481 42.8364 7.37373 43.4535C8.02265 44.0705 7.51412 43.2051 7.44982 43.122C6.83259 42.0874 6.29511 41.0054 5.84225 39.8857C5.59951 39.0372 6.53886 40.6149 6.68462 40.7544C6.83037 40.8939 6.07535 39.156 5.98104 38.6893C5.92417 38.1513 5.91037 37.6094 5.93978 37.069C5.93978 37.069 7.28263 40.5312 7.78205 41.4716C8.0037 41.9148 8.25695 42.3408 8.53975 42.7461C8.53975 42.7461 8.85108 42.8747 8.71712 42.5629C8.58316 42.2511 6.95201 38.7774 6.72748 38.0225C6.50296 37.2676 6.29237 36.3398 6.29237 36.3398C6.29237 36.3398 6.49278 36.1516 6.8159 36.691C7.13902 37.2304 7.39784 37.6872 7.39784 37.6872C7.39784 37.6872 7.32604 36.3896 6.96916 35.929C6.61228 35.4684 7.91816 36.7255 7.91816 36.7255C8.06337 37.2985 8.3665 37.817 8.7916 38.2194C8.58072 37.4872 8.42205 36.7404 8.31683 35.9848C8.25789 35.2189 9.02041 34.9865 9.7899 35.9667C10.5594 36.947 12.7184 40.7965 12.9354 41.9901C13.1524 43.1838 13.3882 43.4026 13.266 43.6225C13.4881 43.0335 13.5241 42.3883 13.3689 41.7773C13.0796 41.0074 12.738 40.2591 12.3465 39.5378Z" fill="#19998C"/>
<path d="M7.4668 31.5172C7.4668 31.5172 7.2905 29.8263 7.97211 28.8099L6.27559 27.0977C6.27559 27.0977 4.67553 28.544 4.89523 32.9777L7.4668 31.5172Z" fill="#201E1C"/>
<path d="M7.69573 28.6981L6.57043 27.5312C6.05922 28.2511 5.71843 29.0821 5.57481 29.959C5.4911 30.4382 5.43562 30.9221 5.40869 31.4081C5.47568 30.7639 5.62428 30.1314 5.85077 29.5263C6.12781 29.034 6.07208 29.3004 6.07208 29.3004C5.97495 29.5524 5.92848 29.8217 5.93544 30.0925C5.98498 29.7785 6.12965 29.4883 6.34912 29.2626C6.68028 28.9798 6.68028 29.2429 6.68028 29.2429C6.58055 29.5653 6.53703 29.903 6.55167 30.2407C6.55167 30.2407 6.69957 30.0339 6.9391 29.639C6.89889 30.0212 6.905 30.407 6.95732 30.7878C6.95732 30.7878 7.30884 28.9989 7.69573 28.6981Z" fill="#19998C"/>
<path d="M52.4731 12.9336C52.7898 12.9358 53.1029 13.0014 53.3948 13.1267C53.5945 13.0311 53.8102 12.9754 54.0303 12.9626C55.5504 13.0548 56.4295 13.1845 56.6678 13.3515C57.1514 13.5461 57.5474 13.9163 57.7797 14.3909C57.9439 15.0053 58.04 15.6365 58.0664 16.2727V16.8236C58.0776 16.9992 58.0559 17.1753 58.0026 17.3427C58.037 17.4811 58.0584 17.6225 58.0664 17.765C58.049 18.2482 57.9741 18.7274 57.8435 19.1922C57.8435 19.6193 57.5681 19.9437 57.0172 20.1654C56.849 20.3603 56.6361 20.5097 56.3976 20.6003C56.1591 20.6909 55.9024 20.7198 55.6502 20.6845C55.4565 20.6763 55.2645 20.6438 55.0785 20.5877C54.8432 20.6823 54.5976 20.7476 54.347 20.7825C54.304 20.8497 54.282 20.9287 54.2838 21.0089C54.2838 21.3226 54.2945 21.7985 54.3159 22.4367L54.22 22.6632C54.2936 22.8516 54.3475 23.0474 54.3808 23.2474V24.8715C54.3122 25.4339 54.1216 25.7151 53.809 25.7151H52.3156C52.1013 25.7151 51.8392 25.7047 51.5215 25.6823C51.4067 25.7085 51.2891 25.7195 51.1715 25.7151C50.949 25.7151 50.8218 25.5743 50.79 25.2928V23.4761C50.7926 23.2798 50.8139 23.0843 50.8538 22.8924C50.8116 22.6788 50.7903 22.4615 50.79 22.2436V21.7573C50.7856 21.5079 50.7964 21.2586 50.8222 21.0106C50.8013 20.7945 50.79 20.5243 50.79 20.1999V19.0648C50.854 18.773 50.8859 18.6109 50.8859 18.5785C50.8393 18.4086 50.8072 18.2349 50.79 18.0593L50.9508 17.573C50.8706 17.4214 50.8162 17.2569 50.79 17.0867V15.561C50.7903 15.3431 50.8116 15.1258 50.8538 14.9122C50.8105 14.7316 50.789 14.5462 50.79 14.3603V13.6792C50.79 13.2051 51.0019 12.9681 51.4255 12.9681C51.542 12.9681 51.7435 12.9786 52.03 12.9998C52.176 12.9671 52.3241 12.945 52.4731 12.9336ZM54.3486 15.7557C54.3521 15.8966 54.3628 16.0372 54.3808 16.177C54.3386 16.6099 54.3176 17.0209 54.3176 17.41V17.4428C54.3176 17.9621 54.3599 18.2216 54.4446 18.2212H54.5078C54.7729 18.2212 54.9213 18.0591 54.9531 17.7349V16.015C54.9102 15.6906 54.7725 15.5287 54.5394 15.5287C54.4129 15.5774 54.3476 15.6529 54.3476 15.7557H54.3486Z" fill="#201E1C"/>
<path d="M60.1157 12.9004C60.613 12.9223 60.9523 12.9332 61.1338 12.9332C61.1673 12.9292 61.1997 12.918 61.2287 12.9004C61.3227 12.9199 61.4183 12.9309 61.5143 12.9332H62.055C62.415 12.9763 62.6162 12.9978 62.6583 12.9978H63.199C63.7118 13.0215 64.2219 13.0867 64.7246 13.1925C64.9728 13.2851 65.1997 13.4288 65.3912 13.6148C65.6195 13.6148 65.8951 13.9392 66.218 14.588C66.367 15.0382 66.4525 15.5077 66.472 15.9824V17.1503C66.3291 18.1674 66.1596 18.6756 65.9635 18.6749L65.455 19.0972V19.1289C65.6249 19.2561 65.7842 19.3973 65.9313 19.5513C66.1315 19.8174 66.292 20.1124 66.4077 20.4265C66.45 20.9292 66.4715 21.1989 66.4715 21.2372V23.6048C66.4474 23.777 66.3691 23.9365 66.2486 24.0594V24.0922C66.3178 24.145 66.3739 24.2135 66.4126 24.2923C66.4513 24.3711 66.4715 24.4581 66.4715 24.5462V25.2273C66.4715 25.5296 66.196 25.681 65.6452 25.6813C65.5698 25.6829 65.495 25.6939 65.4223 25.7142C65.1365 25.6923 64.893 25.6813 64.6919 25.6813H63.5773C63.2805 25.6813 63.132 25.5083 63.132 25.1622V24.9357C63.1407 24.7182 63.162 24.5014 63.1958 24.2864C63.1623 24.1153 63.141 23.942 63.132 23.7678V23.2164C63.1311 23.0304 63.1525 22.8451 63.1958 22.6644C63.1761 22.5031 63.1653 22.3407 63.1636 22.1781L63.2906 21.7886V21.6918L63.0366 20.4593C63.009 20.3862 62.9613 20.3228 62.8992 20.2767C62.8371 20.2306 62.7634 20.2038 62.6867 20.1995C62.6376 20.2113 62.5942 20.2408 62.5647 20.2826C62.5352 20.3244 62.5214 20.3757 62.526 20.4271V20.6218C62.526 20.713 62.5047 20.95 62.4622 21.3329C62.5044 21.6736 62.5256 21.9006 62.526 22.014V22.468C62.5114 23.1104 62.4476 23.7505 62.3352 24.3827C62.4522 24.7158 62.5067 25.0684 62.496 25.422C62.4703 25.5027 62.4187 25.5722 62.3496 25.6193C62.2805 25.6663 62.1978 25.6882 62.115 25.6813H61.8921C61.7534 25.684 61.6149 25.673 61.4784 25.6485C61.363 25.668 61.2464 25.679 61.1295 25.6813C60.9594 25.6847 60.7893 25.6737 60.621 25.6485C60.3402 25.6704 60.0439 25.6813 59.7309 25.6813H59.381C59.0849 25.6813 58.9366 25.5192 58.9363 25.195C58.9187 24.7924 58.951 24.3892 59.0322 23.9948C58.9785 23.8276 58.9568 23.6513 58.9684 23.4757V23.3116C59.0106 22.9987 59.0318 22.8366 59.0322 22.8253C59.0002 22.6757 58.9789 22.5239 58.9684 22.3712V22.2071C58.9737 22.0432 58.9951 21.8803 59.0322 21.7208C59.0028 21.5925 58.9815 21.4624 58.9684 21.3313C58.972 21.2096 58.9935 21.0892 59.0322 20.9741C58.9899 20.849 58.9683 20.7175 58.9684 20.5851C59.0051 20.4255 59.0265 20.2627 59.0322 20.0988V19.8439C59.0206 19.625 58.9885 19.4078 58.9363 19.1951C58.9787 18.987 59.0324 18.7813 59.097 18.5792C59.0312 18.3796 58.9886 18.1729 58.97 17.9632V15.2685C58.9715 15.1148 58.9929 14.9619 59.0338 14.8139C58.965 14.3851 58.9329 13.9509 58.9379 13.5164C58.9379 13.1276 59.1074 12.933 59.4464 12.9327C59.7654 12.9108 59.9885 12.9 60.1157 12.9004ZM62.4354 15.7877L62.4665 16.1766C62.4665 16.2045 62.4456 16.3227 62.4033 16.5338C62.4573 16.757 62.4891 16.9852 62.4981 17.2149C62.4666 17.3645 62.4455 17.5162 62.4349 17.6689C62.4349 17.8042 62.5195 17.8801 62.6889 17.8965C62.9961 17.8965 63.1656 17.6585 63.1974 17.1826C63.1336 16.7285 63.1026 16.4583 63.1026 16.3719C63.1233 16.0801 63.1336 15.8748 63.1336 15.7559C63.1336 15.637 62.9538 15.5398 62.594 15.4644C62.5385 15.4953 62.4936 15.5429 62.4653 15.6007C62.437 15.6585 62.4268 15.7237 62.4359 15.7877H62.4354Z" fill="#201E1C"/>
<path d="M70.5475 12.4473H71.4686C71.9783 12.4577 72.4801 12.5788 72.9404 12.8025C73.4007 13.0263 73.809 13.3475 74.1383 13.7449C74.4301 14.3353 74.6233 14.9713 74.71 15.6267C74.7901 15.7509 74.8242 15.9003 74.8059 16.0479V16.7963C74.7904 17.0064 74.7477 17.2135 74.6789 17.4122V17.445C74.7028 17.6012 74.7454 17.7537 74.8059 17.8991C74.747 18.1337 74.7046 18.3722 74.6789 18.613L74.7738 19.0019C74.7386 19.1742 74.6741 19.3388 74.583 19.4882C74.6982 19.615 74.7755 19.7727 74.8059 19.9428C74.8152 20.1165 74.8044 20.2908 74.7738 20.4619C74.7947 20.7863 74.8059 21.056 74.8059 21.2726V22.3426C74.7685 22.8948 74.6281 23.4345 74.3923 23.9329C74.1409 24.1925 73.927 24.4872 73.7567 24.8081C73.4861 25.0202 73.1706 25.1648 72.8356 25.2304C72.7573 25.1875 72.6699 25.1652 72.5811 25.1654C72.5811 25.4301 72.3489 25.5815 71.8845 25.6194C71.6962 25.6656 71.5049 25.6984 71.3122 25.7173H70.8995C69.8611 25.5984 69.3418 25.4577 69.3418 25.295C69.2837 25.2877 69.2284 25.2655 69.1811 25.2304L69.0203 25.2633C68.523 25.2633 68.1947 24.809 68.0354 23.9006C67.9507 23.9006 67.8661 23.7385 67.7814 23.4143C67.8177 23.2985 67.8389 23.1785 67.8446 23.0571C67.8344 22.9756 67.6437 22.8678 67.2729 22.7327L67.2407 22.5686V22.5358C67.2753 22.4034 67.3177 22.2734 67.3677 22.1463C67.2939 21.8148 67.2402 21.479 67.207 21.1408C67.2404 20.9697 67.2618 20.7964 67.2707 20.6222C67.1844 20.4752 67.1404 20.3062 67.1437 20.1348V20.0703C67.1437 19.7785 67.2177 19.5945 67.3656 19.5183H67.4293C67.5283 19.5381 67.6243 19.571 67.715 19.6162C67.8525 19.2632 67.9383 18.8914 67.9695 18.5129C68.0787 18.3736 68.1449 18.2043 68.1597 18.0265C68.1172 17.8778 68.0855 17.726 68.0649 17.5725V17.5074C68.1242 17.3616 68.1668 17.2092 68.1919 17.0534V17.0205C68.1919 16.8699 68.0649 16.7944 67.8109 16.7941C67.7545 16.7315 67.7207 16.6513 67.715 16.5665C67.715 16.4254 67.8421 16.2633 68.0965 16.0802C68.0384 15.9676 67.9957 15.8474 67.9695 15.723C68.0068 15.4396 68.0927 15.1651 68.2235 14.9123C68.2235 14.7772 68.044 14.6579 67.6828 14.5551C67.6561 14.527 67.6347 14.4942 67.6196 14.4582C67.6196 14.2941 67.7675 14.1552 68.0643 14.0359C68.0461 13.7908 68.108 13.5464 68.2404 13.341C68.3727 13.1356 68.5681 12.9808 68.7958 12.9008H68.8906C68.9732 12.9247 69.0588 12.9357 69.1446 12.9336C69.2575 12.7702 69.412 12.6415 69.5915 12.5614C69.771 12.4814 69.9686 12.4531 70.1627 12.4796C70.289 12.4513 70.4184 12.4404 70.5475 12.4473ZM67.5285 14.8149H67.5606C67.7514 14.8149 67.8466 14.934 67.8462 15.1721C67.7935 15.2939 67.7182 15.404 67.6244 15.4965C67.6431 15.6147 67.6538 15.734 67.6565 15.8537C67.6565 15.8865 67.6142 15.9298 67.529 15.9834H67.4015C67.3007 15.9834 67.238 15.8324 67.2107 15.5293C67.3225 15.053 67.4284 14.8149 67.5285 14.8149ZM67.5606 21.6922C67.5606 21.9953 67.603 22.1463 67.6876 22.1463H67.7198C67.7764 22.1137 67.8237 22.0667 67.8571 22.0098C67.8906 21.9529 67.909 21.8882 67.9105 21.8219C67.8843 21.649 67.8205 21.5626 67.7198 21.5626C67.6239 21.6058 67.5708 21.649 67.5622 21.6922H67.5606ZM68.3869 22.4389C68.4042 22.4685 68.4151 22.5015 68.4191 22.5358H68.5461C68.6204 22.5358 68.7792 22.4276 69.0224 22.2114C69.0809 22.2114 69.1344 22.1567 69.1832 22.0472C69.1645 21.9512 69.1537 21.8536 69.151 21.7557C69.1846 21.5572 69.2607 21.3687 69.374 21.2037V21.1725C69.3526 21.1224 69.3169 21.08 69.2716 21.0507C69.2264 21.0214 69.1735 21.0067 69.12 21.0084H69.0878C69.0503 21.0084 68.9967 21.1598 68.9271 21.4625C68.8688 21.4738 68.784 21.7117 68.6725 22.1763C68.4814 22.3189 68.386 22.4065 68.3864 22.4389H68.3869ZM69.1494 13.194C69.1515 13.348 69.1301 13.5013 69.0862 13.6486V13.7783C69.1023 13.9079 69.1339 13.973 69.1811 13.973H69.2448V13.9079C69.2339 13.7552 69.2126 13.6035 69.1811 13.4539L69.2132 13.2263L69.1494 13.194ZM69.1494 14.6218V14.8816L69.2132 14.9785C69.2716 14.9575 69.3218 14.9177 69.3562 14.8651C69.3906 14.8126 69.4074 14.75 69.404 14.6869C69.4077 14.636 69.3979 14.585 69.3756 14.5393C69.3532 14.4937 69.3191 14.4551 69.277 14.4276H69.2448C69.1811 14.4473 69.1489 14.5124 69.1489 14.6207L69.1494 14.6218ZM69.277 20.4286V20.4614C69.3242 20.5164 69.383 20.5597 69.449 20.5881C69.515 20.6166 69.5864 20.6293 69.658 20.6255L69.6901 20.5604V20.5276C69.6901 20.468 69.5829 20.4247 69.3724 20.3979C69.3428 20.4141 69.3104 20.4242 69.277 20.4275V20.4286ZM70.4526 16.1469C70.5133 16.258 70.5562 16.3782 70.5796 16.503V16.601C70.585 16.8831 70.6061 17.1648 70.6429 17.4445C70.5874 17.8185 70.5025 18.1873 70.3889 18.5473V18.5801C70.4963 18.851 70.5708 19.1343 70.6107 19.4237C70.5686 19.699 70.5475 19.8611 70.5475 19.91C70.5898 20.1365 70.6107 20.2557 70.6107 20.2672L70.4837 20.7863C70.4837 20.8131 70.5052 20.9324 70.5475 21.1425L70.5153 21.37C70.5441 21.4653 70.5654 21.5628 70.5791 21.6616C70.552 22.5482 70.4884 22.9914 70.3883 22.9914V23.0872C70.5842 23.1345 70.7755 23.1995 70.9601 23.2814H71.0876C71.1348 23.2814 71.2087 23.0545 71.3095 22.6008C71.5002 22.4225 71.5954 22.2817 71.5951 22.1785C71.4916 22.1002 71.4085 21.9972 71.3531 21.8784C71.2977 21.7597 71.2716 21.6289 71.2773 21.4975V20.5571C71.2959 20.3175 71.3279 20.0791 71.3732 19.8432C71.323 19.6631 71.2909 19.4781 71.2773 19.2913V19.0971C71.2773 18.8265 71.288 18.5776 71.3095 18.3504C71.2898 18.2217 71.279 18.0917 71.2773 17.9614C71.2773 17.852 71.288 17.6896 71.3095 17.474C71.288 17.1879 71.2773 16.8849 71.2773 16.566C71.2773 16.5007 71.2986 16.2844 71.3411 15.9172C71.2771 15.2243 71.1712 14.8778 71.0233 14.8778H70.8963C70.7799 14.8778 70.6527 15.2562 70.5148 16.0129C70.4891 16.0151 70.4676 16.0583 70.4526 16.1458V16.1469ZM71.8491 23.1845V23.2814C71.8511 23.3434 71.87 23.4037 71.9037 23.4554C71.9374 23.5071 71.9846 23.5481 72.0398 23.574L72.0709 23.5089C72.0245 23.3724 71.9927 23.2312 71.9761 23.0877H71.9439C71.9134 23.0872 71.8823 23.1194 71.8491 23.1845ZM72.0398 24.4493L72.0077 24.5144C72.0077 24.6823 72.1872 24.8224 72.5484 24.9367V24.8377C72.55 24.6068 72.3796 24.4772 72.0415 24.4493H72.0398ZM72.2006 17.3127V17.3778C72.2054 17.421 72.2269 17.4429 72.2638 17.4429H72.3276L72.3598 17.2787V17.1146H72.296C72.2322 17.1398 72.2001 17.2054 72.2001 17.3127H72.2006ZM72.2955 16.0802V16.1453C72.3008 16.1885 72.3217 16.2098 72.3592 16.2098L72.3903 16.1453V16.0802H72.2955Z" fill="#201E1C"/>
<path d="M78.2134 12.9336C78.4616 12.9766 78.6939 13.0089 78.91 13.0304C79.075 12.9772 79.2458 12.9447 79.4185 12.9336C79.7821 13.0298 80.155 13.0848 80.5304 13.0977C80.645 13.0658 80.7621 13.0441 80.8803 13.0326C82.0235 13.2656 82.5951 13.4604 82.5951 13.6168C83.2099 14.0603 83.5173 14.417 83.5173 14.6868C83.6019 14.6868 83.6866 15.0978 83.7713 15.9199L83.581 16.439C83.7081 16.6552 83.784 16.8987 83.8029 17.1501C83.764 17.3205 83.7427 17.4944 83.7391 17.6693C83.7504 17.9291 83.7713 18.0588 83.8029 18.0588L83.7707 18.2229C83.7922 18.8447 83.8029 19.2447 83.8029 19.4231C83.7607 19.8826 83.7395 20.1743 83.7391 20.2983C83.7391 20.6284 83.7498 21.0826 83.7713 21.661C83.7711 22.0003 83.7284 22.3382 83.6443 22.6664C83.7082 22.8088 83.7406 22.9639 83.7391 23.1205V23.2846C83.6019 24.1281 83.4749 24.5501 83.3581 24.5504C83.0134 25.1339 82.6956 25.4257 82.4048 25.4257C81.9117 25.6345 81.3807 25.7339 80.8471 25.7173H79.0997C78.7821 25.7173 78.5174 25.7063 78.3055 25.6844C78.063 25.7112 77.819 25.7221 77.5752 25.7173H76.3352C76.1444 25.7173 76.0385 25.5874 76.0174 25.3278V23.3141C76.0174 23.0166 76.0067 22.6272 75.9853 22.1462C76.0297 21.9747 76.1175 21.8182 76.2398 21.6922C76.1386 21.498 76.0637 21.2909 76.0169 21.0762V19.2595C75.9747 18.7347 75.9535 18.443 75.9531 18.3843V17.9953C75.9635 17.4835 76.0173 16.9736 76.1139 16.4713L75.9531 15.6595C75.9918 15.4454 76.0131 15.2284 76.0169 15.0107C76.0169 14.8706 76.0067 14.6863 75.9847 14.4598C76.004 14.309 76.0147 14.1573 76.0169 14.0052L75.9847 13.4866C76.0373 13.1836 76.1855 13.0321 76.4295 13.0321C77.0258 13.057 77.6231 13.024 78.2134 12.9336ZM78.5311 20.7518V20.9159H78.5622C78.6742 20.9159 78.7369 20.8831 78.753 20.818V20.7852C78.7548 20.7763 78.7545 20.7671 78.752 20.7583C78.7495 20.7496 78.7449 20.7416 78.7386 20.7351C78.7324 20.7287 78.7246 20.7239 78.7161 20.7213C78.7075 20.7187 78.6985 20.7182 78.6897 20.7201L78.5311 20.7518ZM79.4523 16.5342C79.4838 16.6838 79.5049 16.8355 79.5155 16.9882V18.2212C79.5155 18.4918 79.5051 18.827 79.4844 19.2267C79.5381 19.439 79.5698 19.6564 79.5793 19.8755V20.0396C79.5624 20.2531 79.508 20.4618 79.4185 20.6555V20.6884C79.5165 20.9922 79.5707 21.309 79.5793 21.6287V21.9859C79.5668 22.1702 79.545 22.3537 79.5139 22.5357C79.5139 22.9463 79.6094 23.1517 79.8006 23.1517C80.0281 23.1517 80.1657 22.7841 80.2132 22.0488C80.2879 21.9325 80.3317 21.7982 80.3402 21.6594C80.2804 21.5025 80.2378 21.3394 80.2132 21.173V21.1085C80.3354 20.6107 80.4732 20.3618 80.6269 20.3618L80.8171 20.1025V20.0374C80.6317 20.0593 80.5256 20.0702 80.4993 20.0702C80.4089 20.0342 80.3307 19.9721 80.2743 19.8915C80.2179 19.8108 80.1856 19.7152 80.1816 19.6162C80.2182 19.4562 80.2396 19.293 80.2453 19.1288V19.0347C80.2032 18.6671 80.1819 18.4618 80.1816 18.4187V17.9297C80.2237 17.5621 80.245 17.3564 80.2453 17.3126V17.2481C80.2431 17.1284 80.2323 17.009 80.2132 16.8908C80.2132 16.6315 80.5206 16.5017 81.1354 16.5014C81.3172 16.5215 81.4975 16.5542 81.675 16.5993H81.8025C82.0351 16.5342 82.1514 16.4696 82.1514 16.4045V16.3077C82.0196 16.2473 81.881 16.2035 81.7388 16.1775L80.9125 16.2754H80.7517C80.6109 16.2851 80.471 16.2453 80.3554 16.1626C80.2398 16.0799 80.1554 15.9593 80.1162 15.8208C80.1162 15.6863 80.0206 15.5998 79.8295 15.5615H79.7025C79.6257 15.5612 79.5423 15.8854 79.4523 16.5342Z" fill="#201E1C"/>
<path d="M85.743 12.6738C85.8374 12.6934 85.9333 12.7044 86.0296 12.7066H86.2515C86.5269 12.7066 86.8125 12.7181 87.1089 12.7395C87.2243 12.718 87.3414 12.707 87.4588 12.7066C88.0518 12.7497 88.3483 12.8255 88.3483 12.9342C88.3906 12.9342 88.4121 13.0103 88.4121 13.1607V15.8204C88.3049 16.5775 88.2513 17.0317 88.2513 17.183C88.2091 17.1889 88.1772 17.2647 88.1554 17.4106V17.4434C88.2584 17.6404 88.3436 17.8466 88.4099 18.0594V18.9029C88.4109 19.0885 88.3894 19.2735 88.3461 19.4538C88.3865 19.6019 88.408 19.7547 88.4099 19.9084V21.3017C88.3678 21.7882 88.3465 22.0478 88.3461 22.0806V22.8914C88.3726 23.1725 88.4785 23.3129 88.6639 23.3126H88.7914C88.8512 23.2726 88.9019 23.22 88.9402 23.1584C88.9784 23.0968 89.0034 23.0276 89.0133 22.9554C88.9919 22.3941 88.9811 21.9499 88.9811 21.6255V21.4614C89.0497 20.9749 89.1133 20.6073 89.1719 20.3586C89.1939 20.3191 89.205 20.2743 89.204 20.2289V20.1638C89.1106 19.9034 89.0564 19.6301 89.0433 19.3531C89.0854 19.0019 89.1067 18.7749 89.1071 18.6721C89.1071 18.6507 89.0958 18.5627 89.0749 18.4128C89.0954 18.3059 89.1061 18.1973 89.1071 18.0884C89.0451 17.9097 89.0023 17.7246 88.9795 17.5364C88.9617 16.9939 88.9938 16.4509 89.0754 15.9145C88.9876 15.5089 88.9338 15.0964 88.9147 14.6814C88.96 14.4795 88.9813 14.2727 88.9779 14.0655V13.2602C88.9779 12.8708 89.1898 12.676 89.6134 12.676C89.8011 12.7256 89.9925 12.7583 90.1857 12.7739H90.5356C90.8532 12.7309 91.3721 12.6983 92.0923 12.676C92.3677 12.763 92.506 12.914 92.506 13.1306V13.7794C92.4658 13.9811 92.4018 14.1771 92.3152 14.3631C92.4026 14.5376 92.4668 14.7232 92.506 14.915V15.2394C92.442 15.7153 92.4101 16.0071 92.4101 16.1147V16.3412C92.474 16.7471 92.506 16.9633 92.506 16.9899V17.055C92.4631 17.369 92.4422 17.5413 92.4422 17.5742V18.0282C92.4422 18.2018 92.4315 18.4071 92.4101 18.6442C92.4712 18.8327 92.5036 19.0298 92.506 19.2284V19.7475C92.506 19.8398 92.5271 20.0778 92.5692 20.4614C92.5354 20.6762 92.5143 20.8928 92.506 21.1102V21.8558C92.4586 22.2803 92.3516 22.6955 92.1882 23.0888L92.2831 23.5429C92.1559 24.0487 91.8785 24.502 91.4889 24.8404C90.8411 25.3952 90.0142 25.6842 89.1692 25.6511C89.1692 25.6944 89.0947 25.7162 88.9463 25.7162H88.4067C88.0002 25.6963 87.6012 25.5974 87.231 25.4247C86.7648 25.4247 86.1933 25.1001 85.5163 24.451C85.1821 24.021 84.9727 23.504 84.9118 22.9586V22.4723C84.8697 22.1047 84.8486 21.8994 84.8486 21.8564C84.8569 21.6963 84.925 21.5456 85.0388 21.4351V21.37C84.8913 21.2566 84.8173 20.9649 84.817 20.4948V20.3651C84.8185 20.2882 84.8293 20.2118 84.8491 20.1376C84.8277 19.7058 84.817 19.3274 84.817 19.0025V17.8969L84.944 17.345L84.817 16.956V15.1716C84.8136 15.115 84.8247 15.0584 84.8491 15.0075L84.817 14.8127V13.2909C84.817 12.9014 85.0501 12.7066 85.5163 12.7066C85.5934 12.7161 85.6715 12.7048 85.743 12.6738Z" fill="#201E1C"/>
<path d="M96.9525 12.4805H98.0017C99.1091 12.6099 99.7975 12.7936 100.067 13.0313C100.785 13.4823 101.299 14.2056 101.497 15.0428C101.506 15.228 101.527 15.4123 101.56 15.5947C101.548 15.7258 101.527 15.8558 101.497 15.9837L101.657 16.6647L101.53 17.1839C101.594 17.3053 101.637 17.437 101.657 17.5734C101.657 18.1569 101.562 18.4486 101.372 18.4486H100.514C100.324 18.4486 100.112 18.4371 99.8788 18.4158C99.7429 18.4431 99.6045 18.4541 99.4662 18.4486L99.0525 18.3184L98.3221 18.3835C98.1522 18.3288 98.0676 18.156 98.0676 17.8644V17.8316C98.0721 17.5158 98.1042 17.2011 98.1635 16.8912C98.1183 16.6992 98.0862 16.5041 98.0676 16.3075C98.0763 16.09 98.0975 15.8732 98.1313 15.6582C98.0938 15.1841 97.9666 14.9471 97.7498 14.9471H97.655C97.4113 14.9471 97.2738 15.2714 97.2424 15.9202V15.9848C97.2424 16.0825 97.2527 16.3314 97.2734 16.7315C97.2734 16.8449 97.2631 17.0289 97.2424 17.2834C97.2631 17.5752 97.2734 17.7805 97.2734 17.8994C97.2729 18.0944 97.2625 18.2892 97.2424 18.4831C97.2631 18.835 97.2734 19.2351 97.2734 19.6833C97.2716 20.0225 97.2289 20.3602 97.1464 20.6887C97.2345 20.9831 97.2774 21.2896 97.2734 21.5974C97.2525 21.9218 97.2424 22.1482 97.2424 22.2784C97.3213 22.9484 97.4165 23.2833 97.528 23.2833H97.7182C97.9202 23.2833 98.0365 23.1323 98.0681 22.8293V20.6871C98.0681 20.3629 98.174 20.2008 98.3859 20.2008H98.5766C98.9367 20.1577 99.1382 20.136 99.1811 20.1357H100.827C101.378 20.1357 101.653 20.2872 101.653 20.5903V20.9475C101.647 21.349 101.615 21.7498 101.558 22.1471V22.4715C101.56 22.6317 101.507 22.7875 101.409 22.9119C101.31 23.0364 101.171 23.1215 101.017 23.1526C100.953 23.2502 100.909 23.3608 100.89 23.477C100.89 23.4885 100.954 23.6411 101.081 23.9316V23.9633C101.081 24.2828 100.785 24.6292 100.191 25.0027C99.7937 25.1626 99.4109 25.3581 99.0471 25.5869C98.61 25.6918 98.1609 25.7354 97.7123 25.7165H97.3635C96.0495 25.5488 95.3928 25.3974 95.3931 25.2625C95.2023 25.2625 94.9585 25.0461 94.6617 24.6132C94.3982 24.3781 94.1858 24.0893 94.0381 23.7654C93.8905 23.4415 93.8108 23.0896 93.8043 22.7325C93.7668 22.7325 93.7459 22.5683 93.7405 22.2461V21.4655C93.7318 21.2482 93.7105 21.0315 93.6768 20.8167C93.7035 20.5388 93.7677 20.266 93.8675 20.006C93.8082 19.8602 93.7656 19.7078 93.7405 19.552V19C93.6984 18.6219 93.6771 18.4273 93.6768 18.4164C93.7189 17.3781 93.7402 16.6968 93.7405 16.3726V15.7895C93.7588 15.1908 93.9344 14.6081 94.2491 14.1024C94.4564 13.8778 94.6489 13.6393 94.8251 13.3885C95.1985 13.0817 95.6322 12.8605 96.0967 12.7398C96.3576 12.5849 96.651 12.496 96.9525 12.4805ZM95.0143 17.6056L94.9821 17.6702L95.0459 17.703L95.078 17.6379L95.0143 17.6056Z" fill="#201E1C"/>
<path d="M102.944 12.9665H104.151C104.332 12.9783 104.513 12.9998 104.692 13.0311C104.859 12.9969 105.029 12.9753 105.2 12.9665H105.836C106.008 12.9551 106.18 12.977 106.344 13.0311C106.521 12.9871 106.702 12.9654 106.884 12.9665H109.394C109.733 12.9665 109.903 13.215 109.903 13.7121C109.924 14.0363 109.934 14.3066 109.934 14.5228C109.92 14.6854 109.865 14.8416 109.776 14.9769V15.042L109.871 15.3663V15.4314C109.871 15.6262 109.744 15.734 109.489 15.7558H109.394C109.183 15.7558 108.918 15.7449 108.6 15.723C108.134 15.7613 107.901 15.9555 107.901 16.3072C107.88 16.3072 107.869 16.3505 107.869 16.4369V16.5337C107.884 16.6778 107.917 16.8196 107.965 16.956C107.911 17.3448 107.837 17.5394 107.742 17.5397C107.645 17.5289 107.555 17.4829 107.488 17.4101H107.392L107.361 17.5742C107.361 17.7095 107.498 17.7959 107.773 17.8335C107.836 17.8679 107.887 17.9199 107.921 17.9833C107.954 18.0467 107.97 18.1187 107.964 18.1907V18.2235C107.951 18.4103 107.918 18.5953 107.868 18.7755C107.905 18.8908 107.926 19.0106 107.932 19.1316C107.932 19.148 107.878 19.2995 107.771 19.5862C107.836 19.6413 107.887 19.7111 107.92 19.79C107.953 19.8688 107.967 19.9546 107.962 20.0402C107.944 20.1942 107.911 20.3461 107.866 20.4943C107.848 20.8986 107.891 21.3034 107.994 21.6944C107.972 22.057 107.962 22.3381 107.962 22.538V22.6348C107.967 22.8419 107.988 23.0482 108.025 23.2519C107.988 23.4115 107.967 23.5743 107.962 23.7382V23.835C107.963 23.9885 107.984 24.1411 108.025 24.289C107.984 24.4371 107.963 24.5899 107.962 24.7436V25.0029L107.994 25.1977C107.962 25.5441 107.803 25.7172 107.516 25.7168H104.885C104.567 25.7168 104.408 25.5005 104.408 25.068V22.4373C104.411 22.1618 104.453 21.8881 104.535 21.6255C104.458 21.3622 104.415 21.0896 104.408 20.8148V20.4904C104.414 20.2837 104.435 20.0778 104.472 19.8745C104.435 19.6711 104.414 19.4652 104.408 19.2585V15.9511C104.408 15.8534 104.218 15.7987 103.836 15.787C103.616 15.826 103.393 15.8476 103.169 15.8516H102.947C102.656 15.8516 102.486 15.6679 102.438 15.3007C102.474 15.1737 102.495 15.043 102.502 14.9112C102.502 14.8236 102.492 14.7363 102.471 14.6514C102.491 14.4575 102.501 14.2627 102.502 14.0677V13.4205C102.493 13.3591 102.499 13.2965 102.518 13.2377C102.537 13.1789 102.569 13.1253 102.612 13.0814C102.655 13.0374 102.707 13.0041 102.765 12.9842C102.822 12.9643 102.884 12.9582 102.944 12.9665ZM106.471 20.7519C106.432 20.8096 106.41 20.877 106.407 20.9467H106.439C106.476 20.9467 106.508 20.8919 106.535 20.7825L106.471 20.7519ZM106.821 19.9729L106.884 20.0058H107.171C107.22 19.9839 107.261 19.9475 107.29 19.9013C107.319 19.8551 107.333 19.8011 107.331 19.7465L107.171 19.7136H107.075C107.04 19.7086 107.005 19.7118 106.972 19.7231C106.939 19.7344 106.909 19.7533 106.884 19.7785C106.86 19.8036 106.841 19.8343 106.83 19.868C106.819 19.9018 106.816 19.9377 106.821 19.9729Z" fill="#201E1C"/>
<path d="M53.1597 27.4405H53.3033C54.2679 27.4405 54.7501 27.6617 54.7501 28.1041C54.7291 28.4517 54.7653 28.8005 54.8573 29.1358C54.8334 29.3878 54.8214 29.5353 54.8214 29.5784C54.9418 30.6232 55.0381 31.7784 55.1102 33.0438V33.0805C55.0921 33.2481 55.043 33.4107 54.9655 33.5597C54.998 33.6681 55.022 33.7789 55.0374 33.8912C55.0037 34.0486 54.9425 34.1985 54.8568 34.3337C54.9529 34.407 55.0639 34.4574 55.1815 34.4814C55.3475 34.107 55.4573 33.7093 55.5073 33.3015L55.4344 32.8223C55.7834 29.5036 56.0001 27.8443 56.0844 27.8443C56.0844 27.5744 56.4093 27.4395 57.0591 27.4395C57.0838 27.4395 57.3603 27.4641 57.8902 27.5128H59.1179C59.8156 27.5128 60.1644 27.7339 60.1644 28.1763C60.1913 28.2337 60.2037 28.2971 60.2003 28.3607C60.2003 28.4903 60.1885 28.7354 60.1644 29.0981C60.2407 29.4877 60.3494 29.87 60.4891 30.2408C60.4681 30.7595 60.5041 31.279 60.5963 31.7895C60.5724 32.361 60.5604 32.6556 60.5604 32.6735C60.6913 33.1934 60.776 33.7244 60.8133 34.2599C60.8848 34.2599 60.9562 33.6702 61.0277 32.4908C61.1503 31.9343 61.2109 31.3654 61.2083 30.795C61.3455 30.3037 61.4064 29.7935 61.3889 29.283C61.5518 28.128 61.7684 27.5505 62.0388 27.5505H62.1117C62.2473 27.6236 62.3938 27.6735 62.5452 27.6982C62.7874 27.5985 63.0428 27.5364 63.3029 27.5139H63.6646C63.9776 27.5139 64.3025 27.5261 64.6394 27.5505C64.7824 27.5246 64.9276 27.5123 65.0729 27.5139C65.3488 27.5139 65.5182 27.6982 65.5782 28.0675V28.1041C65.5782 28.177 65.3495 30.1797 64.8923 34.1122C64.7719 34.9539 64.6876 35.6421 64.6394 36.1767L64.4588 37.2828V37.6887C64.3023 38.7463 64.1458 39.2751 63.9894 39.2751V39.3484C64.0635 39.5023 64.1239 39.6627 64.1699 39.8276V39.9753L64.0253 40.6389V41.2658C64.0253 41.7581 63.8325 42.0039 63.4471 42.0032H62.87C62.5084 41.9419 62.3277 41.7822 62.3277 41.524L62.2559 41.4873H62.22C62.1776 41.4873 62.1407 41.5967 62.1128 41.8188C62.0731 41.8579 62.0226 41.8835 61.9681 41.8921C61.8632 41.8541 61.7542 41.8295 61.6434 41.8188H61.5705C61.1547 41.9137 60.7322 41.9754 60.307 42.0032H59.5487C59.1558 42.0032 58.9032 41.5854 58.791 40.7499C58.791 40.6332 58.6947 39.995 58.5022 38.8353C58.5022 38.8041 58.5263 38.6712 58.574 38.4294C58.3757 38.0039 58.2769 37.5373 58.2852 37.0662C58.2375 36.6734 58.178 36.4759 58.1046 36.4759H58.0687C57.8643 37.9504 57.6959 38.6876 57.5634 38.6876C57.5 38.7587 57.4622 38.8498 57.4562 38.9458C57.5365 39.1066 57.5856 39.2818 57.6009 39.4616C57.4866 41.0101 57.3058 41.7844 57.0586 41.7844C56.6664 41.8827 56.2686 41.9558 55.8674 42.0032H52.9089C52.5599 42.0032 52.3552 41.7452 52.2948 41.2291C52.1984 40.2277 52.0299 38.7901 51.7895 36.9163C51.7671 36.4594 51.7188 36.0043 51.6448 35.5531L51.572 34.8523C51.5961 34.5148 51.6089 34.3053 51.6089 34.2254C51.3982 33.8447 51.2054 32.4563 51.0308 30.0603C50.9884 30.0603 50.9643 29.9252 50.9579 29.6555C50.9579 29.5096 50.9702 29.2882 50.9949 28.9914C50.9506 28.666 50.8779 28.3452 50.7778 28.033V27.9963C50.7778 27.6769 50.9466 27.5171 51.2842 27.5171H52.2948C52.3291 27.5149 52.6174 27.4894 53.1597 27.4405Z" fill="#19998C"/>
<path d="M69.9502 26.9239H70.9978C71.577 26.9361 72.1471 27.0742 72.6701 27.3288C73.193 27.5835 73.6569 27.949 74.0307 28.4009C74.3623 29.0716 74.582 29.7941 74.6807 30.5387C74.7707 30.6805 74.8087 30.8502 74.7879 31.0179V31.8652C74.7699 32.1043 74.7213 32.3399 74.6432 32.566V32.6026C74.6701 32.7801 74.7187 32.9534 74.7879 33.1185C74.7207 33.3848 74.6723 33.6558 74.6432 33.9292L74.7504 34.3717C74.7115 34.5677 74.6389 34.7552 74.536 34.9253C74.6667 35.0692 74.7544 35.2482 74.7889 35.4412C74.7996 35.6388 74.7872 35.8369 74.752 36.0315C74.7761 36.3996 74.7889 36.707 74.7889 36.9521V38.1687C74.7467 38.7955 74.5874 39.4083 74.3195 39.9739C74.0341 40.2693 73.7909 40.6043 73.5972 40.969C73.2899 41.2102 72.9315 41.3743 72.5507 41.4482C72.4615 41.3996 72.3619 41.3745 72.2608 41.3749C72.2608 41.6758 71.9966 41.8486 71.4666 41.8907C71.2528 41.9428 71.0356 41.9794 70.8166 42.0002H70.3472C69.1684 41.8649 68.5789 41.7051 68.5789 41.521C68.5135 41.5122 68.4514 41.4866 68.3983 41.4466L68.2177 41.4843C67.6519 41.4843 67.2786 40.9681 67.0978 39.9356C67.0019 39.9356 66.9054 39.7513 66.8095 39.382C66.8507 39.2509 66.8748 39.1148 66.8813 38.9772C66.8692 38.885 66.6525 38.7623 66.2313 38.6091L66.1954 38.4242V38.3875C66.2347 38.2371 66.283 38.0893 66.3401 37.945C66.2563 37.5683 66.196 37.1867 66.1595 36.8022C66.1974 36.6079 66.2214 36.411 66.2313 36.2131C66.1328 36.0462 66.0826 35.8542 66.0866 35.6595V35.5862C66.0866 35.2547 66.1713 35.0451 66.3396 34.9593H66.4114C66.5238 34.9813 66.6329 35.018 66.7361 35.0687C66.8926 34.668 66.99 34.2458 67.0249 33.816C67.1486 33.6572 67.2233 33.4645 67.2393 33.2624C67.191 33.0934 67.1552 32.9209 67.1321 32.7465V32.6721C67.1994 32.5063 67.2479 32.3333 67.2768 32.1563V32.1196C67.2768 31.9475 67.1323 31.8614 66.8433 31.8614C66.7801 31.7903 66.7424 31.6995 66.7361 31.6037C66.7361 31.444 66.8806 31.2595 67.1696 31.0501C67.1038 30.9224 67.0552 30.7863 67.0249 30.6453C67.0679 30.3233 67.1657 30.0113 67.3138 29.7236C67.3138 29.5704 67.1091 29.4351 66.6997 29.3177C66.6695 29.2859 66.6452 29.2488 66.6279 29.2083C66.6279 29.0241 66.7963 28.8644 67.1332 28.7291C67.1124 28.4506 67.1826 28.173 67.3328 27.9397C67.4829 27.7063 67.7047 27.5303 67.9632 27.4392H68.0704C68.1644 27.4657 68.2617 27.4781 68.3592 27.4758C68.4873 27.2897 68.6631 27.1432 68.8674 27.0523C69.0716 26.9614 69.2964 26.9297 69.5172 26.9605C69.6593 26.929 69.8049 26.9167 69.9502 26.9239ZM66.5207 29.6142H66.5566C66.7736 29.6142 66.8813 29.7493 66.8813 30.0201C66.8208 30.158 66.7351 30.2829 66.6289 30.3882C66.6502 30.5225 66.6622 30.6581 66.6648 30.7941C66.6648 30.8308 66.6171 30.8795 66.5202 30.9418H66.3755C66.2613 30.9418 66.1885 30.7701 66.1611 30.4249C66.2858 29.8848 66.4053 29.6145 66.5196 29.6142H66.5207ZM66.5566 37.4291C66.5566 37.7738 66.6043 37.945 66.7013 37.945H66.7372C66.8016 37.9082 66.8556 37.8549 66.8936 37.7903C66.9317 37.7258 66.9526 37.6522 66.9542 37.5768C66.9238 37.3803 66.8515 37.282 66.7372 37.282C66.6284 37.3312 66.57 37.3799 66.5555 37.4291H66.5566ZM67.4954 38.2776C67.5147 38.3111 67.5269 38.3484 67.5313 38.387H67.676C67.7607 38.387 67.9412 38.265 68.2183 38.0188C68.2847 38.0188 68.3442 37.9576 68.3989 37.8345C68.3776 37.7252 68.3656 37.6143 68.363 37.503C68.4008 37.2776 68.487 37.0635 68.6154 36.8761V36.8394C68.5911 36.7826 68.5506 36.7345 68.4992 36.7015C68.4478 36.6685 68.3878 36.6521 68.3271 36.6545H68.2901C68.2478 36.6545 68.1877 36.8274 68.1095 37.1715C68.0434 37.1839 67.9471 37.4541 67.8207 37.9822C67.6031 38.1419 67.4943 38.2404 67.4943 38.2776H67.4954ZM68.3624 27.7718C68.3644 27.9465 68.3398 28.1205 68.2896 28.2876V28.4353C68.3078 28.583 68.3431 28.6541 68.3967 28.6541H68.4685V28.5808C68.4564 28.4074 68.4324 28.235 68.3967 28.065L68.4326 27.8068L68.3624 27.7718ZM68.3624 29.3937V29.6886L68.4342 29.798C68.5007 29.7742 68.5579 29.7291 68.597 29.6693C68.6362 29.6095 68.6552 29.5383 68.6513 29.4665C68.6553 29.4087 68.644 29.3508 68.6185 29.299C68.5931 29.2472 68.5544 29.2034 68.5066 29.1722H68.4696C68.3973 29.1968 68.3614 29.269 68.3614 29.3932L68.3624 29.3937ZM68.5071 35.9915V36.0293C68.5608 36.0914 68.6276 36.1403 68.7025 36.1723C68.7775 36.2042 68.8585 36.2183 68.9395 36.2136L68.9765 36.1392V36.1026C68.9765 36.0351 68.8559 35.9859 68.6148 35.9549C68.5815 35.9747 68.5444 35.9872 68.506 35.9915H68.5071ZM69.8425 31.1262C69.9117 31.2523 69.9605 31.389 69.9871 31.531V31.6404C69.9933 31.961 70.0177 32.281 70.06 32.5988C69.9966 33.0238 69.9001 33.4428 69.7712 33.8521V33.8887C69.893 34.1966 69.9778 34.5184 70.0236 34.8471C69.9757 35.1608 69.9518 35.3453 69.9518 35.4007C69.9995 35.6584 70.0236 35.7935 70.0236 35.8055L69.8789 36.3958C69.8789 36.427 69.903 36.5599 69.9518 36.8006L69.9159 37.0588C69.9484 37.1672 69.9724 37.278 69.9877 37.3903C69.9573 38.3976 69.8859 38.9012 69.7733 38.9012V39.0106C69.9959 39.0649 70.2134 39.139 70.4233 39.2322H70.568C70.6223 39.2322 70.7064 38.9741 70.8204 38.4581C71.0374 38.2552 71.1451 38.0954 71.1451 37.9789C71.0275 37.8899 70.9332 37.7727 70.8703 37.6378C70.8074 37.5028 70.778 37.3541 70.7845 37.2048V36.1354C70.8049 35.8633 70.8407 35.5926 70.8917 35.3247C70.8351 35.12 70.7992 34.9099 70.7845 34.6978V34.479C70.7845 34.1719 70.7965 33.8891 70.8204 33.6305C70.7984 33.4844 70.7864 33.3369 70.7845 33.1891C70.7845 33.0662 70.7965 32.8816 70.8204 32.6355C70.7965 32.3102 70.7845 31.9662 70.7845 31.6037C70.7845 31.5293 70.8086 31.2843 70.8574 30.8663C70.7859 30.0797 70.6654 29.6866 70.4957 29.6869H70.351C70.2185 29.6869 70.0743 30.1169 69.9185 30.9768C69.8837 30.9785 69.8596 31.0272 69.8414 31.1256L69.8425 31.1262ZM71.4313 39.1249V39.2343C71.4341 39.3046 71.4559 39.3727 71.4942 39.4312C71.5325 39.4897 71.5858 39.5363 71.6483 39.5658L71.6842 39.4915C71.6312 39.3363 71.5952 39.1755 71.577 39.0122H71.5411C71.5025 39.0139 71.4661 39.0505 71.4302 39.1249H71.4313ZM71.6483 40.5625L71.6113 40.6358C71.6113 40.8266 71.816 40.9863 72.2254 41.115V41.0056C72.2247 40.7412 72.032 40.5935 71.6472 40.5625H71.6483ZM71.8289 32.4527V32.5271C71.8342 32.5758 71.8594 32.6004 71.9007 32.6004H71.9736L72.0095 32.4161V32.2317H71.9377C71.8637 32.2564 71.8278 32.3297 71.8278 32.4527H71.8289ZM71.9361 31.0518V31.1262C71.9418 31.1751 71.9657 31.1995 72.0079 31.1995L72.0438 31.1262V31.0518H71.9361Z" fill="#19998C"/>
<path d="M77.8668 27.4766C78.1079 27.4754 78.3488 27.4876 78.5886 27.5133C78.8176 27.4889 79.1305 27.4766 79.5274 27.4766H79.6721C80.0091 27.5133 80.1785 27.6484 80.1785 27.8815L80.1415 28.324L80.2487 28.9876L80.1415 29.6145C80.1441 29.7259 80.1565 29.8368 80.1785 29.946C80.1538 30.2286 80.1415 30.4992 80.1415 30.7578C80.1458 30.8567 80.1582 30.9552 80.1785 31.0521L80.1415 31.237C80.1415 31.2671 80.1533 31.3901 80.1785 31.6051C80.1754 31.7165 80.163 31.8274 80.1415 31.9366C80.1656 32.2441 80.1785 32.429 80.1785 32.4891C80.1785 32.65 80.1656 32.895 80.1415 33.2265C80.1656 33.534 80.1785 33.8409 80.1785 34.1483C80.1736 34.1869 80.161 34.2242 80.1415 34.2577C80.1608 34.2913 80.1734 34.3285 80.1785 34.3671C80.1785 34.5513 80.1542 35.006 80.1056 35.7314L80.1785 36.7265C80.1565 36.8356 80.1442 36.9466 80.1415 37.058C80.1434 37.1453 80.1558 37.232 80.1785 37.3162C80.1785 38.1028 80.0459 38.4959 79.7809 38.4956C79.6126 38.4956 79.5279 38.5202 79.5279 38.5689C79.5279 38.6066 79.5767 38.6553 79.6726 38.7166L79.7455 38.6799H79.8173L80.5755 38.8643C80.762 38.8029 80.9582 38.778 81.1537 38.791H81.912C82.2488 38.791 82.4173 39.1227 82.4173 39.786V40.0048C82.4173 40.1033 82.4055 40.3243 82.3814 40.669L82.4173 40.8533C82.4173 41.6151 82.2488 41.9961 81.912 41.9961H81.875C81.6826 41.9961 81.5862 41.984 81.5862 41.9594C81.2254 41.9838 80.9606 41.9961 80.792 41.9961H76.6038C76.303 41.9961 76.1342 41.8115 76.0974 41.4425V40.3374C76.1059 40.1972 76.1462 40.0608 76.2152 39.9392C76.2842 39.8176 76.38 39.714 76.495 39.6367V39.4523C76.3862 39.3409 76.3109 39.2001 76.278 39.0464C76.3026 38.7401 76.315 38.5672 76.315 38.5306C76.2445 38.4182 76.1954 38.2933 76.1703 38.1624C76.1885 38.0166 76.4293 37.8198 76.8926 37.5722C76.9168 37.5269 76.9292 37.4761 76.9285 37.4245V37.3151L76.7479 37.2773C76.6316 37.3203 76.5097 37.3453 76.3862 37.3517C76.2176 37.3517 76.1213 36.9708 76.0974 36.209V34.9595C76.1071 34.7125 76.1314 34.4662 76.1703 34.2221C76.1279 33.9911 76.1035 33.7569 76.0974 33.5219V32.8972C76.0974 32.7929 76.1217 32.5227 76.1703 32.0865C76.1318 31.8919 76.1074 31.6946 76.0974 31.4963V29.5412C76.1067 29.3428 76.1311 29.1454 76.1703 28.9509C76.1281 28.7697 76.1037 28.5846 76.0974 28.3984V28.138C76.0862 28.0578 76.0935 27.9761 76.1186 27.8993C76.1437 27.8225 76.1859 27.7527 76.242 27.6954C76.2981 27.6381 76.3665 27.595 76.4417 27.5694C76.517 27.5437 76.597 27.5363 76.6756 27.5478H76.9285C77.5301 27.5004 77.8429 27.4766 77.8668 27.4766Z" fill="#19998C"/>
<path d="M91.6778 27.4395C92.1833 27.4395 92.4359 27.6358 92.4355 28.0286C92.3989 28.5384 92.2769 29.0379 92.0749 29.5056C92.0988 29.8495 92.1108 30.1442 92.1108 30.3896C91.9132 31.4626 91.7689 32.5451 91.6784 33.633L91.2448 36.1767C91.1608 36.2791 91.088 36.3907 91.0278 36.5093L91.1725 36.9141L91.0278 37.7248L91.0648 38.0563C91.0162 38.4126 90.8717 39.113 90.6313 40.1575C90.6446 40.3554 90.6686 40.5525 90.7031 40.7477C90.577 41.5832 90.3723 42.001 90.089 42.001H89.5108C89.3152 42.0142 89.1189 41.989 88.9326 41.9266C88.7317 41.9773 88.5255 42.0022 88.3185 42.001H87.9938C87.7864 41.983 87.5809 41.9464 87.3797 41.8916H87.3438C87.0309 41.9645 86.8624 42.001 86.8385 42.001H85.0702C84.6854 42.001 84.4927 41.6445 84.492 40.9315C84.5166 40.6551 84.529 40.3356 84.529 39.9731C84.3121 39.4171 84.1664 38.8348 84.0955 38.2407C83.8543 36.6725 83.6859 35.4807 83.5901 34.6652C83.5607 34.2409 83.488 33.8209 83.3731 33.412C83.3666 33.067 83.3426 32.7227 83.3013 32.3803C83.3013 32.1961 83.506 32.0238 83.9154 31.8633L83.9513 31.79V31.7534H83.9154C83.8105 31.7914 83.7015 31.816 83.5907 31.8267H83.5537C83.145 31.8267 82.9407 31.4089 82.9407 30.5734C82.7567 29.8385 82.6597 29.0836 82.6519 28.3251C82.6519 27.7846 82.7964 27.5144 83.0854 27.5144H83.2997C83.6479 27.5164 83.992 27.5918 84.3103 27.7359C84.7141 27.5802 85.1434 27.505 85.5749 27.5144H86.0803C86.6097 27.5144 86.8744 27.8587 86.8744 28.5472C86.9701 29.6467 87.1023 30.8632 87.2709 32.1965C87.2949 32.6706 87.3072 33.0881 87.3079 33.4492C87.2442 33.6036 87.1957 33.7641 87.1632 33.9284C87.2893 34.2854 87.3976 34.47 87.488 34.482L87.5239 34.4076V34.1127C87.8129 32.0548 87.9813 30.5805 88.0292 29.69V28.9504C88.0595 28.0164 88.1801 27.5494 88.3909 27.5494L88.6052 27.5128C88.9357 27.5624 89.1161 27.5872 89.1464 27.5872C89.3008 27.5502 89.4577 27.5254 89.6158 27.5128C89.7702 27.5497 89.9272 27.5745 90.0852 27.5872L91.6778 27.4395ZM90.5943 29.9832C90.6076 30.0398 90.6404 30.0896 90.6868 30.1234C90.7332 30.1573 90.7899 30.1729 90.8467 30.1675H90.8837C90.9196 30.1675 90.9673 30.1188 91.0273 30.0198V29.9454C91.0071 29.8958 90.9714 29.8543 90.9258 29.8276C90.8801 29.8009 90.827 29.7904 90.7749 29.7977C90.7085 29.7983 90.6479 29.8601 90.5943 29.9854V29.9832Z" fill="#19998C"/>
<path d="M94.0246 27.4763H95.8664C96.1196 27.4751 96.3727 27.4873 96.6246 27.5129C96.8641 27.4821 97.1056 27.4698 97.347 27.4763C97.6121 27.4733 97.8773 27.4856 98.1411 27.5129C98.4288 27.4836 98.7179 27.4714 99.007 27.4763H99.1517C99.7058 27.4763 99.9828 27.6482 99.9828 27.9921V30.3148C99.9525 30.5603 99.8319 30.683 99.6211 30.683H97.9964C97.7131 30.683 97.5447 30.8675 97.4911 31.2366C97.25 31.3825 97.1294 31.5174 97.1294 31.6414V31.7508C97.1879 31.7443 97.247 31.7513 97.3025 31.7712C97.358 31.7912 97.4084 31.8236 97.45 31.8661C97.4916 31.9085 97.5233 31.96 97.5429 32.0166C97.5624 32.0733 97.5693 32.1336 97.5629 32.1934V32.672C97.5811 32.9182 97.6413 33.0413 97.7435 33.0413C98.0804 33.0168 98.3694 33.0046 98.6105 33.0046C99.3807 33.0469 99.7658 33.1198 99.7658 33.2234C99.8037 33.3049 99.8283 33.3921 99.8387 33.4816L99.7315 34.0708C99.8242 34.4943 99.8727 34.9267 99.8762 35.3607C99.8762 35.853 99.6954 36.0988 99.3339 36.0981H99.1549C98.9619 36.1018 98.7689 36.0895 98.5778 36.0614C97.9034 36.0614 97.5661 36.1964 97.5661 36.4662V38.3809C97.5661 38.6515 97.6744 38.7868 97.8909 38.7868H99.8773C100.118 38.7868 100.262 39.0079 100.311 39.4503C100.27 39.6445 100.245 39.842 100.238 40.0406C100.286 40.3354 100.311 40.5077 100.311 40.5564C100.301 40.7182 100.277 40.8786 100.238 41.0356L100.311 41.4782C100.245 41.7976 100.112 41.9574 99.9132 41.9574H99.4765C99.2333 41.9417 98.9918 41.9051 98.7547 41.848C98.5567 41.9167 98.3496 41.9536 98.1406 41.9574H97.96C97.7071 41.9574 97.3218 41.9696 96.8041 41.994V41.9574L96.7323 41.994C96.5634 41.9915 96.3946 41.9793 96.227 41.9574C95.9794 41.9818 95.835 41.994 95.7935 41.994C95.6844 41.9914 95.5758 41.9791 95.4688 41.9574C95.0765 41.982 94.7288 41.994 94.4212 41.994H93.9159C93.6269 41.994 93.4824 41.6868 93.4824 41.0723C93.4955 40.7627 93.5313 40.4546 93.5895 40.1505C93.5431 39.9826 93.5186 39.8091 93.5167 39.6347V37.7545C93.5186 37.58 93.5431 37.4066 93.5895 37.2387C93.5438 37.0205 93.5194 36.7982 93.5167 36.5751V34.8793C93.5348 34.6676 93.5707 34.4579 93.6238 34.2524V34.2157C93.5878 34.0524 93.5394 33.8922 93.4791 33.7365C93.5031 32.9134 93.5388 32.2501 93.5863 31.7464V31.7098C93.5377 31.2918 93.5134 31.0583 93.5134 31.009V29.282C93.5128 29.1584 93.5007 29.0352 93.4775 28.9139C93.5033 28.8054 93.5154 28.694 93.5134 28.5824V28.0665C93.5174 27.6727 93.6878 27.4759 94.0246 27.4763Z" fill="#19998C"/>
<path d="M104.659 26.9238H104.695C106.477 26.9238 107.668 27.1324 108.27 27.5496C108.968 28.0164 109.317 28.3851 109.317 28.6557C109.617 29.5817 109.739 30.5578 109.678 31.531C109.651 31.6115 109.608 31.6857 109.552 31.7492C109.496 31.8126 109.429 31.864 109.353 31.9002C108.908 31.8758 108.583 31.8632 108.378 31.8625H107.404C107.091 31.8625 106.682 31.875 106.176 31.9002C106.069 31.9002 105.949 31.7897 105.815 31.5687C105.839 31.2368 105.851 30.991 105.851 30.8313V29.9462C105.827 29.8895 105.786 29.8416 105.735 29.8087C105.683 29.7758 105.623 29.7595 105.563 29.7618H105.524C105.241 29.7618 105.072 30.0691 105.018 30.6836C105.125 31.3966 105.245 31.7531 105.379 31.7531C105.933 32.318 106.366 32.6004 106.679 32.6004C107.455 33.1094 108.202 33.6632 108.917 34.259C109.227 34.6446 109.472 35.0811 109.639 35.55C109.774 35.8917 109.859 36.2516 109.892 36.6184L109.855 36.8399L109.928 38.056C109.838 39.6909 109.573 40.6001 109.134 40.7835C108.743 41.082 108.333 41.3528 107.906 41.5942C107.382 41.834 106.819 41.9717 106.245 42.0001H105.704C105.615 42.0035 105.527 41.981 105.45 41.9353C105.374 41.8896 105.311 41.8225 105.27 41.7419V41.7053C105.27 41.3858 105.463 41.2016 105.849 41.1528V41.0051C105.849 40.9673 105.813 40.9307 105.741 40.8956H105.706C105.488 40.8956 105.236 41.1781 104.947 41.743C104.845 41.8296 104.719 41.8813 104.587 41.8907C103.891 41.8173 103.228 41.5494 102.672 41.1167C102.163 40.7922 101.78 40.2974 101.589 39.7168C101.473 39.2935 101.389 38.8619 101.336 38.4258L101.372 37.9843C101.331 37.8026 101.307 37.6172 101.3 37.4307V36.8782C101.3 36.4114 101.541 36.1778 102.022 36.1775H102.672C102.975 36.1886 103.277 36.2252 103.575 36.2869L104.261 36.1775C104.814 36.2026 105.091 36.3372 105.091 36.5834C105.096 36.5826 105.101 36.5831 105.106 36.5847C105.111 36.5862 105.115 36.5889 105.118 36.5925C105.122 36.596 105.125 36.6004 105.126 36.6052C105.128 36.61 105.128 36.615 105.127 36.62C105.103 36.9641 105.091 37.1857 105.091 37.2836C105.091 37.4295 105.103 37.6875 105.127 38.0576C105.106 38.1669 105.094 38.2778 105.091 38.3891C105.115 38.9052 105.224 39.1632 105.416 39.1632H105.597C105.934 39.0775 106.102 38.758 106.102 38.2048V38.0571C106.09 37.5578 105.94 37.0721 105.67 36.6561C105.67 36.6317 104.55 35.833 102.311 34.2601C101.778 33.6296 101.417 32.8671 101.263 32.049C101.242 31.6772 101.193 31.3075 101.119 30.9429C101.287 29.5356 101.528 28.6264 101.841 28.2154C102.241 27.7729 102.736 27.4318 103.288 27.2192C103.726 27.0439 104.189 26.944 104.659 26.9238Z" fill="#19998C"/>
</svg>