<svg width="200" height="109" viewBox="0 0 200 109" fill="none" xmlns="http://www.w3.org/2000/svg">
<path d="M49.5779 74.4782C67.732 74.4782 82.4488 59.7426 82.4488 41.5653C82.4488 23.388 67.732 8.65234 49.5779 8.65234C31.4238 8.65234 16.707 23.388 16.707 41.5653C16.707 59.7426 31.4238 74.4782 49.5779 74.4782Z" fill="#615346" stroke="#201E1C" stroke-width="2" stroke-miterlimit="10"/>
<path fill-rule="evenodd" clip-rule="evenodd" d="M56.231 13.0775L56.2394 13.0639C56.6892 12.3339 57.1533 11.614 57.6596 10.9211C59.2487 8.74619 61.0639 6.73941 62.8318 4.70897L66.0791 0.984375L67.6824 5.66124C68.5367 8.00174 69.1933 10.4099 69.6453 12.8603C70.0718 15.6156 70.2899 18.3992 70.2976 21.1874C70.3157 22.731 70.2506 24.2744 70.1027 25.811L70.0352 26.5081L72.5533 29.0168L76.0664 32.5166L72.9921 33.3422L75.8073 37.0076L78.9204 41.0634L75.5297 41.4175L75.9786 41.8678L74.1795 43.8805C73.6299 44.546 72.9849 45.1263 72.2656 45.6026C72.5868 47.3502 72.7694 49.1206 72.8115 50.8971C72.8259 52.512 72.7332 54.126 72.5339 55.7286L71.7744 62.7494L70.1348 60.6369C68.2715 65.5639 67.3601 73.0046 65.1736 78.1133C64.1609 76.8771 60.128 75.5328 59.1153 74.2974C59.4422 75.3114 59.7699 76.3234 60.0985 77.3334C59.1533 78.0423 58.209 78.7512 57.4504 79.4356C56.7615 80.0678 56.1246 80.7544 55.5457 81.4889C54.9727 82.1953 54.3989 82.9456 53.8267 83.6942L52.6774 83.1239C51.7823 84.5778 50.8875 86.0309 49.993 87.4831C48.9873 85.9886 47.9036 84.5482 46.7466 83.1678C45.6833 81.9621 44.6461 81.1061 43.771 80.164C42.9344 79.2216 42.1667 78.22 41.474 77.1669C40.7449 77.4027 36.1651 77.3706 35.4352 77.6046C33.2757 73.7719 34.0191 70.719 32.7575 66.4249C32.2512 64.7012 30.9744 63.3028 30.2622 61.6501C30.1176 61.3166 29.9806 60.9786 29.8512 60.6361L28.2116 62.7485L27.4521 55.7277C27.254 54.125 27.1613 52.5111 27.1744 50.8962C27.2172 49.1198 27.3998 47.3494 27.7204 45.6017C27.0013 45.1251 26.3564 44.5449 25.8065 43.8797L24.0082 41.8695L24.4571 41.4192L21.0664 41.0651L24.1795 37.0093L26.993 33.3439L23.9187 32.5183L27.4318 29.0185C28.2717 28.1826 29.1111 27.3463 29.9499 26.5098L29.8833 25.8127C29.7345 24.2762 29.6691 22.7327 29.6875 21.1891C29.6952 18.4008 29.9138 15.6172 30.3415 12.862C30.793 10.4116 31.449 8.00347 32.3027 5.66293L33.9061 0.986067L37.1533 4.71066C38.9255 6.73856 40.7364 8.74788 42.3272 10.9228C42.8335 11.6148 43.2976 12.3356 43.7474 13.0656L43.755 13.0792H43.7753C44.9094 12.9769 46.0487 12.9321 47.1862 12.9102C48.1289 12.8916 49.0723 12.8992 49.971 12.9102C50.9128 12.8949 51.8571 12.8873 52.7997 12.9102C53.9373 12.9338 55.0782 12.9794 56.209 13.0792H56.2293L56.231 13.0775Z" fill="#201E1C"/>
<path fill-rule="evenodd" clip-rule="evenodd" d="M39.3192 19.0908L32.7226 25.5387C32.5721 24.1049 32.5112 22.6631 32.5403 21.2218C32.561 18.5788 32.7666 15.9406 33.1555 13.3265C33.5707 11.0301 34.1883 8.77507 35.0011 6.58789C36.9243 8.79577 38.8483 11.0037 40.0213 12.6074C41.1943 14.2111 41.6171 15.2141 42.0998 15.6611C42.5825 16.1081 43.1285 15.9991 44.0298 15.9205C44.931 15.8419 46.1893 15.7819 47.2433 15.7608C48.2973 15.7397 49.1445 15.7506 49.9926 15.7608C50.8365 15.7481 51.6888 15.7354 52.7412 15.7608C53.7935 15.7861 55.0534 15.8385 55.9547 15.9205C56.8559 16.0024 57.4019 16.1081 57.8846 15.6611C58.3673 15.2141 58.7901 14.212 59.9631 12.6074C61.1361 11.0028 63.0593 8.79577 64.9842 6.58789C65.7959 8.77544 66.4134 11.0304 66.8298 13.3265C67.2175 15.9408 67.423 18.5789 67.445 21.2218C67.4737 22.6632 67.4123 24.105 67.261 25.5387L60.6644 19.0908L64.6703 12.0134C62.6551 14.3979 60.6393 16.7829 58.623 19.1685L70.5403 31.0419L68.1251 31.69C69.9316 34.0429 71.7378 36.3956 73.5437 38.748C72.8202 38.8657 72.0824 38.8657 71.3589 38.748C70.6769 38.5451 70.0347 38.2267 69.4602 37.8067C69.7669 38.6488 70.1438 39.4637 70.5867 40.2427C71.0054 40.8754 71.4974 41.4563 72.0526 41.9732C71.6517 42.4829 71.164 42.9177 70.6121 43.2575C70.0248 43.5159 69.396 43.6667 68.7555 43.7028C69.0852 44.4745 69.3215 45.283 69.4593 46.1109C69.7427 47.714 69.9102 49.3355 69.9606 50.9627C69.9758 52.4527 69.8882 53.942 69.6981 55.4199L68.6011 54.0037C68.5899 54.875 68.5024 55.7435 68.3395 56.5994C67.5285 60.7583 63.4838 69.491 61.8374 74.1138L60.7133 72.685C60.7583 71.1404 60.8022 69.5964 60.845 68.0529C59.5465 70.0442 58.2469 72.0358 56.9462 74.0276C57.1336 75.0145 57.3212 76.002 57.5091 76.9901L53.1116 79.0391C53.6624 77.165 54.2135 75.2897 54.7648 73.4133C55.9828 71.715 57.2005 70.016 58.418 68.3165C58.5437 68.1399 58.6711 67.9642 58.796 67.7893L54.9631 70.5692L54.7943 65.6608L56.6804 61.5687L53.7369 65.4884L53.8551 68.6672C53.4528 69.1911 53.0506 69.7147 52.6483 70.238C51.4815 68.8922 50.3139 67.5465 49.1454 66.2007C49.0374 63.8349 48.9288 61.469 48.8197 59.1031C48.1355 61.9557 47.4509 64.8083 46.7656 67.6608L52.0534 73.2849L52.0247 73.3694L51.996 73.4488L51.9673 73.5283L51.9386 73.6077L51.9099 73.6922L51.8813 73.7716L51.8526 73.851L51.8239 73.9305L51.7952 74.0149L51.7665 74.0944L51.7378 74.1738L51.7091 74.2532L51.6804 74.3377L51.6517 74.4172L51.623 74.4966L51.5943 74.576L51.5656 74.6605L51.5369 74.7399L51.5083 74.8194L51.4796 74.8988L51.4509 74.9833L51.4222 75.0627L51.4095 75.0965L50.2078 78.4062C49.8331 77.7866 49.4585 77.1689 49.0838 76.5532C49.047 77.2597 49.0656 77.968 49.1395 78.6715C49.2391 79.7303 49.4585 81.3188 49.6787 82.9073C49.2729 82.1752 48.8184 81.4712 48.3184 80.8C47.9499 80.3352 47.5064 79.9354 47.0061 79.617C46.4133 79.2863 45.927 78.7929 45.6045 78.195C44.9876 77.2131 44.1268 75.4269 43.2686 73.6389L43.6061 71.7699C43.9229 69.9887 44.241 68.2075 44.5606 66.4263L39.0416 60.9341L42.1496 66.0478C41.3552 68.47 40.562 70.8908 39.7699 73.3102C37.65 69.4868 34.6551 64.6266 32.8939 60.5513C32.3474 59.2919 31.9347 57.9783 31.6627 56.6324C31.5004 55.7764 31.4129 54.9079 31.4011 54.0367L30.304 55.4528C30.114 53.9749 30.0263 52.4857 30.0416 50.9957C30.0913 49.3684 30.2589 47.7469 30.5429 46.1439C30.6799 45.3159 30.9159 44.5074 31.2458 43.7358C30.6054 43.6996 29.9766 43.5488 29.3893 43.2905C28.8378 42.9503 28.3505 42.5155 27.9496 42.0061C28.5048 41.4896 28.9966 40.9087 29.4146 40.2756C29.8525 39.4853 30.2224 38.6591 30.5201 37.8058C29.9456 38.2261 29.3034 38.5445 28.6213 38.7471C27.8978 38.8649 27.16 38.8649 26.4365 38.7471L31.8551 31.6892L29.4399 31.0411L41.3606 19.1685L35.315 12.0134C36.6489 14.3725 37.9836 16.7316 39.3192 19.0908Z" fill="#E1E2E3"/>
<path fill-rule="evenodd" clip-rule="evenodd" d="M60.8393 68.0508C59.5408 70.0421 58.2413 72.0336 56.9406 74.0255C57.1279 75.0124 57.3155 75.9999 57.5034 76.9879L53.106 79.037L56.9878 76.7928L56.2849 74.0044L60.8376 68.0542L60.8393 68.0508Z" fill="#ADAFB1"/>
<path fill-rule="evenodd" clip-rule="evenodd" d="M39.3193 19.0911L32.7227 25.539L37.8003 18.7877L35.3151 12.0137C36.649 14.3728 37.9837 16.7319 39.3193 19.0911Z" fill="#ADAFB1"/>
<path fill-rule="evenodd" clip-rule="evenodd" d="M61.8306 74.1117L60.7065 72.6829C60.7515 71.1383 60.7954 69.5942 60.8382 68.0508L61.0331 72.622L61.8306 74.1125V74.1117Z" fill="#ADAFB1"/>
<path fill-rule="evenodd" clip-rule="evenodd" d="M52.0484 73.2793L52.0197 73.3638L51.991 73.4432L51.9623 73.5226L51.9337 73.6021L51.905 73.6866L51.8763 73.766L51.8476 73.8454L51.8189 73.9248L51.7902 74.0093L51.7615 74.0888L51.7328 74.1682L51.7041 74.2476L51.6754 74.3321L51.6467 74.4115L51.618 74.491L51.5894 74.5704L51.5607 74.6549L51.532 74.7343L51.5033 74.8137L51.4746 74.8932L51.4459 74.9777L51.4172 75.0571L51.4045 75.0909L50.1978 78.3753C49.8231 77.7556 49.4484 77.1379 49.0737 76.5223L50.002 77.172L52.051 73.2793H52.0484Z" fill="#ADAFB1"/>
<path fill-rule="evenodd" clip-rule="evenodd" d="M53.8499 68.6657C53.4476 69.1896 53.0454 69.7131 52.6431 70.2365C51.4763 68.8907 50.3087 67.545 49.1402 66.1992C49.0322 63.8333 48.9236 61.4675 48.8145 59.1016L49.898 65.8883L52.709 69.2572L53.849 68.6657H53.8499Z" fill="#ADAFB1"/>
<path fill-rule="evenodd" clip-rule="evenodd" d="M39.0276 60.9043L42.1356 66.018C41.3413 68.4402 40.548 70.861 39.7559 73.2805C38.8648 71.675 37.82 69.8854 36.7778 68.0476L36.8234 67.991L39.2648 70.0299L41.0724 66.3121L39.0285 60.9043H39.0276Z" fill="#ADAFB1"/>
<path fill-rule="evenodd" clip-rule="evenodd" d="M44.7313 37.7623C44.7313 36.9731 44.7313 36.1822 44.6664 35.5831C44.6442 35.1123 44.4986 34.6557 44.2444 34.2591C43.9945 33.9209 43.6272 33.6888 43.2149 33.6084C42.6833 33.512 42.1449 33.4577 41.6048 33.4462C41.1178 33.4149 40.7904 33.3668 40.4604 33.3203C40.5322 33.8749 40.7071 34.4111 40.9761 34.9012C41.2499 35.2853 41.645 35.5657 42.0976 35.6972C42.4908 35.818 42.836 35.8028 43.1828 35.9363C43.5601 36.0981 43.8896 36.3541 44.1398 36.6799C44.3809 37.0147 44.5793 37.3783 44.7305 37.7623H44.7313Z" fill="#201E1C"/>
<path fill-rule="evenodd" clip-rule="evenodd" d="M49.9919 45.9946C49.2505 45.9684 48.5097 46.0614 47.7978 46.2701C47.0675 46.4984 46.4453 46.9853 46.0476 47.6397C45.8904 47.9923 45.8058 48.3729 45.7988 48.759C45.7918 49.145 45.8627 49.5285 46.007 49.8865C46.2833 50.7096 46.7128 51.4728 47.2729 52.1358C47.6396 52.5833 48.132 52.9103 48.6864 53.0745C49.5425 53.2524 50.426 53.2524 51.2821 53.0745C51.8367 52.9106 52.3292 52.5835 52.6957 52.1358C53.257 51.4729 53.6882 50.7097 53.9665 49.8865C54.1108 49.5284 54.1815 49.1449 54.1744 48.7589C54.1673 48.3729 54.0825 47.9922 53.9252 47.6397C53.5278 46.9851 52.9055 46.4981 52.175 46.2701C51.463 46.0613 50.7223 45.9683 49.9809 45.9946H49.9919Z" fill="#201E1C"/>
<path fill-rule="evenodd" clip-rule="evenodd" d="M55.2501 37.7623C55.2501 36.9731 55.2501 36.1822 55.3151 35.5831C55.3385 35.1126 55.4839 34.6562 55.737 34.2591C55.9878 33.9211 56.3556 33.6891 56.7682 33.6084C57.2998 33.5119 57.8382 33.4576 58.3784 33.4462C58.8636 33.4149 59.1927 33.3668 59.521 33.3203C59.4492 33.8749 59.2743 34.4111 59.0054 34.9012C58.7322 35.2852 58.3376 35.5656 57.8855 35.6972C57.4906 35.818 57.1471 35.8028 56.8003 35.9363C56.4228 36.0978 56.0933 36.3538 55.8433 36.6799C55.601 37.0147 55.4009 37.3783 55.2476 37.7623H55.2501Z" fill="#201E1C"/>
<path fill-rule="evenodd" clip-rule="evenodd" d="M49.9917 54.1832C48.5878 54.2897 47.1789 54.3137 45.7722 54.255C45.4384 54.2579 45.1082 54.1852 44.8063 54.0424C44.5044 53.8996 44.2386 53.6904 44.0288 53.4303C43.5622 52.916 43.1572 52.3488 42.822 51.7404C42.5701 51.2994 42.4563 50.7928 42.4955 50.2862C42.5617 49.7928 42.6913 49.31 42.8811 48.8498C43.071 48.3251 43.2938 47.7361 43.5638 47.1252C43.8659 46.5276 44.109 45.9019 44.2895 45.257C44.3965 44.634 44.4138 43.9989 44.341 43.371C44.2065 44.0968 43.9626 44.798 43.6178 45.4505C43.111 46.2563 42.5316 47.014 41.887 47.7141C41.5275 47.2621 41.168 46.81 40.6271 46.1848C40.0862 45.5595 39.3672 44.761 38.7655 44.1383C38.2673 43.6622 37.7954 43.1593 37.352 42.6317C37.0295 42.2102 36.8358 41.7043 36.7942 41.175C36.755 40.4877 36.7694 39.7984 36.8372 39.1133C36.4922 39.8407 36.2703 40.6206 36.1807 41.4209C36.097 42.5711 36.2699 43.7257 36.687 44.8007C37.2877 46.2003 38.0288 47.5351 38.8988 48.7847C39.8153 50.2059 40.822 51.7421 41.471 52.827C41.9092 53.6586 42.3987 54.462 42.9368 55.2326C43.5146 55.956 44.2064 56.5802 44.9849 57.0805C45.6833 57.5122 46.466 57.7891 47.2803 57.8926C49.0791 58.1318 50.9017 58.1318 52.7005 57.8926C53.5148 57.7894 54.2976 57.5125 54.9959 57.0805C55.7746 56.5805 56.4665 55.9563 57.044 55.2326C57.5822 54.4618 58.0723 53.6584 58.5115 52.827C59.1587 51.7395 60.1672 50.2076 61.0828 48.7847C61.9526 47.5348 62.6939 46.2 63.2955 44.8007C63.7119 43.7255 63.8849 42.5711 63.8018 41.4209C63.7127 40.6207 63.4914 39.8408 63.1469 39.1133C63.2144 39.7973 63.228 40.4855 63.1874 41.1716C63.1461 41.7008 62.9527 42.2068 62.6305 42.6283C62.1864 43.1556 61.7142 43.6585 61.2161 44.1349C60.6136 44.7576 59.8946 45.5561 59.3545 46.1814C58.8144 46.8067 58.4558 47.2587 58.0946 47.7108C57.4508 47.01 56.8715 46.2523 56.3638 45.4471C56.019 44.7946 55.7752 44.0935 55.6406 43.3677C55.5684 43.9956 55.5863 44.6307 55.6938 45.2536C55.8738 45.8985 56.1163 46.5242 56.4178 47.1218C56.6879 47.7327 56.9106 48.3217 57.1005 48.8464C57.2903 49.3066 57.4199 49.7894 57.4862 50.2828C57.5259 50.7894 57.4121 51.2962 57.1596 51.737C56.8243 52.3451 56.4196 52.9123 55.9537 53.4269C55.7434 53.6869 55.4773 53.8961 55.1752 54.0389C54.873 54.1817 54.5426 54.2544 54.2085 54.2516C52.8036 54.3102 51.3964 54.2862 49.9942 54.1798L49.9917 54.1832ZM47.622 56.751C47.1363 56.6768 46.6883 56.445 46.3469 56.0911C46.1128 55.9006 45.9404 55.6447 45.8516 55.356C45.8516 55.2064 46.0651 55.209 46.7908 55.1963C47.5166 55.1836 48.7537 55.1549 49.9917 55.1262C51.2288 55.1549 52.4668 55.1828 53.1925 55.1963C53.9182 55.2098 54.1292 55.2064 54.1317 55.356C54.0419 55.6444 53.8694 55.9001 53.6355 56.0911C53.292 56.4421 52.8451 56.6734 52.3604 56.751C50.7835 56.8769 49.199 56.8769 47.622 56.751Z" fill="#201E1C"/>
<path fill-rule="evenodd" clip-rule="evenodd" d="M60.6626 19.0911L67.2567 25.539L62.1791 18.7877L64.666 12.0137L60.6626 19.0911Z" fill="#ADAFB1"/>
<path d="M60.7293 26.1914H39.8306V28.0588H60.7293V26.1914Z" fill="#201E1C"/>
<path fill-rule="evenodd" clip-rule="evenodd" d="M39.8306 26.904C23.7673 25.7083 27.6787 43.9722 38.2753 42.3262C46.1066 41.112 54.6213 28.0041 39.8306 26.904Z" fill="white"/>
<path fill-rule="evenodd" clip-rule="evenodd" d="M39.7785 27.626C34.8291 27.2567 31.9304 28.8005 30.6207 30.9898C29.985 32.077 29.6873 33.3293 29.7658 34.5868C29.8386 35.885 30.233 37.1447 30.9135 38.2522C31.6384 39.4832 32.7206 40.4639 34.0161 41.0636C35.3116 41.6633 36.7588 41.8537 38.165 41.6092C41.235 41.1335 44.4283 38.6865 46.089 35.926C46.682 34.9932 47.057 33.9384 47.1861 32.8402C47.2887 31.9143 47.0435 30.9833 46.4983 30.2285C45.5076 28.8875 43.4072 27.893 39.7768 27.6243L39.7785 27.626ZM29.381 30.2454C30.9498 27.626 34.2915 25.7628 39.8814 26.1794C43.9835 26.4844 46.4316 27.7062 47.6595 29.3683C48.4183 30.4032 48.7641 31.6844 48.6291 32.9611C48.4829 34.2816 48.0385 35.5515 47.3295 36.6747C45.473 39.7605 41.8721 42.4981 38.3844 43.0381C36.6963 43.3313 34.9591 43.1026 33.4041 42.3826C31.849 41.6626 30.5499 40.4853 29.6797 39.0076C28.8734 37.6924 28.4067 36.1969 28.3219 34.656C28.2299 33.1137 28.5986 31.5788 29.381 30.247V30.2454Z" fill="#201E1C"/>
<path fill-rule="evenodd" clip-rule="evenodd" d="M60.1514 26.904C76.2147 25.7083 72.3033 43.9722 61.7066 42.3262C53.878 41.112 45.3598 28.0041 60.1514 26.904Z" fill="white"/>
<path fill-rule="evenodd" clip-rule="evenodd" d="M60.1008 26.1814C65.689 25.7648 69.0308 27.6255 70.6012 30.2474C71.3832 31.5796 71.7513 33.1147 71.6586 34.6572C71.5748 36.1982 71.1084 37.6938 70.3017 39.0088C69.4313 40.4867 68.1319 41.6641 66.5765 42.3841C65.0212 43.1042 63.2836 43.3327 61.5953 43.0392C58.1101 42.4993 54.5067 39.7616 52.6502 36.6758C51.9407 35.5528 51.4957 34.2829 51.3489 32.9622C51.214 31.6855 51.5597 30.4043 52.3185 29.3695C53.5481 27.7074 55.9945 26.4856 60.0983 26.1806L60.1008 26.1814ZM69.3616 30.9901C68.0519 28.8008 65.154 27.2579 60.2029 27.6263C56.5742 27.8958 54.4721 28.8937 53.4814 30.2305C52.9362 30.9853 52.6916 31.9165 52.7953 32.8422C52.9232 33.9407 53.2983 34.9958 53.8924 35.928C55.5523 38.6885 58.7464 41.1355 61.8164 41.6113C63.2225 41.8556 64.6696 41.6652 65.9649 41.0655C67.2602 40.4658 68.3423 39.4852 69.0671 38.2542C69.7486 37.1472 70.1431 35.8872 70.2147 34.5888C70.2934 33.331 69.9964 32.0783 69.3616 30.9901Z" fill="#201E1C"/>
<path fill-rule="evenodd" clip-rule="evenodd" d="M39.5464 28.5325C26.8662 27.5912 29.9523 42.0037 38.3194 40.7067C44.5008 39.7494 51.2224 29.4011 39.5464 28.5325Z" fill="#201E1C"/>
<path fill-rule="evenodd" clip-rule="evenodd" d="M60.4395 28.5327C73.1197 27.5889 70.0336 42.0031 61.6682 40.7069C55.4817 39.7496 48.7593 29.4014 60.4395 28.5327Z" fill="#201E1C"/>
<path fill-rule="evenodd" clip-rule="evenodd" d="M39.5465 28.5323C38.8256 28.4757 38.1014 28.4737 37.3802 28.5264L31.0781 35.1171C31.2684 36.5749 31.9268 37.9314 32.9541 38.9819L42.4587 29.0427C41.5101 28.7658 40.5336 28.5958 39.5473 28.5357L39.5465 28.5323ZM34.3684 40.0534L44.1634 29.809C44.9555 30.2802 45.5418 31.0324 45.8055 31.9164L37.3245 40.7885C36.2923 40.8032 35.2738 40.55 34.3684 40.0534Z" fill="#19998C"/>
<path fill-rule="evenodd" clip-rule="evenodd" d="M61.6884 28.4901C63.2712 28.4444 64.8384 28.8141 66.2344 29.5624L57.4707 38.7285C56.403 37.8845 55.5086 36.8415 54.8369 35.6571L61.6884 28.4909V28.4901ZM67.6099 30.6726L58.9534 39.7289C59.7922 40.2126 60.7099 40.5438 61.6639 40.7074H61.6724L68.8513 33.1974C68.6746 32.2584 68.2454 31.3854 67.6099 30.6726Z" fill="#19998C"/>
<path fill-rule="evenodd" clip-rule="evenodd" d="M47.4307 30.9571C48.227 30.5601 49.1048 30.3541 49.9944 30.3555C50.8812 30.3684 51.7542 30.5779 52.5505 30.9689L51.9648 32.4746C51.3548 32.1521 50.6781 31.9762 49.9885 31.9609C49.2502 31.9665 48.5259 32.1626 47.8855 32.5304L47.4307 30.9571Z" fill="#201E1C"/>
<path d="M73.0767 49.666C73.0767 49.666 71.226 48.342 68.5054 53.6838C65.7847 59.0257 62.3805 65.6341 61.9273 67.0477C61.6922 67.7454 61.7302 68.5064 62.0338 69.177C62.3374 69.8477 62.8838 70.378 63.5627 70.6608C65.129 71.499 66.6784 72.8273 68.3914 71.1771L70.1054 69.5269C70.3471 69.7427 70.6292 69.9084 70.9354 70.0142C71.2416 70.1201 71.5657 70.164 71.8889 70.1435C72.2122 70.123 72.5282 70.0384 72.8185 69.8947C73.1089 69.751 73.3679 69.551 73.5805 69.3063C75.2404 67.4998 77.8227 62.0633 78.6438 60.3709C79.4649 58.6784 79.1501 57.0628 77.8708 55.3949C77.8708 55.3949 78.4201 52.9166 77.1265 51.9221C77.4961 47.6356 76.0919 47.802 75.4868 47.4649C74.2885 46.8016 73.0767 49.666 73.0767 49.666Z" fill="#201E1C"/>
<path d="M65.3933 62.0563C65.3933 62.0563 69.9696 53.3109 70.9418 52.2353C71.9139 51.1597 72.454 51.0836 73.6912 51.4512C74.9283 51.8187 77.1384 53.1031 77.0017 54.3139C76.865 55.5247 76.8245 56.2674 77.4177 57.0279C78.011 57.7884 77.9241 59.6473 76.892 61.9523C75.8599 64.2574 74.2456 67.1514 73.2236 68.1045C72.2017 69.0576 73.0034 67.7209 73.1038 67.5925C74.0758 65.9944 74.9223 64.3231 75.6355 62.5937C76.0186 61.2831 74.5384 63.72 74.3089 63.9355C74.0793 64.1509 75.2684 61.4665 75.4169 60.7457C75.5065 59.9146 75.5282 59.0776 75.4819 58.243C75.4819 58.243 73.3671 63.5907 72.5814 65.0432C72.2317 65.7275 71.833 66.3855 71.3882 67.012C71.3882 67.012 70.8962 67.2105 71.108 66.7289C71.3198 66.2473 73.8878 60.8818 74.2414 59.7157C74.595 58.5497 74.9266 57.1166 74.9266 57.1166C74.9266 57.1166 74.611 56.826 74.1021 57.6591C73.5933 58.4922 73.1857 59.1978 73.1857 59.1978C73.1857 59.1978 73.2987 57.1935 73.8608 56.4821C74.4228 55.7706 72.3595 57.7123 72.3595 57.7123C72.1308 58.5974 71.6535 59.3983 70.984 60.0199C71.3161 58.8889 71.566 57.7354 71.7317 56.5683C71.8262 55.3853 70.6236 55.0262 69.4118 56.5404C68.2 58.0545 64.8 64.0005 64.4582 65.8442C64.1165 67.6879 63.7469 68.0259 63.9393 68.3656C63.5884 67.4561 63.5311 66.4593 63.7755 65.5155C64.2334 64.326 64.7739 63.1701 65.3933 62.0563Z" fill="#19998C"/>
<path d="M73.0761 49.6663C73.0761 49.6663 73.3554 47.0545 72.2803 45.4846L74.952 42.8398C74.952 42.8398 77.4718 45.0739 77.1258 51.9223L73.0761 49.6663Z" fill="#201E1C"/>
<path d="M72.7163 45.3101L74.4885 43.5078C75.2941 44.6193 75.8308 45.9031 76.0564 47.2578C76.1882 47.9979 76.2756 48.7454 76.318 49.4961C76.2125 48.5011 75.9785 47.524 75.6218 46.5894C75.1872 45.8289 75.2733 46.2404 75.2733 46.2404C75.427 46.6295 75.5002 47.0457 75.4885 47.4639C75.4104 46.979 75.1826 46.5307 74.837 46.1821C74.3155 45.7453 74.3155 46.1517 74.3155 46.1517C74.4725 46.6496 74.5411 47.1713 74.518 47.6929C74.518 47.6929 74.2868 47.3735 73.9079 46.7635C73.9712 47.3539 73.9616 47.9498 73.8792 48.5379C73.8792 48.5379 73.3298 45.7748 72.7163 45.3101Z" fill="#19998C"/>
<path d="M26.89 49.666C26.89 49.666 28.7406 48.342 31.4621 53.6838C34.1836 59.0257 37.5862 65.6341 38.0385 67.0477C38.2741 67.7453 38.2363 68.5064 37.9329 69.1771C37.6294 69.8478 37.0829 70.3781 36.4039 70.6608C34.8376 71.499 33.2874 72.8273 31.5735 71.1771L29.8596 69.5269C29.6179 69.7424 29.3358 69.9079 29.0298 70.0136C28.7238 70.1193 28.3999 70.1631 28.0769 70.1426C27.7538 70.1221 27.4381 70.0376 27.1478 69.8941C26.8576 69.7505 26.5987 69.5508 26.3862 69.3063C24.7262 67.4998 22.1431 62.0633 21.3229 60.3709C20.5026 58.6784 20.8165 57.0628 22.0959 55.3949C22.0959 55.3949 21.5465 52.9166 22.8402 51.9221C22.4705 47.6356 23.8748 47.802 24.4798 47.4649C25.6756 46.8016 26.89 49.666 26.89 49.666Z" fill="#201E1C"/>
<path d="M34.5744 62.0563C34.5744 62.0563 29.9981 53.3109 29.0259 52.2353C28.0537 51.1597 27.5137 51.0836 26.2765 51.4512C25.0394 51.8187 22.8276 53.1031 22.9651 54.3139C23.1027 55.5247 23.1424 56.2674 22.5491 57.0279C21.9559 57.7884 22.0428 59.6473 23.0757 61.9523C24.1086 64.2574 25.7213 67.1514 26.7432 68.1045C27.7651 69.0576 26.9643 67.7209 26.863 67.5925C25.891 65.9944 25.0446 64.3231 24.3314 62.5937C23.9491 61.2831 25.4284 63.72 25.658 63.9355C25.8875 64.1509 24.6985 61.4665 24.55 60.7457C24.4604 59.9146 24.4387 59.0776 24.485 58.243C24.485 58.243 26.5997 63.5907 27.3862 65.0432C27.7353 65.7278 28.1341 66.3859 28.5795 67.012C28.5795 67.012 29.0698 67.2105 28.8588 66.7289C28.6478 66.2473 26.0791 60.8818 25.7255 59.7157C25.3719 58.5497 25.0402 57.1166 25.0402 57.1166C25.0402 57.1166 25.3559 56.826 25.8647 57.6591C26.3736 58.4922 26.7812 59.1978 26.7812 59.1978C26.7812 59.1978 26.6681 57.1935 26.1061 56.4821C25.544 55.7706 27.6006 57.7123 27.6006 57.7123C27.8293 58.5974 28.3066 59.3983 28.9761 60.0199C28.644 58.8889 28.3941 57.7354 28.2284 56.5683C28.1356 55.3853 29.3364 55.0262 30.5483 56.5404C31.7601 58.0545 35.1601 64.0005 35.5019 65.8442C35.8436 67.6879 36.2149 68.0259 36.0225 68.3656C36.3724 67.4558 36.429 66.4592 36.1846 65.5155C35.729 64.3263 35.191 63.1704 34.5744 62.0563Z" fill="#19998C"/>
<path d="M26.89 49.6663C26.89 49.6663 26.6124 47.0545 27.6858 45.4846L25.0141 42.8398C25.0141 42.8398 22.4943 45.0739 22.8402 51.9223L26.89 49.6663Z" fill="#201E1C"/>
<path d="M27.2511 45.3101L25.479 43.5078C24.6739 44.6197 24.1372 45.9032 23.911 47.2578C23.7792 47.9979 23.6918 48.7454 23.6494 49.4961C23.7549 48.5011 23.9889 47.524 24.3456 46.5894C24.7819 45.8289 24.6941 46.2404 24.6941 46.2404C24.5412 46.6297 24.468 47.0458 24.479 47.4639C24.557 46.979 24.7848 46.5307 25.1304 46.1821C25.6519 45.7453 25.6519 46.1517 25.6519 46.1517C25.4949 46.6496 25.4263 47.1713 25.4494 47.6929C25.4494 47.6929 25.6823 47.3735 26.0595 46.7635C25.9962 47.3539 26.0059 47.9498 26.0882 48.5379C26.0882 48.5379 26.6418 45.7748 27.2511 45.3101Z" fill="#19998C"/>
<path d="M92.7981 18.6504C93.2968 18.6538 93.7899 18.7551 94.2496 18.9487C94.564 18.801 94.9037 18.7149 95.2504 18.6952C97.6443 18.8377 99.0288 19.0379 99.404 19.2959C100.166 19.5965 100.789 20.1682 101.155 20.9014C101.414 21.8503 101.565 22.8253 101.607 23.808V24.6589C101.624 24.9302 101.59 25.2023 101.506 25.4608C101.56 25.6745 101.594 25.8929 101.607 26.1131C101.579 26.8594 101.461 27.5997 101.256 28.3176C101.256 28.9772 100.822 29.4783 99.9542 29.8208C99.6893 30.1218 99.3541 30.3526 98.9785 30.4925C98.6029 30.6324 98.1985 30.6771 97.8015 30.6226C97.4964 30.6099 97.194 30.5597 96.9011 30.4731C96.5305 30.6191 96.1438 30.7201 95.7492 30.7739C95.6815 30.8778 95.6468 30.9997 95.6496 31.1237C95.6496 31.6081 95.6665 32.3433 95.7002 33.3291L95.5492 33.6789C95.6651 33.9699 95.7499 34.2724 95.8023 34.5813V37.09C95.6943 37.9586 95.3942 38.3929 94.9019 38.3929H92.55C92.2125 38.3929 91.7998 38.3769 91.2994 38.3422C91.1186 38.3827 90.9334 38.3997 90.7483 38.3929C90.3979 38.3929 90.1976 38.1755 90.1475 37.7406V34.9345C90.1515 34.6314 90.1852 34.3294 90.2479 34.0329C90.1815 33.703 90.1479 33.3673 90.1475 33.0308V32.2796C90.1406 31.8945 90.1575 31.5093 90.1981 31.1262C90.1652 30.7925 90.1475 30.3751 90.1475 29.874V28.1207C90.2482 27.6701 90.2985 27.4197 90.2985 27.3695C90.2251 27.1071 90.1746 26.8388 90.1475 26.5677L90.4007 25.8165C90.2744 25.5823 90.1888 25.3283 90.1475 25.0653V22.7087C90.1479 22.3722 90.1815 22.0365 90.2479 21.7066C90.1797 21.4276 90.146 21.1413 90.1475 20.854V19.8021C90.1475 19.0698 90.4811 18.7036 91.1483 18.7036C91.3317 18.7036 91.649 18.72 92.1002 18.7526C92.3302 18.7022 92.5634 18.668 92.7981 18.6504ZM95.7517 23.0095C95.7572 23.2272 95.7741 23.4443 95.8023 23.6602C95.736 24.3288 95.7028 24.9637 95.7028 25.5647V25.6154C95.7028 26.4176 95.7694 26.8183 95.9028 26.8178H96.0023C96.4198 26.8178 96.6535 26.5674 96.7036 26.0666V23.4101C96.6361 22.909 96.4192 22.6589 96.0521 22.6589C95.853 22.7341 95.75 22.8507 95.75 23.0095H95.7517Z" fill="#201E1C"/>
<path d="M104.833 18.6016C105.616 18.6354 106.151 18.6523 106.436 18.6523C106.489 18.6461 106.54 18.6288 106.586 18.6016C106.734 18.6317 106.884 18.6487 107.035 18.6523H107.887C108.454 18.7187 108.771 18.752 108.837 18.752H109.689C110.496 18.7887 111.299 18.8893 112.091 19.0528C112.482 19.1958 112.839 19.4178 113.141 19.7051C113.5 19.7051 113.934 20.2062 114.443 21.2083C114.678 21.9036 114.812 22.6288 114.843 23.3621V25.1661C114.618 26.7371 114.351 27.5221 114.042 27.521L113.241 28.1733V28.2223C113.509 28.4187 113.76 28.6368 113.992 28.8746C114.307 29.2858 114.56 29.7413 114.742 30.2265C114.808 31.0031 114.842 31.4196 114.842 31.4788V35.1358C114.804 35.4017 114.681 35.6481 114.491 35.8379V35.8886C114.6 35.9701 114.689 36.076 114.75 36.1977C114.81 36.3195 114.842 36.4538 114.842 36.5899V37.6419C114.842 38.1089 114.408 38.3427 113.541 38.3432C113.422 38.3456 113.304 38.3626 113.19 38.3939C112.74 38.3601 112.356 38.3432 112.04 38.3432H110.284C109.817 38.3432 109.583 38.076 109.583 37.5414V37.1916C109.597 36.8555 109.63 36.5206 109.684 36.1886C109.631 35.9244 109.597 35.6567 109.583 35.3876V34.5358C109.582 34.2486 109.615 33.9623 109.684 33.6833C109.652 33.4341 109.636 33.1833 109.633 32.9321L109.833 32.3305V32.1809L109.433 30.2772C109.389 30.1643 109.314 30.0664 109.217 29.9952C109.119 29.924 109.003 29.8826 108.882 29.8759C108.804 29.8941 108.736 29.9397 108.69 30.0043C108.643 30.0689 108.622 30.1481 108.629 30.2274V30.5282C108.629 30.669 108.595 31.0352 108.528 31.6266C108.595 32.1528 108.628 32.5034 108.629 32.6786V33.3799C108.606 34.3721 108.505 35.3609 108.328 36.3373C108.513 36.8518 108.598 37.3964 108.581 37.9427C108.541 38.0674 108.46 38.1747 108.351 38.2474C108.242 38.32 108.112 38.3538 107.981 38.3432H107.63C107.412 38.3474 107.194 38.3304 106.979 38.2925C106.797 38.3227 106.614 38.3396 106.43 38.3432C106.162 38.3484 105.894 38.3315 105.629 38.2925C105.187 38.3263 104.72 38.3432 104.227 38.3432H103.676C103.21 38.3432 102.976 38.0928 102.976 37.5921C102.948 36.9702 102.999 36.3474 103.127 35.7382C103.042 35.4799 103.008 35.2076 103.026 34.9364V34.6829C103.093 34.1996 103.126 33.9492 103.127 33.9317C103.076 33.7007 103.043 33.4663 103.026 33.2304V32.9769C103.035 32.7238 103.068 32.4721 103.127 32.2257C103.08 32.0275 103.047 31.8266 103.026 31.6241C103.032 31.4362 103.066 31.2502 103.127 31.0723C103.06 30.8791 103.026 30.676 103.026 30.4716C103.084 30.2251 103.118 29.9735 103.127 29.7204V29.3267C103.108 28.9886 103.058 28.653 102.976 28.3245C103.042 28.003 103.127 27.6854 103.229 27.3731C103.125 27.0649 103.058 26.7456 103.029 26.4217V22.2594C103.031 22.0219 103.065 21.7858 103.129 21.5573C103.021 20.8948 102.97 20.2242 102.978 19.553C102.978 18.9525 103.245 18.652 103.779 18.6514C104.281 18.6176 104.633 18.601 104.833 18.6016ZM108.486 23.0613L108.535 23.662C108.535 23.7051 108.502 23.8876 108.435 24.2138C108.521 24.5585 108.571 24.911 108.585 25.2658C108.535 25.4969 108.502 25.7313 108.485 25.9671C108.485 26.1761 108.619 26.2933 108.885 26.3186C109.369 26.3186 109.636 25.951 109.686 25.2159C109.586 24.5146 109.537 24.0972 109.537 23.9637C109.569 23.5131 109.586 23.1959 109.586 23.0123C109.586 22.8286 109.302 22.6785 108.736 22.5619C108.648 22.6097 108.578 22.6832 108.533 22.7725C108.489 22.8618 108.473 22.9625 108.487 23.0613H108.486Z" fill="#201E1C"/>
<path d="M121.261 17.8996H122.711C123.514 17.9156 124.304 18.1027 125.029 18.4482C125.754 18.7938 126.397 19.29 126.915 19.9038C127.375 20.8158 127.679 21.7982 127.816 22.8105C127.942 23.0024 127.996 23.2332 127.967 23.4611V24.617C127.942 24.9416 127.875 25.2615 127.767 25.5685V25.6192C127.804 25.8603 127.872 26.0959 127.967 26.3205C127.874 26.6828 127.807 27.0513 127.767 27.4232L127.916 28.0239C127.861 28.29 127.759 28.5443 127.616 28.7751C127.797 28.9709 127.919 29.2145 127.967 29.4773C127.981 29.7456 127.964 30.0147 127.916 30.2791C127.949 30.7802 127.967 31.1967 127.967 31.5314V33.1841C127.908 34.0369 127.687 34.8707 127.315 35.6404C126.92 36.0414 126.583 36.4966 126.315 36.9923C125.888 37.3198 125.392 37.5432 124.864 37.6446C124.741 37.5784 124.603 37.5438 124.463 37.5441C124.463 37.9531 124.097 38.1868 123.366 38.2454C123.069 38.3169 122.768 38.3674 122.465 38.3967H121.815C120.179 38.213 119.362 37.9956 119.362 37.7444C119.27 37.7331 119.183 37.6988 119.109 37.6446L118.855 37.6953C118.072 37.6953 117.555 36.9937 117.304 35.5905C117.171 35.5905 117.038 35.3402 116.904 34.8394C116.961 34.6606 116.995 34.4751 117.004 34.2876C116.988 34.1617 116.688 33.9953 116.104 33.7866L116.053 33.5331V33.4824C116.107 33.278 116.174 33.0771 116.253 32.8808C116.137 32.3688 116.052 31.8501 116 31.3277C116.052 31.0635 116.086 30.7958 116.1 30.5267C115.964 30.2995 115.895 30.0386 115.9 29.7738V29.6741C115.9 29.2235 116.017 28.9393 116.25 28.8216H116.35C116.506 28.8521 116.657 28.903 116.8 28.9728C117.016 28.4276 117.152 27.8533 117.201 27.2685C117.373 27.0534 117.477 26.7919 117.5 26.5174C117.433 26.2876 117.383 26.0532 117.351 25.816V25.7155C117.444 25.4902 117.511 25.2549 117.551 25.0142V24.9635C117.551 24.7308 117.351 24.6142 116.951 24.6137C116.862 24.517 116.809 24.3931 116.8 24.2622C116.8 24.0442 117 23.7938 117.401 23.511C117.309 23.337 117.242 23.1514 117.201 22.9592C117.259 22.5215 117.395 22.0976 117.601 21.707C117.601 21.4983 117.318 21.3141 116.749 21.1552C116.707 21.1119 116.673 21.0612 116.65 21.0057C116.65 20.7522 116.882 20.5376 117.35 20.3534C117.321 19.9747 117.419 19.5972 117.627 19.28C117.836 18.9627 118.143 18.7236 118.502 18.6001H118.651C118.781 18.6369 118.916 18.654 119.051 18.6508C119.229 18.3983 119.472 18.1995 119.755 18.0758C120.038 17.9522 120.349 17.9085 120.655 17.9495C120.853 17.9057 121.057 17.8889 121.261 17.8996ZM116.506 21.5566H116.557C116.857 21.5566 117.007 21.7405 117.007 22.1083C116.923 22.2964 116.805 22.4666 116.657 22.6094C116.687 22.792 116.703 22.9763 116.708 23.1612C116.708 23.2119 116.641 23.2786 116.507 23.3614H116.306C116.147 23.3614 116.049 23.1282 116.006 22.6601C116.182 21.9244 116.349 21.5566 116.506 21.5566ZM116.557 32.1794C116.557 32.6475 116.623 32.8808 116.757 32.8808H116.807C116.896 32.8304 116.971 32.7578 117.024 32.67C117.076 32.5821 117.105 32.4821 117.108 32.3797C117.066 32.1127 116.966 31.9792 116.807 31.9792C116.656 32.0459 116.573 32.1127 116.559 32.1794H116.557ZM117.858 33.3328C117.885 33.3785 117.902 33.4295 117.909 33.4824H118.109C118.226 33.4824 118.476 33.3154 118.859 32.9813C118.951 32.9813 119.035 32.8968 119.112 32.7278C119.083 32.5794 119.066 32.4287 119.061 32.2775C119.114 31.9708 119.234 31.6797 119.412 31.4249V31.3767C119.379 31.2993 119.323 31.2337 119.251 31.1885C119.18 31.1433 119.097 31.1206 119.012 31.1232H118.962C118.903 31.1232 118.818 31.357 118.709 31.8246C118.617 31.842 118.483 32.2096 118.308 32.9272C118.007 33.1475 117.857 33.2827 117.857 33.3328H117.858ZM119.059 19.053C119.062 19.2908 119.028 19.5276 118.959 19.7551V19.9554C118.985 20.1556 119.034 20.2562 119.109 20.2562H119.209V20.1556C119.192 19.9198 119.158 19.6855 119.109 19.4543L119.159 19.1028L119.059 19.053ZM119.059 21.2583V21.6597L119.159 21.8092C119.251 21.7768 119.33 21.7154 119.384 21.6342C119.439 21.553 119.465 21.4564 119.46 21.3589C119.466 21.2802 119.45 21.2015 119.415 21.1309C119.38 21.0604 119.326 21.0008 119.26 20.9584H119.209C119.109 20.9888 119.058 21.0893 119.058 21.2566L119.059 21.2583ZM119.26 30.2276V30.2783C119.334 30.3632 119.427 30.4301 119.531 30.474C119.635 30.5179 119.747 30.5377 119.86 30.5318L119.91 30.4312V30.3805C119.91 30.2884 119.742 30.2217 119.41 30.1803C119.363 30.2053 119.312 30.2208 119.26 30.2259V30.2276ZM121.111 23.6141C121.207 23.7856 121.274 23.9713 121.311 24.1641V24.3154C121.32 24.7512 121.353 25.1863 121.411 25.6183C121.323 26.196 121.19 26.7657 121.011 27.3218V27.3725C121.18 27.7909 121.297 28.2284 121.36 28.6754C121.294 29.1007 121.261 29.3511 121.261 29.4266C121.327 29.7764 121.36 29.9606 121.36 29.9783L121.16 30.7802C121.16 30.8216 121.194 31.0058 121.261 31.3303L121.21 31.6818C121.255 31.829 121.289 31.9796 121.31 32.1321C121.268 33.5015 121.167 34.1862 121.01 34.1862V34.3341C121.318 34.4072 121.62 34.5076 121.91 34.6341H122.111C122.185 34.6341 122.302 34.2837 122.461 33.5829C122.761 33.3075 122.911 33.09 122.91 32.9306C122.747 32.8097 122.616 32.6505 122.529 32.4671C122.442 32.2837 122.401 32.0816 122.41 31.8786V30.4261C122.439 30.056 122.489 29.6878 122.561 29.3235C122.482 29.0451 122.431 28.7595 122.41 28.4709V28.1709C122.41 27.753 122.427 27.3685 122.461 27.0176C122.429 26.8188 122.413 26.618 122.41 26.4168C122.41 26.2478 122.427 25.9969 122.461 25.6639C122.427 25.222 122.41 24.7539 122.41 24.2613C122.41 24.1605 122.443 23.8264 122.51 23.2592C122.41 22.1889 122.243 21.6538 122.01 21.6538H121.81C121.626 21.6538 121.426 22.2382 121.209 23.4071C121.169 23.4104 121.135 23.4772 121.111 23.6124V23.6141ZM123.31 34.4845V34.6341C123.313 34.7299 123.343 34.823 123.396 34.9028C123.449 34.9827 123.524 35.0461 123.611 35.0861L123.66 34.9856C123.587 34.7747 123.537 34.5566 123.51 34.3349H123.46C123.412 34.3341 123.363 34.3839 123.31 34.4845ZM123.611 36.438L123.56 36.5386C123.56 36.798 123.843 37.0143 124.412 37.1909V37.038C124.414 36.6814 124.146 36.4811 123.613 36.438H123.611ZM123.864 25.4147V25.5152C123.871 25.582 123.905 25.6158 123.963 25.6158H124.064L124.115 25.3623V25.1088H124.014C123.914 25.1477 123.863 25.2491 123.863 25.4147H123.864ZM124.013 23.511V23.6115C124.022 23.6783 124.055 23.7112 124.114 23.7112L124.163 23.6115V23.511H124.013Z" fill="#201E1C"/>
<path d="M133.334 18.6504C133.725 18.7169 134.091 18.7667 134.431 18.7999C134.691 18.7177 134.96 18.6675 135.232 18.6504C135.805 18.799 136.392 18.884 136.983 18.9039C137.164 18.8547 137.348 18.821 137.534 18.8033C139.335 19.1633 140.235 19.4641 140.235 19.7057C141.203 20.3907 141.687 20.9416 141.687 21.3585C141.82 21.3585 141.954 21.9933 142.087 23.263L141.788 24.0649C141.988 24.3989 142.107 24.775 142.137 25.1634C142.076 25.4264 142.042 25.6952 142.036 25.9652C142.054 26.3666 142.087 26.5668 142.137 26.5668L142.086 26.8203C142.12 27.7808 142.137 28.3987 142.137 28.6742C142.071 29.3839 142.037 29.8346 142.036 30.0261C142.036 30.5359 142.053 31.2375 142.087 32.1309C142.087 32.655 142.02 33.1769 141.887 33.6839C141.988 33.9039 142.039 34.1433 142.036 34.3853V34.6388C141.82 35.9417 141.62 36.5934 141.436 36.594C140.894 37.4953 140.393 37.9459 139.935 37.9459C139.159 38.2685 138.322 38.422 137.482 38.3963H134.73C134.23 38.3963 133.813 38.3794 133.48 38.3456C133.098 38.3869 132.713 38.4038 132.329 38.3963H130.377C130.076 38.3963 129.909 38.1958 129.876 37.7947V34.6844C129.876 34.2247 129.859 33.6234 129.826 32.8804C129.896 32.6155 130.034 32.3737 130.226 32.1791C130.067 31.8792 129.949 31.5592 129.875 31.2276V28.4215C129.809 27.6109 129.775 27.1603 129.775 27.0696V26.4688C129.791 25.6783 129.876 24.8906 130.028 24.1148L129.775 22.8608C129.836 22.5301 129.869 22.1949 129.875 21.8587C129.875 21.6424 129.859 21.3576 129.825 21.0078C129.855 20.7749 129.872 20.5405 129.875 20.3057L129.825 19.5046C129.907 19.0365 130.141 18.8025 130.525 18.8025C131.464 18.841 132.405 18.7901 133.334 18.6504ZM133.835 30.7266V30.9801H133.884C134.06 30.9801 134.159 30.9294 134.184 30.8288V30.7781C134.187 30.7644 134.187 30.7501 134.183 30.7366C134.179 30.7231 134.172 30.7108 134.162 30.7008C134.152 30.6908 134.139 30.6835 134.126 30.6794C134.113 30.6754 134.098 30.6747 134.085 30.6776L133.835 30.7266ZM135.285 24.2119C135.335 24.4431 135.368 24.6774 135.385 24.9132V26.8178C135.385 27.2358 135.369 27.7534 135.336 28.3708C135.421 28.6988 135.471 29.0346 135.485 29.3729V29.6264C135.459 29.9563 135.373 30.2786 135.232 30.5779V30.6286C135.387 31.0979 135.472 31.5872 135.485 32.0811V32.6328C135.466 32.9175 135.431 33.2009 135.382 33.482C135.382 34.1163 135.533 34.4334 135.834 34.4334C136.192 34.4334 136.409 33.8656 136.484 32.73C136.601 32.5502 136.67 32.3429 136.684 32.1284C136.59 31.8861 136.523 31.6342 136.484 31.3772V31.2775C136.676 30.5086 136.893 30.1241 137.135 30.1241L137.435 29.7236V29.6231C137.143 29.6569 136.976 29.6738 136.934 29.6738C136.792 29.6181 136.669 29.5222 136.58 29.3976C136.491 29.2731 136.44 29.1254 136.434 28.9724C136.492 28.7253 136.525 28.4732 136.534 28.2196V28.0742C136.468 27.5064 136.435 27.1893 136.434 27.1228V26.3674C136.5 25.7996 136.534 25.4819 136.534 25.4143V25.3146C136.531 25.1297 136.514 24.9453 136.484 24.7628C136.484 24.3623 136.968 24.1618 137.936 24.1612C138.222 24.1923 138.506 24.2428 138.786 24.3125H138.987C139.353 24.2119 139.536 24.1122 139.536 24.0117V23.8621C139.328 23.7687 139.11 23.7012 138.886 23.661L137.585 23.8123H137.332C137.11 23.8272 136.89 23.7657 136.708 23.6379C136.526 23.5102 136.393 23.3239 136.331 23.1101C136.331 22.9022 136.181 22.7687 135.88 22.7096H135.68C135.559 22.709 135.427 23.2098 135.285 24.2119Z" fill="#201E1C"/>
<path d="M145.193 18.25C145.341 18.2802 145.492 18.2972 145.644 18.3007H145.993C146.427 18.3007 146.877 18.3184 147.344 18.3514C147.525 18.3183 147.71 18.3013 147.895 18.3007C148.829 18.3672 149.296 18.4843 149.296 18.6522C149.362 18.6522 149.396 18.7697 149.396 19.002V23.1102C149.227 24.2796 149.143 24.9812 149.143 25.215C149.076 25.224 149.026 25.3412 148.992 25.5665V25.6172C149.154 25.9215 149.288 26.2399 149.393 26.5686V27.8716C149.394 28.1582 149.36 28.444 149.292 28.7224C149.356 28.9512 149.39 29.1872 149.393 29.4246V31.5767C149.326 32.3282 149.293 32.7293 149.292 32.78V34.0322C149.334 34.4665 149.501 34.6834 149.793 34.6828H149.993C150.088 34.6211 150.167 34.5399 150.228 34.4447C150.288 34.3496 150.327 34.2426 150.343 34.131C150.309 33.2641 150.292 32.578 150.292 32.0769V31.8235C150.4 31.072 150.5 30.5042 150.593 30.12C150.627 30.0591 150.645 29.9899 150.643 29.9198V29.8192C150.496 29.417 150.411 28.9948 150.39 28.567C150.456 28.0245 150.49 27.6738 150.49 27.515C150.49 27.482 150.473 27.346 150.44 27.1145C150.472 26.9494 150.489 26.7816 150.49 26.6134C150.393 26.3374 150.325 26.0515 150.29 25.7609C150.262 24.9229 150.312 24.0841 150.441 23.2555C150.302 22.6291 150.218 21.9919 150.187 21.351C150.259 21.0391 150.292 20.7196 150.287 20.3996V19.1558C150.287 18.5542 150.621 18.2534 151.288 18.2534C151.583 18.3299 151.885 18.3805 152.189 18.4046H152.74C153.24 18.3382 154.058 18.2877 155.192 18.2534C155.625 18.3877 155.843 18.6209 155.843 18.9555V19.9577C155.78 20.2693 155.679 20.572 155.543 20.8592C155.68 21.1287 155.781 21.4155 155.843 21.7118V22.2129C155.742 22.948 155.692 23.3986 155.692 23.5648V23.9146C155.793 24.5416 155.843 24.8756 155.843 24.9167V25.0173C155.776 25.5023 155.743 25.7685 155.743 25.8192V26.5205C155.743 26.7886 155.726 27.1058 155.692 27.4719C155.788 27.7632 155.839 28.0675 155.843 28.3743V29.1762C155.843 29.3187 155.876 29.6863 155.943 30.2789C155.89 30.6106 155.856 30.9453 155.843 31.281V32.4327C155.769 33.0883 155.6 33.7297 155.343 34.3372L155.492 35.0385C155.292 35.8198 154.855 36.5199 154.242 37.0428C153.221 37.8997 151.919 38.3461 150.588 38.295C150.588 38.3618 150.471 38.3956 150.237 38.3956H149.387C148.747 38.3648 148.119 38.2119 147.536 37.9452C146.802 37.9452 145.902 37.4439 144.836 36.4412C144.309 35.7771 143.979 34.9785 143.884 34.1361V33.3849C143.817 32.8171 143.784 32.5 143.784 32.4335C143.797 32.1863 143.904 31.9534 144.084 31.7829V31.6823C143.851 31.5072 143.735 31.0565 143.734 30.3304V30.1302C143.737 30.0114 143.754 29.8933 143.785 29.7786C143.751 29.1117 143.734 28.5273 143.734 28.0254V26.3177L143.934 25.4651L143.734 24.8644V22.1081C143.729 22.0206 143.746 21.9333 143.785 21.8546L143.734 21.5538V19.2031C143.734 18.6015 144.101 18.3007 144.836 18.3007C144.957 18.3153 145.08 18.2978 145.193 18.25Z" fill="#201E1C"/>
<path d="M162.846 17.9512H164.498C166.242 18.1511 167.326 18.4348 167.75 18.8021C168.882 19.4986 169.691 20.6159 170.002 21.909C170.017 22.195 170.05 22.4798 170.102 22.7615C170.083 22.964 170.05 23.1648 170.002 23.3623L170.255 24.4143L170.055 25.2162C170.156 25.4037 170.223 25.6072 170.255 25.8178C170.255 26.7191 170.105 27.1697 169.805 27.1697H168.455C168.155 27.1697 167.821 27.152 167.454 27.119C167.24 27.1611 167.022 27.1781 166.804 27.1697L166.153 26.9686L165.003 27.0691C164.735 26.9847 164.602 26.7176 164.602 26.2673V26.2166C164.609 25.7289 164.66 25.2428 164.753 24.7641C164.682 24.4675 164.631 24.1662 164.602 23.8625C164.615 23.5265 164.649 23.1916 164.702 22.8596C164.643 22.1273 164.443 21.7611 164.101 21.7611H163.952C163.568 21.7611 163.352 22.2622 163.302 23.2643V23.364C163.302 23.515 163.319 23.8994 163.351 24.5174C163.351 24.6926 163.335 24.9767 163.302 25.3699C163.335 25.8206 163.351 26.1377 163.351 26.3214C163.35 26.6225 163.334 26.9235 163.302 27.2229C163.335 27.7665 163.351 28.3845 163.351 29.0768C163.348 29.6007 163.281 30.1223 163.151 30.6298C163.29 31.0845 163.357 31.5579 163.351 32.0333C163.318 32.5344 163.302 32.8842 163.302 33.0853C163.427 34.1201 163.576 34.6375 163.752 34.6375H164.052C164.37 34.6375 164.553 34.4043 164.603 33.9362V30.6273C164.603 30.1265 164.769 29.8761 165.103 29.8761H165.403C165.971 29.8096 166.288 29.7761 166.355 29.7756H168.947C169.814 29.7756 170.248 30.0096 170.248 30.4777V31.0295C170.239 31.6498 170.189 32.2687 170.099 32.8825V33.3835C170.102 33.6309 170.019 33.8716 169.863 34.0638C169.708 34.256 169.49 34.3875 169.247 34.4355C169.146 34.5862 169.077 34.7571 169.047 34.9366C169.047 34.9543 169.148 35.1901 169.348 35.6387V35.6878C169.348 36.1812 168.881 36.7164 167.946 37.2932C167.32 37.5403 166.717 37.8423 166.144 38.1956C165.456 38.3577 164.749 38.425 164.042 38.3959H163.493C161.424 38.1367 160.389 37.903 160.39 37.6945C160.09 37.6945 159.706 37.3602 159.238 36.6916C158.823 36.3284 158.489 35.8824 158.256 35.3821C158.024 34.8818 157.898 34.3383 157.888 33.7866C157.829 33.7866 157.796 33.5331 157.787 33.0354V31.8297C157.774 31.4939 157.74 31.1593 157.687 30.8275C157.729 30.3983 157.83 29.9769 157.987 29.5753C157.894 29.35 157.827 29.1147 157.787 28.874V28.0214C157.721 27.4373 157.688 27.1367 157.687 27.1198C157.753 25.5161 157.787 24.4639 157.787 23.9631V23.0623C157.816 22.1375 158.093 21.2375 158.588 20.4565C158.915 20.1096 159.218 19.7412 159.495 19.3538C160.084 18.8799 160.766 18.5381 161.498 18.3517C161.909 18.1125 162.371 17.9752 162.846 17.9512ZM159.793 25.8676L159.743 25.9673L159.843 26.018L159.894 25.9175L159.793 25.8676Z" fill="#201E1C"/>
<path d="M172.28 18.7009H174.181C174.467 18.7191 174.751 18.7523 175.033 18.8006C175.297 18.7478 175.565 18.7145 175.834 18.7009H176.835C177.105 18.6833 177.377 18.7171 177.635 18.8006C177.914 18.7327 178.199 18.6992 178.485 18.7009H182.439C182.972 18.7009 183.239 19.0848 183.24 19.8526C183.272 20.3534 183.289 20.7708 183.289 21.1048C183.266 21.3559 183.181 21.5972 183.04 21.8061V21.9067L183.189 22.4077V22.5083C183.189 22.8091 182.989 22.9756 182.588 23.0093H182.439C182.106 23.0093 181.689 22.9924 181.188 22.9586C180.454 23.0178 180.087 23.3178 180.087 23.8611C180.053 23.8611 180.036 23.9278 180.036 24.0613V24.2109C180.061 24.4335 180.112 24.6525 180.187 24.8632C180.103 25.4637 179.986 25.7642 179.836 25.7648C179.683 25.7481 179.541 25.677 179.436 25.5645H179.285L179.236 25.818C179.236 26.027 179.453 26.1605 179.886 26.2185C179.984 26.2717 180.064 26.352 180.118 26.4499C180.171 26.5478 180.195 26.6591 180.186 26.7703V26.821C180.165 27.1095 180.114 27.3952 180.035 27.6735C180.093 27.8517 180.126 28.0366 180.136 28.2236C180.136 28.249 180.051 28.483 179.883 28.9258C179.984 29.0109 180.064 29.1187 180.116 29.2405C180.169 29.3624 180.191 29.4948 180.183 29.6271C180.154 29.8649 180.103 30.0996 180.032 30.3284C180.004 30.953 180.072 31.5782 180.233 32.1822C180.199 32.7422 180.182 33.1765 180.182 33.4852V33.6347C180.191 33.9545 180.224 34.2732 180.282 34.5878C180.224 34.8344 180.191 35.086 180.182 35.339V35.4886C180.185 35.7257 180.218 35.9615 180.282 36.1899C180.218 36.4186 180.185 36.6547 180.182 36.8921V37.2926L180.233 37.5934C180.183 38.1285 179.932 38.3958 179.481 38.3952H175.337C174.837 38.3952 174.586 38.0612 174.586 37.3931V33.3297C174.59 32.9041 174.658 32.4814 174.786 32.0758C174.665 31.669 174.598 31.248 174.586 30.8235V30.3225C174.595 30.0032 174.628 29.6851 174.686 29.3711C174.628 29.057 174.595 28.7389 174.586 28.4196V23.311C174.586 23.16 174.286 23.0755 173.685 23.0575C173.338 23.1178 172.987 23.1511 172.635 23.1572H172.285C171.826 23.1572 171.559 22.8736 171.484 22.3063C171.54 22.1101 171.573 21.9083 171.584 21.7047C171.585 21.5694 171.568 21.4345 171.535 21.3034C171.567 21.0039 171.583 20.703 171.584 20.4018V19.4022C171.571 19.3074 171.579 19.2107 171.61 19.1198C171.64 19.0289 171.691 18.9462 171.758 18.8783C171.825 18.8104 171.908 18.759 171.998 18.7282C172.089 18.6974 172.185 18.6881 172.28 18.7009ZM177.835 30.7264C177.774 30.8155 177.739 30.9196 177.734 31.0272H177.785C177.843 31.0272 177.893 30.9427 177.936 30.7737L177.835 30.7264ZM178.386 29.5232L178.485 29.5738H178.937C179.014 29.5401 179.08 29.4839 179.125 29.4125C179.17 29.3411 179.193 29.2578 179.19 29.1733L178.937 29.1226H178.786C178.731 29.1149 178.676 29.1199 178.624 29.1373C178.572 29.1546 178.524 29.1839 178.486 29.2228C178.447 29.2616 178.418 29.309 178.4 29.3611C178.383 29.4133 178.378 29.4687 178.386 29.5232Z" fill="#201E1C"/>
<path d="M93.8785 41.0583H94.1047C95.6236 41.0583 96.3831 41.4 96.3831 42.0833C96.3499 42.6202 96.407 43.1589 96.5519 43.6769C96.5142 44.0661 96.4954 44.294 96.4954 44.3604C96.685 45.9743 96.8366 47.7586 96.9502 49.7133V49.7699C96.9217 50.0288 96.8444 50.28 96.7224 50.5101C96.7735 50.6775 96.8114 50.8487 96.8355 51.0221C96.7824 51.2652 96.6861 51.4968 96.5511 51.7057C96.7025 51.8188 96.8772 51.8967 97.0625 51.9338C97.3238 51.3555 97.4968 50.7411 97.5755 50.1113L97.4608 49.3711C98.0104 44.245 98.3516 41.6819 98.4844 41.6819C98.4844 41.2651 98.9961 41.0566 100.019 41.0566C100.058 41.0566 100.494 41.0947 101.328 41.1699H103.262C104.36 41.1699 104.91 41.5115 104.91 42.1948C104.952 42.2835 104.972 42.3814 104.966 42.4796C104.966 42.6798 104.948 43.0584 104.91 43.6186C105.03 44.2204 105.201 44.8109 105.421 45.3837C105.388 46.1849 105.445 46.9872 105.59 47.7758C105.552 48.6585 105.533 49.1136 105.533 49.1412C105.739 49.9444 105.873 50.7645 105.932 51.5916C106.044 51.5916 106.157 50.6808 106.269 48.859C106.462 47.9994 106.558 47.1207 106.554 46.2396C106.77 45.4808 106.866 44.6927 106.838 43.9042C107.095 42.1202 107.436 41.2282 107.862 41.2282H107.976C108.19 41.3411 108.421 41.4181 108.659 41.4563C109.04 41.3023 109.443 41.2064 109.852 41.1716H110.422C110.915 41.1716 111.426 41.1904 111.957 41.2282C112.182 41.1881 112.411 41.1692 112.64 41.1716C113.074 41.1716 113.341 41.4563 113.435 42.0267V42.0833C113.435 42.1959 113.075 45.2893 112.355 51.3635C112.166 52.6636 112.033 53.7266 111.957 54.5524L111.673 56.2609V56.8878C111.426 58.5214 111.18 59.3382 110.933 59.3382V59.4515C111.05 59.6892 111.145 59.9369 111.218 60.1916V60.4198L110.99 61.4447V62.413C110.99 63.1735 110.686 63.5532 110.079 63.5521H109.17C108.601 63.4574 108.316 63.2107 108.316 62.8119L108.203 62.7553H108.147C108.08 62.7553 108.022 62.9242 107.978 63.2673C107.916 63.3276 107.836 63.3672 107.75 63.3805C107.585 63.3218 107.413 63.2838 107.239 63.2673H107.124C106.469 63.4139 105.804 63.5091 105.134 63.5521H103.94C103.321 63.5521 102.923 62.9068 102.747 61.6162C102.747 61.436 102.595 60.4502 102.292 58.6589C102.292 58.6107 102.33 58.4054 102.405 58.0319C102.093 57.3747 101.937 56.6539 101.95 55.9263C101.875 55.3196 101.781 55.0146 101.666 55.0146H101.609C101.287 57.292 101.022 58.4307 100.814 58.4307C100.714 58.5406 100.654 58.6813 100.645 58.8296C100.771 59.078 100.849 59.3486 100.873 59.6264C100.693 62.0182 100.408 63.2141 100.019 63.2141C99.4009 63.366 98.7744 63.4788 98.1426 63.5521H93.4836C92.9339 63.5521 92.6115 63.1535 92.5165 62.3564C92.3646 60.8096 92.0993 58.589 91.7207 55.6948C91.6853 54.9891 91.6092 54.286 91.4928 53.5891L91.3781 52.5067C91.416 51.9854 91.4363 51.6618 91.4363 51.5384C91.1044 50.9503 90.8009 48.8058 90.5258 45.1049C90.4591 45.1049 90.4211 44.8961 90.411 44.4796C90.411 44.2543 90.4304 43.9123 90.4692 43.4538C90.3995 42.9511 90.2851 42.4557 90.1274 41.9734V41.9168C90.1274 41.4234 90.3933 41.1766 90.9249 41.1766H92.5165C92.5705 41.1732 93.0245 41.1338 93.8785 41.0583Z" fill="#19998C"/>
<path d="M120.321 40.2589H121.97C122.883 40.2779 123.78 40.4911 124.604 40.8845C125.428 41.2778 126.158 41.8423 126.747 42.5403C127.269 43.5764 127.615 44.6924 127.77 45.8424C127.912 46.0615 127.972 46.3237 127.939 46.5826V47.8915C127.911 48.2607 127.834 48.6246 127.711 48.9739V49.0305C127.754 49.3046 127.83 49.5723 127.939 49.8273C127.833 50.2387 127.757 50.6572 127.711 51.0795L127.88 51.7631C127.819 52.0658 127.704 52.3553 127.543 52.6182C127.748 52.8404 127.886 53.1168 127.941 53.415C127.958 53.7201 127.938 54.0262 127.883 54.3267C127.921 54.8953 127.941 55.3702 127.941 55.7488V57.628C127.874 58.5961 127.623 59.5426 127.202 60.4163C126.752 60.8725 126.369 61.3899 126.064 61.9533C125.58 62.3259 125.016 62.5794 124.416 62.6935C124.275 62.6185 124.119 62.5796 123.959 62.5803C123.959 63.045 123.543 63.312 122.709 63.3771C122.372 63.4575 122.03 63.514 121.685 63.5461H120.946C119.089 63.3371 118.161 63.0904 118.161 62.8059C118.058 62.7924 117.96 62.7529 117.877 62.691L117.592 62.7493C116.701 62.7493 116.113 61.9519 115.829 60.3572C115.678 60.3572 115.526 60.0724 115.375 59.5021C115.439 59.2995 115.477 59.0893 115.488 58.8768C115.469 58.7343 115.127 58.5447 114.464 58.3082L114.407 58.0226V57.9659C114.469 57.7336 114.545 57.5053 114.635 57.2824C114.503 56.7006 114.408 56.1111 114.351 55.5172C114.411 55.217 114.448 54.9129 114.464 54.6072C114.309 54.3495 114.23 54.053 114.236 53.7521V53.6389C114.236 53.1268 114.37 52.8032 114.635 52.6706H114.748C114.925 52.7046 115.097 52.7614 115.259 52.8396C115.505 52.2207 115.659 51.5686 115.714 50.9046C115.909 50.6594 116.026 50.3618 116.051 50.0495C115.975 49.7885 115.919 49.5221 115.883 49.2527V49.1378C115.989 48.8817 116.065 48.6144 116.11 48.341V48.2844C116.11 48.0185 115.883 47.8855 115.428 47.8855C115.328 47.7757 115.269 47.6355 115.259 47.4876C115.259 47.2408 115.487 46.9558 115.942 46.6325C115.838 46.4352 115.761 46.2249 115.714 46.0072C115.782 45.5097 115.935 45.0279 116.169 44.5834C116.169 44.3468 115.846 44.1379 115.202 43.9565C115.154 43.9074 115.116 43.8501 115.089 43.7875C115.089 43.503 115.354 43.2563 115.884 43.0473C115.852 42.6172 115.962 42.1884 116.199 41.8279C116.435 41.4675 116.784 41.1956 117.191 41.0549H117.36C117.508 41.0959 117.662 41.115 117.815 41.1115C118.017 40.8241 118.294 40.5978 118.615 40.4574C118.937 40.317 119.291 40.2679 119.639 40.3155C119.863 40.2669 120.092 40.2478 120.321 40.2589ZM114.92 44.4144H114.976C115.318 44.4144 115.488 44.6232 115.488 45.0414C115.392 45.2544 115.257 45.4474 115.09 45.6101C115.124 45.8175 115.143 46.027 115.147 46.237C115.147 46.2936 115.072 46.3688 114.919 46.4652H114.691C114.511 46.4652 114.397 46.1998 114.353 45.6667C114.55 44.8324 114.738 44.415 114.918 44.4144H114.92ZM114.976 56.4856C114.976 57.0179 115.051 57.2824 115.204 57.2824H115.261C115.362 57.2256 115.447 57.1433 115.507 57.0435C115.567 56.9438 115.6 56.8301 115.602 56.7137C115.555 56.4101 115.441 56.2583 115.261 56.2583C115.089 56.3343 114.997 56.4095 114.975 56.4856H114.976ZM116.455 57.7961C116.485 57.8479 116.504 57.9055 116.511 57.9651H116.739C116.872 57.9651 117.157 57.7767 117.593 57.3964C117.698 57.3964 117.791 57.3018 117.878 57.1117C117.844 56.9429 117.825 56.7716 117.821 56.5996C117.881 56.2515 118.016 55.9208 118.218 55.6313V55.5747C118.18 55.4869 118.117 55.4126 118.036 55.3616C117.955 55.3107 117.86 55.2854 117.764 55.2891H117.706C117.64 55.2891 117.545 55.5561 117.422 56.0876C117.318 56.1067 117.166 56.5242 116.967 57.3398C116.624 57.5866 116.453 57.7386 116.453 57.7961H116.455ZM117.82 41.5686C117.823 41.8386 117.785 42.1073 117.705 42.3654V42.5936C117.734 42.8217 117.79 42.9315 117.874 42.9315H117.987V42.8183C117.968 42.5504 117.93 42.2842 117.874 42.0215L117.931 41.6227L117.82 41.5686ZM117.82 44.0739V44.5294L117.933 44.6984C118.038 44.6617 118.128 44.5919 118.19 44.4995C118.251 44.4072 118.281 44.2972 118.275 44.1863C118.281 44.097 118.264 44.0077 118.223 43.9277C118.183 43.8477 118.122 43.78 118.047 43.7317H117.989C117.875 43.7697 117.818 43.8813 117.818 44.0731L117.82 44.0739ZM118.048 54.265V54.3233C118.133 54.4193 118.238 54.4949 118.356 54.5442C118.474 54.5935 118.601 54.6154 118.729 54.6081L118.787 54.4931V54.4365C118.787 54.3323 118.597 54.2563 118.218 54.2084C118.165 54.2391 118.107 54.2584 118.046 54.265H118.048ZM120.151 46.7499C120.26 46.9447 120.337 47.1559 120.379 47.3752V47.5442C120.389 48.0394 120.427 48.5337 120.494 49.0246C120.394 49.6809 120.242 50.3283 120.039 50.9604V51.017C120.231 51.4925 120.364 51.9896 120.436 52.4973C120.361 52.9818 120.323 53.2668 120.323 53.3524C120.398 53.7504 120.436 53.9591 120.436 53.9777L120.208 54.8894C120.208 54.9376 120.246 55.1429 120.323 55.5147L120.267 55.9135C120.318 56.0809 120.356 56.2522 120.38 56.4256C120.332 57.9814 120.219 58.7594 120.042 58.7594V58.9283C120.393 59.0122 120.735 59.1267 121.066 59.2706H121.294C121.379 59.2706 121.512 58.872 121.691 58.0749C122.033 57.7615 122.202 57.5147 122.202 57.3348C122.017 57.1972 121.869 57.0163 121.77 56.8078C121.671 56.5994 121.624 56.3697 121.634 56.1391V54.4872C121.667 54.0669 121.723 53.6488 121.803 53.235C121.714 52.9188 121.658 52.5944 121.634 52.2667V51.9287C121.634 51.4544 121.653 51.0175 121.691 50.6182C121.656 50.3924 121.638 50.1646 121.634 49.9363C121.634 49.7464 121.653 49.4614 121.691 49.0812C121.653 48.5787 121.634 48.0475 121.634 47.4876C121.634 47.3727 121.672 46.9941 121.749 46.3486C121.637 45.1335 121.447 44.5263 121.18 44.5268H120.952C120.743 44.5268 120.516 45.191 120.271 46.5192C120.216 46.5218 120.178 46.597 120.149 46.7491L120.151 46.7499ZM122.653 59.1049V59.2739C122.658 59.3825 122.692 59.4877 122.752 59.578C122.812 59.6683 122.896 59.7403 122.995 59.786L123.051 59.6711C122.968 59.4314 122.911 59.1831 122.883 58.9309H122.826C122.765 58.9334 122.708 58.99 122.651 59.1049H122.653ZM122.995 61.3255L122.937 61.4387C122.937 61.7333 123.259 61.9801 123.904 62.1789V62.0099C123.903 61.6015 123.599 61.3734 122.993 61.3255H122.995ZM123.279 48.799V48.9139C123.288 48.9891 123.327 49.0271 123.392 49.0271H123.507L123.564 48.7423V48.4576H123.451C123.334 48.4956 123.278 48.6088 123.278 48.799H123.279ZM123.448 46.635V46.7499C123.457 46.8254 123.495 46.8631 123.561 46.8631L123.618 46.7499V46.635H123.448Z" fill="#19998C"/>
<path d="M132.788 41.1134C133.168 41.1115 133.547 41.1304 133.925 41.17C134.286 41.1323 134.778 41.1134 135.403 41.1134H135.631C136.162 41.17 136.429 41.3787 136.429 41.7387L136.37 42.4223L136.539 43.4472L136.37 44.4155C136.375 44.5876 136.394 44.759 136.429 44.9276C136.39 45.3641 136.37 45.7821 136.37 46.1815C136.377 46.3344 136.397 46.4864 136.429 46.6361L136.37 46.9217C136.37 46.9682 136.389 47.1583 136.429 47.4903C136.424 47.6624 136.404 47.8337 136.37 48.0024C136.408 48.4773 136.429 48.7629 136.429 48.8558C136.429 49.1042 136.408 49.4828 136.37 49.9948C136.408 50.4697 136.429 50.9437 136.429 51.4186C136.421 51.4783 136.401 51.5358 136.37 51.5876C136.401 51.6395 136.421 51.6969 136.429 51.7565C136.429 52.041 136.39 52.7435 136.314 53.8639L136.429 55.4009C136.394 55.5695 136.375 55.7408 136.37 55.9129C136.373 56.0477 136.393 56.1817 136.429 56.3117C136.429 57.5268 136.22 58.134 135.803 58.1335C135.538 58.1335 135.404 58.1715 135.404 58.2467C135.404 58.305 135.481 58.3802 135.632 58.4748L135.747 58.4182H135.86L137.054 58.703C137.348 58.6081 137.657 58.5697 137.965 58.5898H139.159C139.689 58.5898 139.954 59.1021 139.954 60.1267V60.4647C139.954 60.6168 139.936 60.9582 139.898 61.4905L139.954 61.7753C139.954 62.952 139.689 63.5404 139.159 63.5404H139.1C138.797 63.5404 138.646 63.5218 138.646 63.4838C138.077 63.5215 137.66 63.5404 137.395 63.5404H130.799C130.325 63.5404 130.06 63.2554 130.002 62.6853V60.9785C130.015 60.7618 130.079 60.5512 130.187 60.3633C130.296 60.1754 130.447 60.0155 130.628 59.8961V59.6113C130.457 59.4392 130.338 59.2217 130.286 58.9843C130.325 58.5112 130.344 58.2442 130.344 58.1875C130.233 58.014 130.156 57.8211 130.116 57.6189C130.145 57.3936 130.524 57.0897 131.254 56.7072C131.292 56.6373 131.312 56.5587 131.311 56.479V56.31L131.026 56.2517C130.843 56.3181 130.651 56.3568 130.457 56.3667C130.191 56.3667 130.039 55.7783 130.002 54.6015V52.6716C130.017 52.29 130.055 51.9096 130.116 51.5326C130.05 51.1757 130.011 50.8141 130.002 50.4511V49.4861C130.002 49.325 130.04 48.9076 130.116 48.2339C130.056 47.9332 130.017 47.6285 130.002 47.3222V44.3023C130.016 43.9959 130.055 43.6911 130.116 43.3906C130.05 43.1106 130.012 42.8248 130.002 42.5372V42.135C129.984 42.0111 129.995 41.8849 130.035 41.7662C130.075 41.6476 130.141 41.5398 130.229 41.4513C130.318 41.3629 130.425 41.2962 130.544 41.2566C130.662 41.217 130.789 41.2056 130.912 41.2233H131.311C132.258 41.15 132.751 41.1134 132.788 41.1134Z" fill="#19998C"/>
<path d="M154.539 41.0566C155.335 41.0566 155.733 41.36 155.732 41.9667C155.675 42.7541 155.483 43.5257 155.164 44.2481C155.202 44.7793 155.221 45.2344 155.221 45.6135C154.91 47.2709 154.682 48.9429 154.54 50.6233L153.857 54.5524C153.725 54.7106 153.61 54.8829 153.515 55.0661L153.743 55.6914L153.515 56.9436L153.574 57.4557C153.497 58.006 153.27 59.0878 152.891 60.7012C152.912 61.0069 152.95 61.3113 153.004 61.6129C152.805 62.9034 152.483 63.5487 152.037 63.5487H151.126C150.818 63.5691 150.509 63.5301 150.216 63.4338C149.899 63.512 149.575 63.5506 149.249 63.5487H148.737C148.411 63.5208 148.087 63.4643 147.77 63.3797H147.714C147.221 63.4923 146.956 63.5487 146.918 63.5487H144.133C143.527 63.5487 143.224 62.998 143.223 61.8968C143.261 61.4698 143.281 60.9763 143.281 60.4164C142.939 59.5575 142.71 58.6581 142.598 57.7404C142.218 55.3182 141.953 53.4773 141.802 52.2177C141.756 51.5623 141.641 50.9135 141.461 50.2819C141.45 49.7491 141.413 49.2172 141.347 48.6883C141.347 48.4039 141.67 48.1377 142.315 47.8898L142.371 47.7766V47.72H142.315C142.149 47.7787 141.978 47.8167 141.803 47.8332H141.745C141.101 47.8332 140.78 47.188 140.78 45.8974C140.49 44.7622 140.337 43.5963 140.325 42.4246C140.325 41.5898 140.552 41.1724 141.007 41.1724H141.345C141.893 41.1755 142.435 41.292 142.937 41.5146C143.572 41.2741 144.248 41.1579 144.928 41.1724H145.724C146.558 41.1724 146.974 41.7042 146.974 42.7677C147.125 44.4661 147.333 46.345 147.599 48.4044C147.637 49.1367 147.656 49.7817 147.657 50.3394C147.557 50.5779 147.48 50.8259 147.429 51.0796C147.628 51.6311 147.798 51.9161 147.941 51.9347L147.997 51.8198V51.3643C148.452 48.1856 148.718 45.9084 148.793 44.5328V43.3904C148.841 41.9478 149.031 41.2265 149.363 41.2265L149.7 41.1699C150.221 41.2465 150.505 41.2848 150.553 41.2848C150.796 41.2278 151.043 41.1894 151.292 41.1699C151.535 41.2269 151.782 41.2653 152.031 41.2848L154.539 41.0566ZM152.833 44.9857C152.854 45.0731 152.905 45.15 152.978 45.2023C153.051 45.2547 153.141 45.2788 153.23 45.2705H153.288C153.345 45.2705 153.42 45.1953 153.515 45.0423V44.9274C153.483 44.8507 153.427 44.7867 153.355 44.7454C153.283 44.7041 153.199 44.6879 153.117 44.6993C153.012 44.7001 152.917 44.7956 152.833 44.9891V44.9857Z" fill="#19998C"/>
<path d="M158.234 41.1139H161.134C161.533 41.1121 161.931 41.131 162.328 41.1705C162.705 41.1229 163.086 41.104 163.466 41.1139C163.883 41.1093 164.301 41.1283 164.716 41.1705C165.169 41.1253 165.625 41.1064 166.08 41.1139H166.308C167.181 41.1139 167.617 41.3795 167.617 41.9107V45.4984C167.569 45.8775 167.379 46.067 167.047 46.067H164.489C164.042 46.067 163.777 46.3521 163.693 46.9222C163.313 47.1475 163.123 47.3559 163.123 47.5474V47.7164C163.215 47.7064 163.308 47.7172 163.396 47.748C163.483 47.7788 163.563 47.8288 163.628 47.8944C163.694 47.96 163.744 48.0395 163.774 48.127C163.805 48.2145 163.816 48.3078 163.806 48.4V49.1393C163.835 49.5196 163.929 49.7097 164.09 49.7097C164.621 49.6719 165.076 49.6531 165.456 49.6531C166.669 49.7184 167.275 49.8311 167.275 49.9911C167.335 50.1169 167.373 50.2516 167.39 50.3899L167.221 51.2999C167.367 51.9541 167.443 52.622 167.449 53.2923C167.449 54.0528 167.164 54.4324 166.595 54.4313H166.313C166.009 54.4371 165.705 54.4181 165.404 54.3747C164.342 54.3747 163.811 54.5831 163.811 55V57.9573C163.811 58.3753 163.981 58.5843 164.322 58.5843H167.451C167.829 58.5843 168.057 58.9259 168.133 59.6092C168.068 59.9092 168.03 60.2143 168.019 60.521C168.094 60.9764 168.133 61.2426 168.133 61.3178C168.119 61.5676 168.08 61.8154 168.019 62.0579L168.133 62.7415C168.029 63.235 167.82 63.4817 167.507 63.4817H166.819C166.436 63.4575 166.056 63.4009 165.683 63.3127C165.371 63.4189 165.045 63.4759 164.716 63.4817H164.431C164.033 63.4817 163.426 63.5006 162.611 63.5383V63.4817L162.498 63.5383C162.232 63.5344 161.966 63.5155 161.702 63.4817C161.312 63.5194 161.085 63.5383 161.019 63.5383C160.848 63.5342 160.676 63.5153 160.508 63.4817C159.89 63.5197 159.343 63.5383 158.858 63.5383H158.062C157.607 63.5383 157.38 63.0637 157.38 62.1146C157.4 61.6364 157.457 61.1605 157.548 60.6908C157.475 60.4314 157.437 60.1635 157.434 59.894V56.9899C157.437 56.7204 157.475 56.4525 157.548 56.1931C157.476 55.8561 157.438 55.5127 157.434 55.1681V52.5487C157.462 52.2217 157.519 51.8978 157.602 51.5804V51.5238C157.546 51.2716 157.47 51.0241 157.375 50.7836C157.412 49.5122 157.469 48.4876 157.543 47.7097V47.653C157.467 47.0075 157.429 46.6467 157.429 46.5706V43.9031C157.428 43.7122 157.409 43.5218 157.372 43.3344C157.413 43.1669 157.432 42.9948 157.429 42.8224V42.0256C157.435 41.4172 157.703 41.1133 158.234 41.1139Z" fill="#19998C"/>
<path d="M174.981 40.2598H175.038C177.844 40.2598 179.721 40.582 180.667 41.2264C181.767 41.9474 182.317 42.5169 182.317 42.9349C182.789 44.3652 182.982 45.8729 182.885 47.376C182.842 47.5005 182.775 47.6151 182.687 47.7131C182.599 47.811 182.493 47.8904 182.374 47.9464C181.672 47.9086 181.16 47.8892 180.839 47.8881H179.304C178.811 47.8881 178.166 47.9075 177.37 47.9464C177.202 47.9464 177.012 47.7757 176.802 47.4343C176.84 46.9217 176.859 46.542 176.859 46.2953V44.9282C176.82 44.8406 176.756 44.7666 176.675 44.7158C176.594 44.6651 176.5 44.6398 176.404 44.6434H176.343C175.897 44.6434 175.631 45.118 175.546 46.0672C175.715 47.1684 175.904 47.7191 176.115 47.7191C176.987 48.5916 177.669 49.0279 178.162 49.0279C179.385 49.8141 180.561 50.6695 181.687 51.5898C182.176 52.1854 182.56 52.8597 182.824 53.584C183.036 54.1117 183.171 54.6677 183.223 55.2342L183.164 55.5764L183.279 57.4547C183.137 59.98 182.72 61.3844 182.029 61.6677C181.413 62.1287 180.767 62.5471 180.095 62.9199C179.27 63.2903 178.383 63.503 177.479 63.5469H176.627C176.487 63.5521 176.349 63.5174 176.228 63.4468C176.107 63.3762 176.008 63.2726 175.944 63.1481V63.0915C175.944 62.598 176.248 62.3135 176.855 62.238V62.0099C176.855 61.9516 176.798 61.895 176.686 61.8409H176.629C176.287 61.8409 175.889 62.2772 175.435 63.1498C175.275 63.2835 175.076 63.3633 174.867 63.3779C173.772 63.2645 172.728 62.8508 171.852 62.1823C171.05 61.6812 170.447 60.9169 170.146 60.02C169.964 59.3662 169.831 58.6996 169.748 58.0259L169.805 57.344C169.74 57.0633 169.702 56.777 169.692 56.4889V55.6355C169.692 54.9145 170.071 54.5537 170.829 54.5531H171.852C172.33 54.5704 172.806 54.6269 173.274 54.7221L174.355 54.5531C175.226 54.592 175.662 54.7999 175.662 55.1801C175.67 55.1789 175.678 55.1796 175.685 55.1821C175.693 55.1845 175.699 55.1887 175.705 55.1942C175.71 55.1997 175.714 55.2064 175.717 55.2138C175.719 55.2211 175.72 55.229 175.719 55.2367C175.681 55.7682 175.662 56.1104 175.662 56.2616C175.662 56.487 175.681 56.8855 175.719 57.4573C175.685 57.626 175.667 57.7973 175.662 57.9693C175.7 58.7664 175.87 59.1649 176.174 59.1649H176.458C176.989 59.0325 177.254 58.5391 177.254 57.6845V57.4564C177.235 56.6852 176.999 55.9349 176.573 55.2925C176.573 55.2547 174.81 54.0211 171.283 51.5915C170.444 50.6177 169.875 49.4398 169.634 48.1762C169.599 47.6019 169.523 47.0309 169.406 46.4677C169.671 44.2939 170.05 42.8896 170.543 42.2547C171.173 41.5712 171.953 41.0444 172.822 40.716C173.511 40.4452 174.241 40.291 174.981 40.2598Z" fill="#19998C"/>
<path d="M4.9073 104.672V101.75H1.363V104.672H0.000976562V97.4434H1.363V100.485H4.9073V97.4434H6.25752V104.672H4.9073Z" fill="#040506"/>
<path d="M19.0313 97.4434V101.584C19.0758 102.01 19.0264 102.441 18.8867 102.846C18.7471 103.251 18.5205 103.621 18.2229 103.929C17.9253 104.237 17.5639 104.476 17.1641 104.629C16.7643 104.782 16.3359 104.846 15.9089 104.816C15.4784 104.845 15.0467 104.781 14.643 104.629C14.2392 104.477 13.8729 104.239 13.5688 103.933C13.2647 103.626 13.0299 103.258 12.8804 102.852C12.7309 102.447 12.6701 102.015 12.7022 101.584V97.4434H14.0524V101.584C14.0197 101.842 14.0443 102.105 14.1246 102.353C14.2049 102.602 14.3389 102.829 14.517 103.019C14.6951 103.21 14.9129 103.359 15.1549 103.455C15.397 103.552 15.6573 103.594 15.9174 103.578C17.0406 103.578 17.6811 102.824 17.6811 101.584V97.4434H19.0313Z" fill="#040506"/>
<path d="M30.267 97.4238H31.6265V104.661H30.7826V104.672L26.9851 99.7897V104.661H25.6265V97.4357H26.7235L30.2628 101.914L30.267 97.4238Z" fill="#040506"/>
<path d="M39.9013 98.6715H37.6118V97.4336H43.5527V98.6715H41.2633V104.66H39.9013V98.6715Z" fill="#040506"/>
<path d="M49.5503 104.659V97.4336H50.9005V104.659H49.5503Z" fill="#040506"/>
<path d="M62.0769 97.4238H63.4364V104.661H62.5925V104.672L58.795 99.7897V104.661H57.4355V97.4357H58.5393L62.0761 101.914L62.0769 97.4238Z" fill="#040506"/>
<path d="M75.213 99.1968C74.7097 98.7387 74.056 98.4816 73.3759 98.4744C73.0334 98.4703 72.6939 98.5379 72.379 98.6726C72.0641 98.8074 71.7807 99.0065 71.547 99.2571C71.3132 99.5078 71.1343 99.8045 71.0216 100.128C70.9089 100.452 70.8648 100.796 70.8923 101.138C70.8723 101.466 70.9234 101.796 71.0421 102.103C71.1608 102.41 71.3443 102.688 71.5801 102.917C71.8159 103.147 72.0984 103.323 72.4083 103.433C72.7182 103.544 73.0482 103.586 73.3759 103.557C73.9721 103.573 74.5528 103.366 75.0054 102.977V101.697H73.1598V100.479H76.2552V103.521C75.9056 103.943 75.4646 104.28 74.9657 104.505C74.4668 104.731 73.9231 104.84 73.3759 104.823C70.6653 104.823 69.5615 103.037 69.5615 101.136C69.5279 100.621 69.6028 100.106 69.7814 99.6219C69.9599 99.1383 70.2381 98.6977 70.5979 98.3287C70.9576 97.9597 71.3909 97.6707 71.8695 97.4803C72.3481 97.29 72.8613 97.2026 73.3759 97.2238C74.3814 97.2243 75.3458 97.6231 76.0586 98.3333L75.213 99.1968Z" fill="#040506"/>
<path d="M96.1343 103.751C95.7711 104.104 95.3414 104.38 94.8702 104.565C94.399 104.749 93.8958 104.838 93.39 104.826C92.8863 104.866 92.3798 104.798 91.9045 104.626C91.4292 104.454 90.9959 104.183 90.6337 103.83C90.2715 103.478 89.9887 103.052 89.8042 102.581C89.6197 102.11 89.5377 101.605 89.5638 101.099C89.5391 100.591 89.6213 100.082 89.8051 99.6074C89.9889 99.1325 90.2703 98.7015 90.6309 98.3423C90.9915 97.9831 91.4235 97.7037 91.8987 97.5222C92.374 97.3407 92.882 97.261 93.39 97.2885C93.883 97.2879 94.3712 97.3853 94.8263 97.575C95.2815 97.7647 95.6945 98.043 96.0414 98.3937L95.1343 99.2716C94.6637 98.8256 94.0378 98.5812 93.39 98.5906C93.0573 98.5729 92.7247 98.6259 92.4139 98.746C92.1031 98.8661 91.8212 99.0507 91.5867 99.2876C91.3521 99.5245 91.1703 99.8084 91.053 100.121C90.9358 100.433 90.8858 100.766 90.9064 101.099C90.886 101.43 90.9366 101.76 91.0547 102.069C91.1728 102.378 91.3557 102.658 91.5911 102.891C91.8265 103.123 92.1088 103.302 92.4191 103.415C92.7294 103.529 93.0605 103.575 93.39 103.55C94.066 103.545 94.7149 103.282 95.2043 102.815L96.1343 103.751Z" fill="#040506"/>
<path d="M109.15 101.088C109.152 102.072 108.763 103.017 108.069 103.714C107.375 104.411 106.433 104.803 105.45 104.805C104.467 104.806 103.523 104.417 102.827 103.722C102.131 103.027 101.739 102.083 101.738 101.099C101.727 100.605 101.814 100.114 101.995 99.6542C102.176 99.1945 102.446 98.7755 102.791 98.4219C103.136 98.0683 103.547 97.7872 104.002 97.595C104.457 97.4028 104.945 97.3035 105.438 97.3027C105.932 97.302 106.421 97.3999 106.876 97.5908C107.331 97.7816 107.744 98.0615 108.089 98.4141C108.435 98.7667 108.707 99.1848 108.889 99.644C109.071 100.103 109.16 100.594 109.15 101.088ZM103.074 101.119C103.065 101.437 103.119 101.754 103.234 102.05C103.348 102.346 103.522 102.617 103.743 102.845C103.964 103.073 104.229 103.254 104.521 103.377C104.814 103.501 105.128 103.564 105.446 103.564C105.763 103.563 106.077 103.499 106.369 103.374C106.661 103.249 106.925 103.067 107.146 102.838C107.366 102.61 107.538 102.339 107.652 102.042C107.766 101.745 107.819 101.429 107.808 101.111C107.836 100.782 107.795 100.452 107.688 100.14C107.582 99.828 107.412 99.5417 107.189 99.2992C106.966 99.0566 106.695 98.8631 106.393 98.7309C106.092 98.5988 105.766 98.5308 105.437 98.5314C105.107 98.532 104.782 98.6011 104.481 98.7344C104.18 98.8676 103.909 99.0621 103.687 99.3054C103.465 99.5488 103.296 99.8357 103.19 100.148C103.085 100.46 103.045 100.791 103.074 101.119Z" fill="#040506"/>
<path d="M122.406 101.089C122.408 102.073 122.019 103.017 121.325 103.714C120.631 104.411 119.688 104.804 118.705 104.805C117.722 104.807 116.779 104.417 116.083 103.722C115.387 103.027 114.995 102.084 114.994 101.1C114.978 100.603 115.062 100.108 115.241 99.6445C115.42 99.1809 115.69 98.758 116.035 98.4008C116.38 98.0436 116.793 97.7594 117.25 97.5651C117.707 97.3708 118.198 97.2703 118.694 97.2695C119.191 97.2688 119.682 97.3679 120.139 97.5608C120.597 97.7538 121.011 98.0367 121.357 98.3929C121.703 98.7491 121.974 99.1712 122.155 99.6342C122.335 100.097 122.42 100.592 122.406 101.089ZM116.33 101.12C116.32 101.438 116.375 101.754 116.489 102.05C116.604 102.347 116.777 102.617 116.999 102.845C117.22 103.073 117.484 103.254 117.777 103.378C118.069 103.501 118.384 103.565 118.701 103.564C119.019 103.564 119.333 103.499 119.625 103.374C119.917 103.25 120.181 103.068 120.401 102.839C120.622 102.61 120.794 102.339 120.908 102.043C121.022 101.746 121.075 101.429 121.064 101.111C121.091 100.783 121.051 100.452 120.944 100.14C120.838 99.8285 120.667 99.5422 120.444 99.2997C120.221 99.0571 119.951 98.8636 119.649 98.7315C119.347 98.5993 119.022 98.5314 118.692 98.5319C118.363 98.5325 118.038 98.6016 117.736 98.7349C117.435 98.8681 117.165 99.0626 116.943 99.3059C116.721 99.5493 116.552 99.8362 116.446 100.148C116.341 100.461 116.301 100.792 116.33 101.12Z" fill="#040506"/>
<path d="M129.931 97.4336V103.399H133.644V104.659H128.571V97.4336H129.931Z" fill="#040506"/>
<path d="M151.458 99.1781C151.257 98.9173 150.997 98.7083 150.699 98.5684C150.401 98.4285 150.074 98.3618 149.745 98.3737C148.732 98.3737 148.251 98.7962 148.251 99.3327C148.251 99.9631 148.992 100.137 149.86 100.241C151.365 100.427 152.767 100.821 152.767 102.544C152.767 104.15 151.343 104.845 149.736 104.845C148.262 104.845 147.127 104.392 146.59 103.071L147.725 102.479C147.908 102.855 148.2 103.166 148.564 103.372C148.927 103.577 149.345 103.667 149.76 103.629C150.617 103.629 151.42 103.331 151.42 102.547C151.42 101.863 150.71 101.585 149.749 101.484C148.274 101.307 146.915 100.916 146.915 99.293C146.915 97.8076 148.378 97.1975 149.71 97.189C150.27 97.1278 150.837 97.231 151.34 97.486C151.843 97.741 152.262 98.1369 152.544 98.6255L151.458 99.1781Z" fill="#040506"/>
<path d="M160.847 98.6715H158.554V97.4336H164.495V98.6715H162.205V104.66H160.843L160.847 98.6715Z" fill="#040506"/>
<path d="M177.032 97.4434V101.584C177.077 102.01 177.027 102.441 176.888 102.846C176.748 103.251 176.521 103.621 176.224 103.929C175.926 104.237 175.565 104.476 175.165 104.629C174.765 104.782 174.337 104.846 173.91 104.816C173.479 104.845 173.048 104.781 172.644 104.629C172.24 104.477 171.874 104.239 171.57 103.933C171.266 103.626 171.031 103.258 170.881 102.852C170.732 102.447 170.671 102.015 170.703 101.584V97.4434H172.053V101.584C172.021 101.842 172.045 102.105 172.126 102.353C172.206 102.602 172.34 102.829 172.518 103.019C172.696 103.21 172.914 103.359 173.156 103.455C173.398 103.552 173.658 103.594 173.918 103.578C175.042 103.578 175.682 102.824 175.682 101.584V97.4434H177.032Z" fill="#040506"/>
<path d="M183.523 104.66V97.4434H188.709V98.7564H184.88V100.728H188.502V101.988H184.88V104.659L183.523 104.66Z" fill="#040506"/>
<path d="M194.81 104.66V97.4434H199.995V98.7564H196.169V100.728H199.79V101.988H196.169V104.659L194.81 104.66Z" fill="#040506"/>
</svg>